{
copyright = "\U00A9 Copyright (c) 2010. All rights reserved. Fakt is a design by Thomas Thiemich, published by OurType. www.ourtype.com";
customParameters = (
{
name = license;
value = "A copy of the End-User License Agreement to this software can be found at http://www.ourtype.com";
},
{
name = licenseURL;
value = "http://www.ourtype.com";
},
{
name = vendorID;
value = OURT;
},
{
name = glyphOrder;
value = (
    ".notdef",
    space,
    exclam,
    quotedbl,
    numbersign,
    dollar,
    percent,
    ampersand,
    quoteright,
    parenleft,
    parenright,
    asterisk,
    plus,
    comma,
    hyphen,
    period,
    slash,
    zero,
    one,
    two,
    three,
    four,
    five,
    six,
    seven,
    eight,
    nine,
    colon,
    semicolon,
    less,
    equal,
    greater,
    question,
    at,
    A,
    B,
    C,
    D,
    E,
    F,
    G,
    H,
    I,
    J,
    K,
    L,
    M,
    N,
    O,
    P,
    Q,
    R,
    S,
    T,
    U,
    V,
    W,
    X,
    Y,
    Z,
    bracketleft,
    backslash,
    bracketright,
    asciicircum,
    underscore,
    quoteleft,
    a,
    b,
    c,
    d,
    e,
    f,
    g,
    h,
    i,
    j,
    k,
    l,
    m,
    n,
    o,
    p,
    q,
    r,
    s,
    t,
    u,
    v,
    w,
    x,
    y,
    z,
    braceleft,
    bar,
    braceright,
    asciitilde,
    exclamdown,
    cent,
    sterling,
    fraction,
    yen,
    florin,
    section,
    currency,
    quotesingle,
    quotedblleft,
    guillemotleft,
    guilsinglleft,
    guilsinglright,
    fi,
    fl,
    endash,
    dagger,
    daggerdbl,
    periodcentered,
    paragraph,
    bullet,
    quotesinglbase,
    quotedblbase,
    quotedblright,
    guillemotright,
    ellipsis,
    perthousand,
    questiondown,
    grave,
    acute,
    circumflex,
    tilde,
    macron,
    breve,
    dotaccent,
    dieresis,
    ring,
    cedilla,
    hungarumlaut,
    ogonek,
    caron,
    emdash,
    AE,
    ordfeminine,
    Lslash,
    Oslash,
    OE,

glyphs = (
{
glyphname = .notdef;
layers = (
{
layerId = "E50B3E3D-B4C5-41E4-9ECD-CCE241FA0330";
name = Regular;
paths = (
{
closed = 1;
nodes = (
"0 0 LINE",
"712 0 LINE",
"712 720 LINE",
"0 720 LINE"
);
},
{
closed = 1;
nodes = (
"232 184 LINE",
"180 236 LINE",
"306 366 LINE",
"180 496 LINE",
"232 548 LINE",
"358 419 LINE",
"484 548 LINE",
"536 496 LINE",
"409 366 LINE",
"536 236 LINE",
"484 184 LINE",
"358 313 LINE"
);
}
);
width = 712;
}
);
},
{
glyphname = exclam;
layers = (
{
layerId = "E50B3E3D-B4C5-41E4-9ECD-CCE241FA0330";
name = Regular;
paths = (
{
closed = 1;
nodes = (
"116 192 LINE",
"164 192 LINE",
"192 496 LINE",
"192 688 LINE",
"88 688 LINE",
"88 496 LINE"
);
},
{
closed = 1;
nodes = (
"88 0 LINE",
"192 0 LINE",
"192 108 LINE",
"88 108 LINE"
);
}
);
width = 280;
}
);
leftKerningGroup = exclam;
unicode = 0021;
},
{
glyphname = quotedbl;
layers = (
{
layerId = "E50B3E3D-B4C5-41E4-9ECD-CCE241FA0330";
name = Regular;
paths = (
{
closed = 1;
nodes = (
"80 436 LINE",
"136 436 LINE",
"152 604 LINE",
"152 688 LINE",
"64 688 LINE",
"64 604 LINE"
);
},
{
closed = 1;
nodes = (
"256 436 LINE",
"312 436 LINE",
"328 604 LINE",
"328 688 LINE",
"240 688 LINE",
"240 604 LINE"
);
}
);
width = 392;
}
);
unicode = 0022;
},
{
glyphname = numbersign;
layers = (
{
layerId = "E50B3E3D-B4C5-41E4-9ECD-CCE241FA0330";
name = Regular;
paths = (
{
closed = 1;
nodes = (
"60 456 LINE",
"175 456 LINE",
"137 236 LINE",
"20 236 LINE",
"20 168 LINE",
"125 168 LINE",
"96 0 LINE",
"176 0 LINE",
"205 168 LINE",
"349 168 LINE",
"320 0 LINE",
"400 0 LINE",
"429 168 LINE",
"556 168 LINE",
"556 236 LINE",
"441 236 LINE",
"479 456 LINE",
"596 456 LINE",
"596 524 LINE",
"491 524 LINE",
"520 688 LINE",
"440 688 LINE",
"411 524 LINE",
"267 524 LINE",
"296 688 LINE",
"216 688 LINE",
"187 524 LINE",
"60 524 LINE"
);
},
{
closed = 1;
nodes = (
"255 456 LINE",
"399 456 LINE",
"361 236 LINE",
"217 236 LINE"
);
}
);
width = 616;
}
);
unicode = 0023;
},
{
glyphname = dollar;
layers = (
{
layerId = "E50B3E3D-B4C5-41E4-9ECD-CCE241FA0330";
name = Regular;
paths = (
{
closed = 1;
nodes = (
"44 192 LINE",
"48 79 OFFCURVE",
"123 6 OFFCURVE",
"236 -9 CURVE",
"236 -120 LINE",
"324 -120 LINE",
"324 -9 LINE",
"437 5 OFFCURVE",
"516 77 OFFCURVE",
"516 188 CURVE SMOOTH",
"516 284 OFFCURVE",
"463 342 OFFCURVE",
"356 376 CURVE SMOOTH",
"268 404 LINE SMOOTH",
"191 429 OFFCURVE",
"152 453 OFFCURVE",
"152 520 CURVE SMOOTH",
"152 593 OFFCURVE",
"211 628 OFFCURVE",
"280 628 CURVE SMOOTH",
"348 628 OFFCURVE",
"401 593 OFFCURVE",
"412 516 CURVE",
"500 516 LINE",
"493 616 OFFCURVE",
"419 681 OFFCURVE",
"324 696 CURVE",
"324 804 LINE",
"236 804 LINE",
"236 696 LINE",
"133 681 OFFCURVE",
"60 611 OFFCURVE",
"60 512 CURVE SMOOTH",
"60 400 OFFCURVE",
"144 350 OFFCURVE",
"212 328 CURVE SMOOTH",
"300 300 LINE SMOOTH",
"377 276 OFFCURVE",
"424 251 OFFCURVE",
"424 184 CURVE SMOOTH",
"424 107 OFFCURVE",
"368 60 OFFCURVE",
"280 60 CURVE SMOOTH",
"198 60 OFFCURVE",
"137 109 OFFCURVE",
"132 192 CURVE"
);
}
);
width = 568;
}
);
unicode = 0024;
},
{
glyphname = percent;
layers = (
{
layerId = "E50B3E3D-B4C5-41E4-9ECD-CCE241FA0330";
name = Regular;
paths = (
{
closed = 1;
nodes = (
"280 336 OFFCURVE",
"324 416 OFFCURVE",
"324 516 CURVE SMOOTH",
"324 616 OFFCURVE",
"280 696 OFFCURVE",
"176 696 CURVE SMOOTH",
"73 696 OFFCURVE",
"28 616 OFFCURVE",
"28 516 CURVE SMOOTH",
"28 416 OFFCURVE",
"73 336 OFFCURVE",
"176 336 CURVE SMOOTH"
);
},
{
closed = 1;
nodes = (
"704 -8 OFFCURVE",
"748 72 OFFCURVE",
"748 172 CURVE SMOOTH",
"748 272 OFFCURVE",
"704 352 OFFCURVE",
"600 352 CURVE SMOOTH",
"497 352 OFFCURVE",
"452 272 OFFCURVE",
"452 172 CURVE SMOOTH",
"452 72 OFFCURVE",
"497 -8 OFFCURVE",
"600 -8 CURVE SMOOTH"
);
},
{
closed = 1;
nodes = (
"180 -12 LINE",
"248 -12 LINE",
"596 700 LINE",
"528 700 LINE"
);
},
{
closed = 1;
nodes = (
"130 396 OFFCURVE",
"104 438 OFFCURVE",
"104 516 CURVE SMOOTH",
"104 594 OFFCURVE",
"129 636 OFFCURVE",
"176 636 CURVE SMOOTH",
"224 636 OFFCURVE",
"248 594 OFFCURVE",
"248 516 CURVE SMOOTH",
"248 438 OFFCURVE",
"223 396 OFFCURVE",
"176 396 CURVE SMOOTH"
);
},
{
closed = 1;
nodes = (
"554 52 OFFCURVE",
"528 94 OFFCURVE",
"528 172 CURVE SMOOTH",
"528 250 OFFCURVE",
"553 292 OFFCURVE",
"600 292 CURVE SMOOTH",
"648 292 OFFCURVE",
"672 250 OFFCURVE",
"672 172 CURVE SMOOTH",
"672 94 OFFCURVE",
"647 52 OFFCURVE",
"600 52 CURVE SMOOTH"
);
}
);
width = 776;
}
);
unicode = 0025;
},
{
glyphname = ampersand;
layers = (
{
layerId = "E50B3E3D-B4C5-41E4-9ECD-CCE241FA0330";
name = Regular;
paths = (
{
closed = 1;
nodes = (
"48 64 OFFCURVE",
"142 -12 OFFCURVE",
"304 -12 CURVE SMOOTH",
"404 -12 OFFCURVE",
"474 20 OFFCURVE",
"522 66 CURVE",
"588 0 LINE",
"692 0 LINE",
"569 124 LINE",
"613 196 OFFCURVE",
"624 278 OFFCURVE",
"624 324 CURVE SMOOTH",
"624 344 LINE",
"544 344 LINE",
"544 336 LINE SMOOTH",
"544 280 OFFCURVE",
"534 227 OFFCURVE",
"513 182 CURVE",
"333 364 LINE",
"419 402 OFFCURVE",
"500 446 OFFCURVE",
"500 544 CURVE SMOOTH",
"500 636 OFFCURVE",
"428 700 OFFCURVE",
"312 700 CURVE SMOOTH",
"191 700 OFFCURVE",
"124 620 OFFCURVE",
"124 536 CURVE SMOOTH",
"124 478 OFFCURVE",
"149 441 OFFCURVE",
"207 380 CURVE",
"124 340 OFFCURVE",
"48 287 OFFCURVE",
"48 180 CURVE SMOOTH"
);
},
{
closed = 1;
nodes = (
"209 60 OFFCURVE",
"136 106 OFFCURVE",
"136 188 CURVE SMOOTH",
"136 259 OFFCURVE",
"191 297 OFFCURVE",
"258 330 CURVE",
"468 119 LINE",
"430 82 OFFCURVE",
"377 60 OFFCURVE",
"304 60 CURVE SMOOTH"
);
},
{
closed = 1;
nodes = (
"204 588 OFFCURVE",
"239 632 OFFCURVE",
"312 632 CURVE SMOOTH",
"380 632 OFFCURVE",
"416 592 OFFCURVE",
"416 544 CURVE SMOOTH",
"416 480 OFFCURVE",
"355 447 OFFCURVE",
"282 414 CURVE",
"231 466 OFFCURVE",
"204 498 OFFCURVE",
"204 540 CURVE SMOOTH"
);
}
);
width = 712;
}
);
leftKerningGroup = ampersand;
rightKerningGroup = ampersand;
unicode = 0026;
},
{
glyphname = quoteright;
layers = (
{
layerId = "E50B3E3D-B4C5-41E4-9ECD-CCE241FA0330";
name = Regular;
paths = (
{
closed = 1;
nodes = (
"88 436 LINE",
"136 436 LINE",
"176 588 LINE",
"176 688 LINE",
"72 688 LINE",
"72 580 LINE",
"116 580 LINE"
);
}
);
width = 248;
}
);
leftKerningGroup = quoteright;
rightKerningGroup = quoteright;
unicode = 2019;
},
{
glyphname = parenleft;
layers = (
{
layerId = "E50B3E3D-B4C5-41E4-9ECD-CCE241FA0330";
name = Regular;
paths = (
{
closed = 1;
nodes = (
"24 47 OFFCURVE",
"118 -135 OFFCURVE",
"188 -228 CURVE",
"268 -228 LINE",
"215 -154 OFFCURVE",
"108 47 OFFCURVE",
"108 260 CURVE SMOOTH",
"108 473 OFFCURVE",
"211 670 OFFCURVE",
"268 744 CURVE",
"188 744 LINE",
"118 651 OFFCURVE",
"24 473 OFFCURVE",
"24 260 CURVE SMOOTH"
);
}
);
width = 284;
}
);
rightKerningGroup = parenleft;
unicode = 0028;
},
{
glyphname = parenright;
layers = (
{
layerId = "E50B3E3D-B4C5-41E4-9ECD-CCE241FA0330";
name = Regular;
paths = (
{
closed = 1;
nodes = (
"96 -228 LINE",
"166 -135 OFFCURVE",
"260 47 OFFCURVE",
"260 260 CURVE SMOOTH",
"260 473 OFFCURVE",
"166 651 OFFCURVE",
"96 744 CURVE",
"16 744 LINE",
"73 670 OFFCURVE",
"176 473 OFFCURVE",
"176 260 CURVE SMOOTH",
"176 47 OFFCURVE",
"69 -154 OFFCURVE",
"16 -228 CURVE"
);
}
);
width = 284;
}
);
leftKerningGroup = parenright;
unicode = 0029;
},
{
glyphname = asterisk;
layers = (
{
layerId = "E50B3E3D-B4C5-41E4-9ECD-CCE241FA0330";
name = Regular;
paths = (
{
closed = 1;
nodes = (
"192 696 LINE",
"208 563 LINE",
"87 620 LINE",
"65 551 LINE",
"195 526 LINE",
"105 428 LINE",
"163 386 LINE",
"227 502 LINE",
"293 386 LINE",
"351 428 LINE",
"260 525 LINE",
"391 551 LINE",
"369 620 LINE",
"247 562 LINE",
"264 696 LINE"
);
}
);
width = 456;
}
);
leftKerningGroup = asterisk;
rightKerningGroup = asterisk;
unicode = 002A;
},
{
glyphname = plus;
layers = (
{
layerId = "E50B3E3D-B4C5-41E4-9ECD-CCE241FA0330";
name = Regular;
paths = (
{
closed = 1;
nodes = (
"56 216 LINE",
"244 216 LINE",
"244 28 LINE",
"324 28 LINE",
"324 216 LINE",
"512 216 LINE",
"512 292 LINE",
"324 292 LINE",
"324 480 LINE",
"244 480 LINE",
"244 292 LINE",
"56 292 LINE"
);
}
);
width = 568;
}
);
unicode = 002B;
},
{
glyphname = comma;
layers = (
{
layerId = "E50B3E3D-B4C5-41E4-9ECD-CCE241FA0330";
name = Regular;
paths = (
{
closed = 1;
nodes = (
"124 0 LINE",
"92 -156 LINE",
"144 -156 LINE",
"188 8 LINE",
"188 116 LINE",
"76 116 LINE",
"76 0 LINE"
);
}
);
width = 264;
}
);
leftKerningGroup = comma;
rightKerningGroup = comma;
unicode = 002C;
},
{
glyphname = hyphen;
layers = (
{
layerId = "E50B3E3D-B4C5-41E4-9ECD-CCE241FA0330";
name = Regular;
paths = (
{
closed = 1;
nodes = (
"60 212 LINE",
"336 212 LINE",
"336 292 LINE",
"60 292 LINE"
);
}
);
width = 396;
}
);
leftKerningGroup = hyphen;
rightKerningGroup = hyphen;
unicode = 002D;
},
{
glyphname = period;
layers = (
{
layerId = "E50B3E3D-B4C5-41E4-9ECD-CCE241FA0330";
name = Regular;
paths = (
{
closed = 1;
nodes = (
"76 0 LINE",
"188 0 LINE",
"188 116 LINE",
"76 116 LINE"
);
}
);
width = 264;
}
);
leftKerningGroup = comma;
rightKerningGroup = comma;
unicode = 002E;
},
{
glyphname = slash;
layers = (
{
layerId = "E50B3E3D-B4C5-41E4-9ECD-CCE241FA0330";
name = Regular;
paths = (
{
closed = 1;
nodes = (
"8 -12 LINE",
"84 -12 LINE",
"392 700 LINE",
"316 700 LINE"
);
}
);
width = 400;
}
);
leftKerningGroup = slash;
rightKerningGroup = slash;
unicode = 002F;
},
{
glyphname = zero;
layers = (
{
layerId = "E50B3E3D-B4C5-41E4-9ECD-CCE241FA0330";
name = Regular;
paths = (
{
closed = 1;
nodes = (
"456 -12 OFFCURVE",
"524 144 OFFCURVE",
"524 344 CURVE SMOOTH",
"524 544 OFFCURVE",
"456 700 OFFCURVE",
"284 700 CURVE SMOOTH",
"112 700 OFFCURVE",
"44 544 OFFCURVE",
"44 344 CURVE SMOOTH",
"44 144 OFFCURVE",
"112 -12 OFFCURVE",
"284 -12 CURVE SMOOTH"
);
},
{
closed = 1;
nodes = (
"184 68 OFFCURVE",
"136 168 OFFCURVE",
"136 344 CURVE SMOOTH",
"136 520 OFFCURVE",
"181 620 OFFCURVE",
"284 620 CURVE SMOOTH",
"384 620 OFFCURVE",
"432 520 OFFCURVE",
"432 344 CURVE SMOOTH",
"432 168 OFFCURVE",
"384 68 OFFCURVE",
"284 68 CURVE SMOOTH"
);
}
);
width = 568;
}
);
unicode = 0030;
},
{
glyphname = one;
layers = (
{
layerId = "E50B3E3D-B4C5-41E4-9ECD-CCE241FA0330";
name = Regular;
paths = (
{
closed = 1;
nodes = (
"100 468 LINE",
"260 579 LINE",
"260 76 LINE",
"84 76 LINE",
"84 0 LINE",
"512 0 LINE",
"512 76 LINE",
"348 76 LINE",
"348 688 LINE",
"280 688 LINE",
"60 536 LINE"
);
}
);
width = 568;
}
);
unicode = 0031;
},
{
glyphname = two;
layers = (
{
layerId = "E50B3E3D-B4C5-41E4-9ECD-CCE241FA0330";
name = Regular;
paths = (
{
closed = 1;
nodes = (
"512 0 LINE",
"512 76 LINE",
"156 76 LINE",
"160 119 OFFCURVE",
"176 169 OFFCURVE",
"280 240 CURVE SMOOTH",
"356 292 LINE SMOOTH",
"427 341 OFFCURVE",
"504 384 OFFCURVE",
"504 504 CURVE SMOOTH",
"504 627 OFFCURVE",
"414 700 OFFCURVE",
"288 700 CURVE SMOOTH",
"180 700 OFFCURVE",
"76 648 OFFCURVE",
"68 484 CURVE",
"148 484 LINE",
"156 576 OFFCURVE",
"200 624 OFFCURVE",
"288 624 CURVE SMOOTH",
"379 624 OFFCURVE",
"416 560 OFFCURVE",
"416 504 CURVE SMOOTH",
"416 424 OFFCURVE",
"371 397 OFFCURVE",
"300 348 CURVE SMOOTH",
"224 296 LINE SMOOTH",
"119 224 OFFCURVE",
"61 154 OFFCURVE",
"56 0 CURVE"
);
}
);
width = 568;
}
);
unicode = 0032;
},
{
glyphname = three;
layers = (
{
layerId = "E50B3E3D-B4C5-41E4-9ECD-CCE241FA0330";
name = Regular;
paths = (
{
closed = 1;
nodes = (
"48 208 LINE",
"48 60 OFFCURVE",
"141 -12 OFFCURVE",
"280 -12 CURVE SMOOTH",
"411 -12 OFFCURVE",
"516 61 OFFCURVE",
"516 184 CURVE SMOOTH",
"516 269 OFFCURVE",
"460 336 OFFCURVE",
"388 356 CURVE",
"388 360 LINE",
"440 380 OFFCURVE",
"488 447 OFFCURVE",
"488 514 CURVE SMOOTH",
"488 622 OFFCURVE",
"406 700 OFFCURVE",
"280 700 CURVE SMOOTH",
"158 700 OFFCURVE",
"76 622 OFFCURVE",
"76 500 CURVE",
"156 500 LINE",
"156 585 OFFCURVE",
"212 624 OFFCURVE",
"280 624 CURVE SMOOTH",
"348 624 OFFCURVE",
"404 584 OFFCURVE",
"404 513 CURVE SMOOTH",
"404 442 OFFCURVE",
"348 394 OFFCURVE",
"280 394 CURVE SMOOTH",
"228 394 LINE",
"228 318 LINE",
"280 318 LINE SMOOTH",
"361 318 OFFCURVE",
"428 269 OFFCURVE",
"428 191 CURVE SMOOTH",
"428 110 OFFCURVE",
"366 64 OFFCURVE",
"280 64 CURVE SMOOTH",
"195 64 OFFCURVE",
"132 110 OFFCURVE",
"132 208 CURVE"
);
}
);
width = 568;
}
);
unicode = 0033;
},
{
glyphname = four;
layers = (
{
layerId = "E50B3E3D-B4C5-41E4-9ECD-CCE241FA0330";
name = Regular;
paths = (
{
closed = 1;
nodes = (
"32 172 LINE",
"348 172 LINE",
"348 0 LINE",
"436 0 LINE",
"436 172 LINE",
"536 172 LINE",
"536 248 LINE",
"436 248 LINE",
"436 688 LINE",
"364 688 LINE",
"32 236 LINE"
);
},
{
closed = 1;
nodes = (
"122 248 LINE",
"348 551 LINE",
"348 248 LINE"
);
}
);
width = 568;
}
);
unicode = 0034;
},
{
glyphname = five;
layers = (
{
layerId = "E50B3E3D-B4C5-41E4-9ECD-CCE241FA0330";
name = Regular;
paths = (
{
closed = 1;
nodes = (
"48 184 LINE",
"59 66 OFFCURVE",
"144 -12 OFFCURVE",
"284 -12 CURVE SMOOTH",
"404 -12 OFFCURVE",
"520 64 OFFCURVE",
"520 220 CURVE SMOOTH",
"520 358 OFFCURVE",
"419 440 OFFCURVE",
"296 440 CURVE SMOOTH",
"236 440 OFFCURVE",
"192 420 OFFCURVE",
"164 392 CURVE",
"160 392 LINE",
"172 608 LINE",
"480 608 LINE",
"480 688 LINE",
"92 688 LINE",
"72 300 LINE",
"152 296 LINE",
"190 340 OFFCURVE",
"230 364 OFFCURVE",
"284 364 CURVE SMOOTH",
"368 364 OFFCURVE",
"432 307 OFFCURVE",
"432 212 CURVE SMOOTH",
"432 115 OFFCURVE",
"360 64 OFFCURVE",
"284 64 CURVE SMOOTH",
"189 64 OFFCURVE",
"144 124 OFFCURVE",
"136 184 CURVE"
);
}
);
width = 568;
}
);
unicode = 0035;
},
{
glyphname = six;
layers = (
{
layerId = "E50B3E3D-B4C5-41E4-9ECD-CCE241FA0330";
name = Regular;
paths = (
{
closed = 1;
nodes = (
"48 75 OFFCURVE",
"164 -12 OFFCURVE",
"300 -12 CURVE SMOOTH",
"419 -12 OFFCURVE",
"532 69 OFFCURVE",
"532 216 CURVE SMOOTH",
"532 352 OFFCURVE",
"444 440 OFFCURVE",
"316 440 CURVE SMOOTH",
"243 440 OFFCURVE",
"168 405 OFFCURVE",
"140 349 CURVE",
"145 553 OFFCURVE",
"227 624 OFFCURVE",
"308 624 CURVE SMOOTH",
"388 624 OFFCURVE",
"420 576 OFFCURVE",
"428 516 CURVE",
"516 516 LINE",
"504 624 OFFCURVE",
"440 700 OFFCURVE",
"308 700 CURVE SMOOTH",
"177 700 OFFCURVE",
"48 605 OFFCURVE",
"48 328 CURVE SMOOTH"
);
},
{
closed = 1;
nodes = (
"380 364 OFFCURVE",
"444 304 OFFCURVE",
"444 216 CURVE SMOOTH",
"444 118 OFFCURVE",
"378 64 OFFCURVE",
"296 64 CURVE SMOOTH",
"213 64 OFFCURVE",
"152 129 OFFCURVE",
"152 215 CURVE SMOOTH",
"152 300 OFFCURVE",
"218 364 OFFCURVE",
"304 364 CURVE SMOOTH"
);
}
);
width = 568;
}
);
unicode = 0036;
},
{
glyphname = seven;
layers = (
{
layerId = "E50B3E3D-B4C5-41E4-9ECD-CCE241FA0330";
name = Regular;
paths = (
{
closed = 1;
nodes = (
"140 0 LINE",
"232 0 LINE",
"524 624 LINE",
"524 688 LINE",
"52 688 LINE",
"52 608 LINE",
"428 608 LINE"
);
}
);
width = 568;
}
);
unicode = 0037;
},
{
glyphname = eight;
layers = (
{
layerId = "E50B3E3D-B4C5-41E4-9ECD-CCE241FA0330";
name = Regular;
paths = (
{
closed = 1;
nodes = (
"44 61 OFFCURVE",
"141 -12 OFFCURVE",
"284 -12 CURVE SMOOTH",
"427 -12 OFFCURVE",
"524 61 OFFCURVE",
"524 184 CURVE SMOOTH",
"524 269 OFFCURVE",
"468 336 OFFCURVE",
"396 356 CURVE",
"396 360 LINE",
"452 380 OFFCURVE",
"496 446 OFFCURVE",
"496 514 CURVE SMOOTH",
"496 622 OFFCURVE",
"414 700 OFFCURVE",
"284 700 CURVE SMOOTH",
"154 700 OFFCURVE",
"72 622 OFFCURVE",
"72 514 CURVE SMOOTH",
"72 446 OFFCURVE",
"116 380 OFFCURVE",
"172 360 CURVE",
"172 356 LINE",
"100 336 OFFCURVE",
"44 269 OFFCURVE",
"44 184 CURVE SMOOTH"
);
},
{
closed = 1;
nodes = (
"132 268 OFFCURVE",
"199 318 OFFCURVE",
"284 318 CURVE SMOOTH",
"369 318 OFFCURVE",
"436 268 OFFCURVE",
"436 191 CURVE SMOOTH",
"436 110 OFFCURVE",
"373 64 OFFCURVE",
"284 64 CURVE SMOOTH",
"195 64 OFFCURVE",
"132 110 OFFCURVE",
"132 191 CURVE SMOOTH"
);
},
{
closed = 1;
nodes = (
"212 394 OFFCURVE",
"156 442 OFFCURVE",
"156 513 CURVE SMOOTH",
"156 584 OFFCURVE",
"212 628 OFFCURVE",
"284 628 CURVE SMOOTH",
"356 628 OFFCURVE",
"412 584 OFFCURVE",
"412 513 CURVE SMOOTH",
"412 442 OFFCURVE",
"356 394 OFFCURVE",
"284 394 CURVE SMOOTH"
);
}
);
width = 568;
}
);
unicode = 0038;
},
{
glyphname = nine;
layers = (
{
layerId = "E50B3E3D-B4C5-41E4-9ECD-CCE241FA0330";
name = Regular;
paths = (
{
closed = 1;
nodes = (
"520 613 OFFCURVE",
"404 700 OFFCURVE",
"268 700 CURVE SMOOTH",
"149 700 OFFCURVE",
"36 619 OFFCURVE",
"36 472 CURVE SMOOTH",
"36 336 OFFCURVE",
"124 248 OFFCURVE",
"252 248 CURVE SMOOTH",
"325 248 OFFCURVE",
"400 283 OFFCURVE",
"428 338 CURVE",
"424 135 OFFCURVE",
"361 64 OFFCURVE",
"268 64 CURVE SMOOTH",
"184 64 OFFCURVE",
"152 116 OFFCURVE",
"140 172 CURVE",
"52 172 LINE",
"68 64 OFFCURVE",
"132 -12 OFFCURVE",
"268 -12 CURVE SMOOTH",
"411 -12 OFFCURVE",
"520 83 OFFCURVE",
"520 360 CURVE SMOOTH"
);
},
{
closed = 1;
nodes = (
"188 324 OFFCURVE",
"124 384 OFFCURVE",
"124 472 CURVE SMOOTH",
"124 570 OFFCURVE",
"194 624 OFFCURVE",
"272 624 CURVE SMOOTH",
"354 624 OFFCURVE",
"416 558 OFFCURVE",
"416 473 CURVE SMOOTH",
"416 388 OFFCURVE",
"350 324 OFFCURVE",
"264 324 CURVE SMOOTH"
);
}
);
width = 568;
}
);
unicode = 0039;
},
{
glyphname = colon;
layers = (
{
layerId = "E50B3E3D-B4C5-41E4-9ECD-CCE241FA0330";
name = Regular;
paths = (
{
closed = 1;
nodes = (
"76 372 LINE",
"188 372 LINE",
"188 488 LINE",
"76 488 LINE"
);
},
{
closed = 1;
nodes = (
"76 0 LINE",
"188 0 LINE",
"188 116 LINE",
"76 116 LINE"
);
}
);
width = 264;
}
);
leftKerningGroup = colon;
unicode = 003A;
},
{
glyphname = semicolon;
layers = (
{
layerId = "E50B3E3D-B4C5-41E4-9ECD-CCE241FA0330";
name = Regular;
paths = (
{
closed = 1;
nodes = (
"76 372 LINE",
"188 372 LINE",
"188 488 LINE",
"76 488 LINE"
);
},
{
closed = 1;
nodes = (
"124 0 LINE",
"92 -156 LINE",
"144 -156 LINE",
"188 8 LINE",
"188 116 LINE",
"76 116 LINE",
"76 0 LINE"
);
}
);
width = 264;
}
);
leftKerningGroup = colon;
unicode = 003B;
},
{
glyphname = less;
layers = (
{
layerId = "E50B3E3D-B4C5-41E4-9ECD-CCE241FA0330";
name = Regular;
paths = (
{
closed = 1;
nodes = (
"72 216 LINE",
"496 36 LINE",
"496 120 LINE",
"161 256 LINE",
"496 392 LINE",
"496 472 LINE",
"72 292 LINE"
);
}
);
width = 568;
}
);
unicode = 003C;
},
{
glyphname = equal;
layers = (
{
layerId = "E50B3E3D-B4C5-41E4-9ECD-CCE241FA0330";
name = Regular;
paths = (
{
closed = 1;
nodes = (
"56 320 LINE",
"512 320 LINE",
"512 396 LINE",
"56 396 LINE"
);
},
{
closed = 1;
nodes = (
"56 112 LINE",
"512 112 LINE",
"512 188 LINE",
"56 188 LINE"
);
}
);
width = 568;
}
);
unicode = 003D;
},
{
glyphname = greater;
layers = (
{
layerId = "E50B3E3D-B4C5-41E4-9ECD-CCE241FA0330";
name = Regular;
paths = (
{
closed = 1;
nodes = (
"496 292 LINE",
"72 472 LINE",
"72 388 LINE",
"407 252 LINE",
"72 116 LINE",
"72 36 LINE",
"496 216 LINE"
);
}
);
width = 568;
}
);
unicode = 003E;
},
{
glyphname = question;
layers = (
{
layerId = "E50B3E3D-B4C5-41E4-9ECD-CCE241FA0330";
name = Regular;
paths = (
{
closed = 1;
nodes = (
"204 196 LINE",
"292 196 LINE",
"292 236 LINE SMOOTH",
"292 364 OFFCURVE",
"468 356 OFFCURVE",
"468 520 CURVE SMOOTH",
"468 631 OFFCURVE",
"381 700 OFFCURVE",
"260 700 CURVE SMOOTH",
"109 700 OFFCURVE",
"40 593 OFFCURVE",
"40 480 CURVE",
"128 480 LINE",
"128 558 OFFCURVE",
"169 624 OFFCURVE",
"260 624 CURVE SMOOTH",
"330 624 OFFCURVE",
"376 577 OFFCURVE",
"376 516 CURVE SMOOTH",
"376 396 OFFCURVE",
"204 412 OFFCURVE",
"204 224 CURVE SMOOTH"
);
},
{
closed = 1;
nodes = (
"196 0 LINE",
"300 0 LINE",
"300 108 LINE",
"196 108 LINE"
);
}
);
width = 504;
}
);
leftKerningGroup = question;
unicode = 003F;
},
{
glyphname = at;
layers = (
{
layerId = "E50B3E3D-B4C5-41E4-9ECD-CCE241FA0330";
name = Regular;
paths = (
{
closed = 1;
nodes = (
"300 46 OFFCURVE",
"360 -12 OFFCURVE",
"464 -12 CURVE SMOOTH",
"539 -12 OFFCURVE",
"605 11 OFFCURVE",
"640 74 CURVE",
"664 11 OFFCURVE",
"720 -8 OFFCURVE",
"780 -8 CURVE SMOOTH",
"884 -8 OFFCURVE",
"984 72 OFFCURVE",
"984 272 CURVE SMOOTH",
"984 532 OFFCURVE",
"786 700 OFFCURVE",
"520 700 CURVE SMOOTH",
"234 700 OFFCURVE",
"48 492 OFFCURVE",
"48 232 CURVE SMOOTH",
"48 -28 OFFCURVE",
"234 -228 OFFCURVE",
"508 -228 CURVE SMOOTH",
"640 -228 OFFCURVE",
"749 -179 OFFCURVE",
"820 -88 CURVE",
"720 -88 LINE",
"668 -141 OFFCURVE",
"586 -164 OFFCURVE",
"508 -164 CURVE SMOOTH",
"278 -164 OFFCURVE",
"124 6 OFFCURVE",
"124 232 CURVE SMOOTH",
"124 458 OFFCURVE",
"278 636 OFFCURVE",
"520 636 CURVE SMOOTH",
"742 636 OFFCURVE",
"908 498 OFFCURVE",
"908 272 CURVE SMOOTH",
"908 118 OFFCURVE",
"846 52 OFFCURVE",
"788 52 CURVE SMOOTH",
"748 52 OFFCURVE",
"708 72 OFFCURVE",
"708 165 CURVE SMOOTH",
"708 316 LINE SMOOTH",
"708 432 OFFCURVE",
"644 500 OFFCURVE",
"512 500 CURVE SMOOTH",
"393 500 OFFCURVE",
"324 428 OFFCURVE",
"320 336 CURVE",
"404 336 LINE",
"408 394 OFFCURVE",
"444 428 OFFCURVE",
"516 428 CURVE SMOOTH",
"588 428 OFFCURVE",
"620 392 OFFCURVE",
"620 328 CURVE SMOOTH",
"620 304 OFFCURVE",
"604 300 OFFCURVE",
"556 292 CURVE SMOOTH",
"460 276 LINE SMOOTH",
"346 257 OFFCURVE",
"300 204 OFFCURVE",
"300 128 CURVE SMOOTH"
);
},
{
closed = 1;
nodes = (
"620 204 LINE SMOOTH",
"620 104 OFFCURVE",
"556 56 OFFCURVE",
"480 56 CURVE SMOOTH",
"422 56 OFFCURVE",
"388 86 OFFCURVE",
"388 132 CURVE SMOOTH",
"388 174 OFFCURVE",
"410 202 OFFCURVE",
"472 212 CURVE SMOOTH",
"568 228 LINE SMOOTH",
"592 232 OFFCURVE",
"610 239 OFFCURVE",
"620 251 CURVE"
);
}
);
width = 1032;
}
);
unicode = 0040;
},
{
glyphname = A;
layers = (
{
layerId = "E50B3E3D-B4C5-41E4-9ECD-CCE241FA0330";
name = Regular;
paths = (
{
closed = 1;
nodes = (
"12 0 LINE",
"104 0 LINE",
"169 180 LINE",
"471 180 LINE",
"536 0 LINE",
"632 0 LINE",
"376 688 LINE",
"268 688 LINE"
);
},
{
closed = 1;
nodes = (
"322 592 LINE",
"442 260 LINE",
"198 260 LINE",
"318 592 LINE"
);
}
);
width = 644;
}
);
leftKerningGroup = A;
rightKerningGroup = A;
unicode = 0041;
},
{
glyphname = B;
layers = (
{
layerId = "E50B3E3D-B4C5-41E4-9ECD-CCE241FA0330";
name = Regular;
paths = (
{
closed = 1;
nodes = (
"84 0 LINE",
"388 0 LINE SMOOTH",
"537 0 OFFCURVE",
"616 87 OFFCURVE",
"616 204 CURVE SMOOTH",
"616 284 OFFCURVE",
"563 345 OFFCURVE",
"480 360 CURVE",
"480 364 LINE",
"552 387 OFFCURVE",
"588 443 OFFCURVE",
"588 508 CURVE SMOOTH",
"588 621 OFFCURVE",
"517 688 OFFCURVE",
"368 688 CURVE SMOOTH",
"84 688 LINE"
);
},
{
closed = 1;
nodes = (
"388 316 LINE SMOOTH",
"480 316 OFFCURVE",
"524 267 OFFCURVE",
"524 203 CURVE SMOOTH",
"524 131 OFFCURVE",
"480 80 OFFCURVE",
"388 80 CURVE SMOOTH",
"176 80 LINE",
"176 316 LINE"
);
},
{
closed = 1;
nodes = (
"368 608 LINE SMOOTH",
"460 608 OFFCURVE",
"496 569 OFFCURVE",
"496 509 CURVE SMOOTH",
"496 445 OFFCURVE",
"452 396 OFFCURVE",
"368 396 CURVE SMOOTH",
"176 396 LINE",
"176 608 LINE"
);
}
);
width = 664;
}
);
rightKerningGroup = B;
unicode = 0042;
},
{
glyphname = C;
layers = (
{
layerId = "E50B3E3D-B4C5-41E4-9ECD-CCE241FA0330";
name = Regular;
paths = (
{
closed = 1;
nodes = (
"44 135 OFFCURVE",
"179 -12 OFFCURVE",
"372 -12 CURVE SMOOTH",
"533 -12 OFFCURVE",
"640 81 OFFCURVE",
"668 216 CURVE",
"573 216 LINE",
"547 123 OFFCURVE",
"486 72 OFFCURVE",
"372 72 CURVE SMOOTH",
"235 72 OFFCURVE",
"140 188 OFFCURVE",
"140 344 CURVE SMOOTH",
"140 504 OFFCURVE",
"235 616 OFFCURVE",
"376 616 CURVE SMOOTH",
"482 616 OFFCURVE",
"547 565 OFFCURVE",
"573 472 CURVE",
"668 472 LINE",
"640 607 OFFCURVE",
"537 700 OFFCURVE",
"376 700 CURVE SMOOTH",
"179 700 OFFCURVE",
"44 549 OFFCURVE",
"44 344 CURVE SMOOTH"
);
}
);
width = 712;
}
);
leftKerningGroup = C;
rightKerningGroup = C;
unicode = 0043;
},
{
glyphname = D;
layers = (
{
layerId = "E50B3E3D-B4C5-41E4-9ECD-CCE241FA0330";
name = Regular;
paths = (
{
closed = 1;
nodes = (
"88 0 LINE",
"300 0 LINE SMOOTH",
"537 0 OFFCURVE",
"660 143 OFFCURVE",
"660 344 CURVE SMOOTH",
"660 545 OFFCURVE",
"537 688 OFFCURVE",
"300 688 CURVE SMOOTH",
"88 688 LINE"
);
},
{
closed = 1;
nodes = (
"300 608 LINE SMOOTH",
"493 608 OFFCURVE",
"564 484 OFFCURVE",
"564 344 CURVE SMOOTH",
"564 204 OFFCURVE",
"493 80 OFFCURVE",
"300 80 CURVE SMOOTH",
"180 80 LINE",
"180 608 LINE"
);
}
);
width = 704;
}
);
rightKerningGroup = D;
unicode = 0044;
},
{
glyphname = E;
layers = (
{
layerId = "E50B3E3D-B4C5-41E4-9ECD-CCE241FA0330";
name = Regular;
paths = (
{
closed = 1;
nodes = (
"88 0 LINE",
"560 0 LINE",
"560 80 LINE",
"180 80 LINE",
"180 310 LINE",
"476 310 LINE",
"476 390 LINE",
"180 390 LINE",
"180 608 LINE",
"552 608 LINE",
"552 688 LINE",
"88 688 LINE"
);
}
);
width = 612;
}
);
rightKerningGroup = E;
unicode = 0045;
},
{
glyphname = F;
layers = (
{
layerId = "E50B3E3D-B4C5-41E4-9ECD-CCE241FA0330";
name = Regular;
paths = (
{
closed = 1;
nodes = (
"88 0 LINE",
"180 0 LINE",
"180 280 LINE",
"468 280 LINE",
"468 360 LINE",
"180 360 LINE",
"180 608 LINE",
"544 608 LINE",
"544 688 LINE",
"88 688 LINE"
);
}
);
width = 576;
}
);
rightKerningGroup = F;
unicode = 0046;
},
{
glyphname = G;
layers = (
{
layerId = "E50B3E3D-B4C5-41E4-9ECD-CCE241FA0330";
name = Regular;
paths = (
{
closed = 1;
nodes = (
"624 0 LINE",
"684 0 LINE",
"684 364 LINE",
"384 364 LINE",
"384 284 LINE",
"600 284 LINE",
"600 264 LINE SMOOTH",
"600 140 OFFCURVE",
"495 72 OFFCURVE",
"380 72 CURVE SMOOTH",
"239 72 OFFCURVE",
"140 188 OFFCURVE",
"140 344 CURVE SMOOTH",
"140 500 OFFCURVE",
"235 616 OFFCURVE",
"384 616 CURVE SMOOTH",
"501 616 OFFCURVE",
"566 555 OFFCURVE",
"588 484 CURVE",
"684 484 LINE",
"655 606 OFFCURVE",
"548 700 OFFCURVE",
"384 700 CURVE SMOOTH",
"183 700 OFFCURVE",
"44 549 OFFCURVE",
"44 344 CURVE SMOOTH",
"44 139 OFFCURVE",
"183 -12 OFFCURVE",
"380 -12 CURVE SMOOTH",
"484 -12 OFFCURVE",
"556 23 OFFCURVE",
"605 100 CURVE",
"608 100 LINE"
);
}
);
width = 760;
}
);
leftKerningGroup = C;
rightKerningGroup = G;
unicode = 0047;
},
{
glyphname = H;
layers = (
{
layerId = "E50B3E3D-B4C5-41E4-9ECD-CCE241FA0330";
name = Regular;
paths = (
{
closed = 1;
nodes = (
"88 0 LINE",
"180 0 LINE",
"180 308 LINE",
"548 308 LINE",
"548 0 LINE",
"640 0 LINE",
"640 688 LINE",
"548 688 LINE",
"548 388 LINE",
"180 388 LINE",
"180 688 LINE",
"88 688 LINE"
);
}
);
width = 728;
}
);
unicode = 0048;
},
{
glyphname = I;
layers = (
{
layerId = "E50B3E3D-B4C5-41E4-9ECD-CCE241FA0330";
name = Regular;
paths = (
{
closed = 1;
nodes = (
"88 0 LINE",
"180 0 LINE",
"180 688 LINE",
"88 688 LINE"
);
}
);
width = 268;
}
);
unicode = 0049;
},
{
glyphname = J;
layers = (
{
layerId = "E50B3E3D-B4C5-41E4-9ECD-CCE241FA0330";
name = Regular;
paths = (
{
closed = 1;
nodes = (
"36 196 LINE SMOOTH",
"36 46 OFFCURVE",
"119 -12 OFFCURVE",
"236 -12 CURVE SMOOTH",
"353 -12 OFFCURVE",
"436 46 OFFCURVE",
"436 196 CURVE SMOOTH",
"436 688 LINE",
"344 688 LINE",
"344 204 LINE SMOOTH",
"344 106 OFFCURVE",
"298 68 OFFCURVE",
"236 68 CURVE SMOOTH",
"174 68 OFFCURVE",
"128 106 OFFCURVE",
"128 204 CURVE SMOOTH",
"128 228 LINE",
"36 228 LINE"
);
}
);
width = 512;
}
);
leftKerningGroup = J;
rightKerningGroup = J;
unicode = 004A;
},
{
glyphname = K;
layers = (
{
layerId = "E50B3E3D-B4C5-41E4-9ECD-CCE241FA0330";
name = Regular;
paths = (
{
closed = 1;
nodes = (
"88 0 LINE",
"180 0 LINE",
"180 210 LINE",
"288 325 LINE",
"540 0 LINE",
"644 0 LINE",
"349 389 LINE",
"632 688 LINE",
"524 688 LINE",
"180 318 LINE",
"180 688 LINE",
"88 688 LINE"
);
}
);
width = 652;
}
);
rightKerningGroup = K;
unicode = 004B;
},
{
glyphname = L;
layers = (
{
layerId = "E50B3E3D-B4C5-41E4-9ECD-CCE241FA0330";
name = Regular;
paths = (
{
closed = 1;
nodes = (
"88 0 LINE",
"516 0 LINE",
"516 80 LINE",
"180 80 LINE",
"180 688 LINE",
"88 688 LINE"
);
}
);
width = 544;
}
);
rightKerningGroup = L;
unicode = 004C;
},
{
glyphname = M;
layers = (
{
layerId = "E50B3E3D-B4C5-41E4-9ECD-CCE241FA0330";
name = Regular;
paths = (
{
closed = 1;
nodes = (
"88 0 LINE",
"180 0 LINE",
"172 532 LINE",
"176 532 LINE",
"416 0 LINE",
"488 0 LINE",
"728 544 LINE",
"732 544 LINE",
"724 0 LINE",
"816 0 LINE",
"816 688 LINE",
"704 688 LINE",
"455 124 LINE",
"453 124 LINE",
"200 688 LINE",
"88 688 LINE"
);
}
);
width = 904;
}
);
unicode = 004D;
},
{
glyphname = N;
layers = (
{
layerId = "E50B3E3D-B4C5-41E4-9ECD-CCE241FA0330";
name = Regular;
paths = (
{
closed = 1;
nodes = (
"88 0 LINE",
"180 0 LINE",
"176 528 LINE",
"180 528 LINE",
"560 0 LINE",
"648 0 LINE",
"648 688 LINE",
"556 688 LINE",
"560 156 LINE",
"556 156 LINE",
"176 688 LINE",
"88 688 LINE"
);
}
);
width = 736;
}
);
unicode = 004E;
},
{
glyphname = O;
layers = (
{
layerId = "E50B3E3D-B4C5-41E4-9ECD-CCE241FA0330";
name = Regular;
paths = (
{
closed = 1;
nodes = (
"44 139 OFFCURVE",
"179 -12 OFFCURVE",
"380 -12 CURVE SMOOTH",
"577 -12 OFFCURVE",
"716 139 OFFCURVE",
"716 344 CURVE SMOOTH",
"716 549 OFFCURVE",
"577 700 OFFCURVE",
"380 700 CURVE SMOOTH",
"179 700 OFFCURVE",
"44 549 OFFCURVE",
"44 344 CURVE SMOOTH"
);
},
{
closed = 1;
nodes = (
"140 500 OFFCURVE",
"235 616 OFFCURVE",
"380 616 CURVE SMOOTH",
"525 616 OFFCURVE",
"620 500 OFFCURVE",
"620 344 CURVE SMOOTH",
"620 188 OFFCURVE",
"525 72 OFFCURVE",
"380 72 CURVE SMOOTH",
"235 72 OFFCURVE",
"140 188 OFFCURVE",
"140 344 CURVE SMOOTH"
);
}
);
width = 760;
}
);
leftKerningGroup = C;
rightKerningGroup = D;
unicode = 004F;
},
{
glyphname = P;
layers = (
{
layerId = "E50B3E3D-B4C5-41E4-9ECD-CCE241FA0330";
name = Regular;
paths = (
{
closed = 1;
nodes = (
"88 0 LINE",
"180 0 LINE",
"180 240 LINE",
"348 240 LINE SMOOTH",
"505 240 OFFCURVE",
"592 339 OFFCURVE",
"592 468 CURVE SMOOTH",
"592 597 OFFCURVE",
"505 688 OFFCURVE",
"348 688 CURVE SMOOTH",
"88 688 LINE"
);
},
{
closed = 1;
nodes = (
"352 608 LINE SMOOTH",
"452 608 OFFCURVE",
"500 548 OFFCURVE",
"500 468 CURVE SMOOTH",
"500 388 OFFCURVE",
"452 320 OFFCURVE",
"352 320 CURVE SMOOTH",
"180 320 LINE",
"180 608 LINE"
);
}
);
width = 636;
}
);
rightKerningGroup = P;
unicode = 0050;
},
{
glyphname = Q;
layers = (
{
layerId = "E50B3E3D-B4C5-41E4-9ECD-CCE241FA0330";
name = Regular;
paths = (
{
closed = 1;
nodes = (
"44 139 OFFCURVE",
"179 -12 OFFCURVE",
"380 -12 CURVE SMOOTH",
"438 -12 OFFCURVE",
"490 1 OFFCURVE",
"536 24 CURVE",
"676 -124 LINE",
"740 -60 LINE",
"609 76 LINE",
"676 140 OFFCURVE",
"716 234 OFFCURVE",
"716 344 CURVE SMOOTH",
"716 549 OFFCURVE",
"577 700 OFFCURVE",
"380 700 CURVE SMOOTH",
"179 700 OFFCURVE",
"44 549 OFFCURVE",
"44 344 CURVE SMOOTH"
);
},
{
closed = 1;
nodes = (
"140 500 OFFCURVE",
"235 616 OFFCURVE",
"380 616 CURVE SMOOTH",
"525 616 OFFCURVE",
"620 500 OFFCURVE",
"620 344 CURVE SMOOTH",
"620 188 OFFCURVE",
"525 72 OFFCURVE",
"380 72 CURVE SMOOTH",
"235 72 OFFCURVE",
"140 188 OFFCURVE",
"140 344 CURVE SMOOTH"
);
}
);
width = 764;
}
);
leftKerningGroup = C;
rightKerningGroup = D;
unicode = 0051;
},
{
glyphname = R;
layers = (
{
layerId = "E50B3E3D-B4C5-41E4-9ECD-CCE241FA0330";
name = Regular;
paths = (
{
closed = 1;
nodes = (
"88 0 LINE",
"180 0 LINE",
"180 268 LINE",
"341 268 LINE",
"512 0 LINE",
"612 0 LINE",
"437 279 LINE",
"536 306 OFFCURVE",
"588 382 OFFCURVE",
"588 484 CURVE SMOOTH",
"588 613 OFFCURVE",
"505 688 OFFCURVE",
"348 688 CURVE SMOOTH",
"88 688 LINE"
);
},
{
closed = 1;
nodes = (
"352 608 LINE SMOOTH",
"444 608 OFFCURVE",
"496 560 OFFCURVE",
"496 484 CURVE SMOOTH",
"496 408 OFFCURVE",
"448 348 OFFCURVE",
"352 348 CURVE SMOOTH",
"180 348 LINE",
"180 608 LINE"
);
}
);
width = 652;
}
);
rightKerningGroup = R;
unicode = 0052;
},
{
glyphname = S;
layers = (
{
layerId = "E50B3E3D-B4C5-41E4-9ECD-CCE241FA0330";
name = Regular;
paths = (
{
closed = 1;
nodes = (
"56 196 LINE",
"56 72 OFFCURVE",
"152 -12 OFFCURVE",
"320 -12 CURVE SMOOTH",
"492 -12 OFFCURVE",
"592 72 OFFCURVE",
"592 196 CURVE SMOOTH",
"592 470 OFFCURVE",
"160 328 OFFCURVE",
"160 508 CURVE SMOOTH",
"160 585 OFFCURVE",
"231 624 OFFCURVE",
"320 624 CURVE SMOOTH",
"412 624 OFFCURVE",
"480 580 OFFCURVE",
"480 504 CURVE",
"572 504 LINE",
"572 627 OFFCURVE",
"468 700 OFFCURVE",
"320 700 CURVE SMOOTH",
"167 700 OFFCURVE",
"66 617 OFFCURVE",
"66 500 CURVE SMOOTH",
"66 236 OFFCURVE",
"496 374 OFFCURVE",
"496 192 CURVE SMOOTH",
"496 111 OFFCURVE",
"432 64 OFFCURVE",
"320 64 CURVE SMOOTH",
"212 64 OFFCURVE",
"148 121 OFFCURVE",
"148 196 CURVE"
);
}
);
width = 648;
}
);
leftKerningGroup = S;
rightKerningGroup = S;
unicode = 0053;
},
{
glyphname = T;
layers = (
{
layerId = "E50B3E3D-B4C5-41E4-9ECD-CCE241FA0330";
name = Regular;
paths = (
{
closed = 1;
nodes = (
"8 610 LINE",
"248 610 LINE",
"248 0 LINE",
"340 0 LINE",
"340 610 LINE",
"580 610 LINE",
"580 688 LINE",
"8 688 LINE"
);
}
);
width = 588;
}
);
leftKerningGroup = T;
rightKerningGroup = T;
unicode = 0054;
},
{
glyphname = U;
layers = (
{
layerId = "E50B3E3D-B4C5-41E4-9ECD-CCE241FA0330";
name = Regular;
paths = (
{
closed = 1;
nodes = (
"72 272 LINE SMOOTH",
"72 68 OFFCURVE",
"185 -12 OFFCURVE",
"348 -12 CURVE SMOOTH",
"511 -12 OFFCURVE",
"624 68 OFFCURVE",
"624 272 CURVE SMOOTH",
"624 688 LINE",
"532 688 LINE",
"532 272 LINE SMOOTH",
"532 146 OFFCURVE",
"473 72 OFFCURVE",
"348 72 CURVE SMOOTH",
"223 72 OFFCURVE",
"164 146 OFFCURVE",
"164 272 CURVE SMOOTH",
"164 688 LINE",
"72 688 LINE"
);
}
);
width = 696;
}
);
leftKerningGroup = U;
rightKerningGroup = U;
unicode = 0055;
},
{
glyphname = V;
layers = (
{
layerId = "E50B3E3D-B4C5-41E4-9ECD-CCE241FA0330";
name = Regular;
paths = (
{
closed = 1;
nodes = (
"258 0 LINE",
"360 0 LINE",
"612 688 LINE",
"520 688 LINE",
"314 96 LINE",
"310 96 LINE",
"104 688 LINE",
"8 688 LINE"
);
}
);
width = 620;
}
);
leftKerningGroup = V;
rightKerningGroup = V;
unicode = 0056;
},
{
glyphname = W;
layers = (
{
layerId = "E50B3E3D-B4C5-41E4-9ECD-CCE241FA0330";
name = Regular;
paths = (
{
closed = 1;
nodes = (
"196 0 LINE",
"312 0 LINE",
"468 584 LINE",
"472 584 LINE",
"628 0 LINE",
"744 0 LINE",
"924 688 LINE",
"832 688 LINE",
"690 96 LINE",
"686 96 LINE",
"528 688 LINE",
"416 688 LINE",
"258 96 LINE",
"254 96 LINE",
"108 688 LINE",
"12 688 LINE"
);
}
);
width = 936;
}
);
leftKerningGroup = W;
rightKerningGroup = W;
unicode = 0057;
},
{
glyphname = X;
layers = (
{
layerId = "E50B3E3D-B4C5-41E4-9ECD-CCE241FA0330";
name = Regular;
paths = (
{
closed = 1;
nodes = (
"8 0 LINE",
"108 0 LINE",
"295 281 LINE",
"484 0 LINE",
"588 0 LINE",
"347 354 LINE",
"572 688 LINE",
"472 688 LINE",
"297 424 LINE",
"120 688 LINE",
"16 688 LINE",
"245 351 LINE"
);
}
);
width = 596;
}
);
leftKerningGroup = X;
rightKerningGroup = X;
unicode = 0058;
},
{
glyphname = Y;
layers = (
{
layerId = "E50B3E3D-B4C5-41E4-9ECD-CCE241FA0330";
name = Regular;
paths = (
{
closed = 1;
nodes = (
"256 0 LINE",
"348 0 LINE",
"348 277 LINE",
"596 688 LINE",
"500 688 LINE",
"306 364 LINE",
"302 364 LINE",
"116 688 LINE",
"12 688 LINE",
"256 270 LINE"
);
}
);
width = 608;
}
);
leftKerningGroup = Y;
rightKerningGroup = Y;
unicode = 0059;
},
{
glyphname = Z;
layers = (
{
layerId = "E50B3E3D-B4C5-41E4-9ECD-CCE241FA0330";
name = Regular;
paths = (
{
closed = 1;
nodes = (
"56 610 LINE",
"433 610 LINE",
"36 60 LINE",
"36 0 LINE",
"544 0 LINE",
"544 78 LINE",
"151 78 LINE",
"548 628 LINE",
"548 688 LINE",
"56 688 LINE"
);
}
);
width = 584;
}
);
leftKerningGroup = Z;
rightKerningGroup = Z;
unicode = 005A;
},
{
glyphname = bracketleft;
layers = (
{
layerId = "E50B3E3D-B4C5-41E4-9ECD-CCE241FA0330";
name = Regular;
paths = (
{
closed = 1;
nodes = (
"168 -156 LINE",
"168 672 LINE",
"316 672 LINE",
"316 744 LINE",
"88 744 LINE",
"88 -228 LINE",
"316 -228 LINE",
"316 -156 LINE"
);
}
);
width = 332;
}
);
rightKerningGroup = bracketleft;
unicode = 005B;
},
{
glyphname = backslash;
layers = (
{
layerId = "E50B3E3D-B4C5-41E4-9ECD-CCE241FA0330";
name = Regular;
paths = (
{
closed = 1;
nodes = (
"316 -12 LINE",
"392 -12 LINE",
"84 700 LINE",
"8 700 LINE"
);
}
);
width = 400;
}
);
leftKerningGroup = backslash;
rightKerningGroup = backslash;
unicode = 005C;
},
{
glyphname = bracketright;
layers = (
{
layerId = "E50B3E3D-B4C5-41E4-9ECD-CCE241FA0330";
name = Regular;
paths = (
{
closed = 1;
nodes = (
"16 -156 LINE",
"16 -228 LINE",
"244 -228 LINE",
"244 744 LINE",
"16 744 LINE",
"16 672 LINE",
"164 672 LINE",
"164 -156 LINE"
);
}
);
width = 332;
}
);
leftKerningGroup = bracketright;
unicode = 005D;
},
{
glyphname = asciicircum;
layers = (
{
layerId = "E50B3E3D-B4C5-41E4-9ECD-CCE241FA0330";
name = Regular;
paths = (
{
closed = 1;
nodes = (
"54 352 LINE",
"142 352 LINE",
"284 617 LINE",
"426 352 LINE",
"518 352 LINE",
"330 688 LINE",
"242 688 LINE"
);
}
);
width = 568;
}
);
unicode = 005E;
},
{
glyphname = underscore;
layers = (
{
layerId = "E50B3E3D-B4C5-41E4-9ECD-CCE241FA0330";
name = Regular;
paths = (
{
closed = 1;
nodes = (
"0 -72 LINE",
"0 -140 LINE",
"500 -140 LINE",
"500 -72 LINE"
);
}
);
width = 500;
}
);
unicode = 005F;
},
{
glyphname = quoteleft;
layers = (
{
layerId = "E50B3E3D-B4C5-41E4-9ECD-CCE241FA0330";
name = Regular;
paths = (
{
closed = 1;
nodes = (
"72 436 LINE",
"176 436 LINE",
"176 544 LINE",
"132 544 LINE",
"160 688 LINE",
"112 688 LINE",
"72 536 LINE"
);
}
);
width = 248;
}
);
leftKerningGroup = quoteleft;
rightKerningGroup = quoteleft;
unicode = 2018;
},
{
glyphname = a;
layers = (
{
layerId = "E50B3E3D-B4C5-41E4-9ECD-CCE241FA0330";
name = Regular;
paths = (
{
closed = 1;
nodes = (
"48 42 OFFCURVE",
"108 -12 OFFCURVE",
"212 -12 CURVE SMOOTH",
"283 -12 OFFCURVE",
"340 14 OFFCURVE",
"368 65 CURVE",
"372 65 LINE",
"372 0 LINE",
"456 0 LINE",
"456 320 LINE SMOOTH",
"456 432 OFFCURVE",
"392 500 OFFCURVE",
"264 500 CURVE SMOOTH",
"141 500 OFFCURVE",
"72 428 OFFCURVE",
"68 336 CURVE",
"152 336 LINE",
"156 390 OFFCURVE",
"193 428 OFFCURVE",
"264 428 CURVE SMOOTH",
"333 428 OFFCURVE",
"368 387 OFFCURVE",
"368 328 CURVE SMOOTH",
"368 305 OFFCURVE",
"356 299 OFFCURVE",
"304 290 CURVE SMOOTH",
"208 274 LINE SMOOTH",
"94 254 OFFCURVE",
"48 205 OFFCURVE",
"48 124 CURVE SMOOTH"
);
},
{
closed = 1;
nodes = (
"368 204 LINE SMOOTH",
"368 108 OFFCURVE",
"304 60 OFFCURVE",
"228 60 CURVE SMOOTH",
"166 60 OFFCURVE",
"136 90 OFFCURVE",
"136 132 CURVE SMOOTH",
"136 174 OFFCURVE",
"160 201 OFFCURVE",
"224 212 CURVE SMOOTH",
"316 228 LINE SMOOTH",
"340 232 OFFCURVE",
"358 239 OFFCURVE",
"368 251 CURVE"
);
}
);
width = 524;
}
);
leftKerningGroup = a;
rightKerningGroup = a;
unicode = 0061;
},
{
glyphname = b;
layers = (
{
layerId = "E50B3E3D-B4C5-41E4-9ECD-CCE241FA0330";
name = Regular;
paths = (
{
closed = 1;
nodes = (
"76 0 LINE",
"160 0 LINE",
"160 76 LINE",
"164 76 LINE",
"196 12 OFFCURVE",
"252 -12 OFFCURVE",
"320 -12 CURVE SMOOTH",
"444 -12 OFFCURVE",
"544 88 OFFCURVE",
"544 248 CURVE SMOOTH",
"544 408 OFFCURVE",
"452 500 OFFCURVE",
"328 500 CURVE SMOOTH",
"260 500 OFFCURVE",
"196 476 OFFCURVE",
"164 412 CURVE",
"160 412 LINE",
"164 476 OFFCURVE",
"164 543 OFFCURVE",
"164 576 CURVE SMOOTH",
"164 732 LINE",
"76 732 LINE"
);
},
{
closed = 1;
nodes = (
"164 252 LINE SMOOTH",
"167 363 OFFCURVE",
"230 424 OFFCURVE",
"308 424 CURVE SMOOTH",
"388 424 OFFCURVE",
"452 364 OFFCURVE",
"452 248 CURVE SMOOTH",
"452 132 OFFCURVE",
"388 64 OFFCURVE",
"308 64 CURVE SMOOTH",
"228 64 OFFCURVE",
"164 128 OFFCURVE",
"164 244 CURVE SMOOTH"
);
}
);
width = 584;
}
);
leftKerningGroup = b;
rightKerningGroup = b;
unicode = 0062;
},
{
glyphname = c;
layers = (
{
layerId = "E50B3E3D-B4C5-41E4-9ECD-CCE241FA0330";
name = Regular;
paths = (
{
closed = 1;
nodes = (
"40 88 OFFCURVE",
"128 -12 OFFCURVE",
"272 -12 CURVE SMOOTH",
"398 -12 OFFCURVE",
"471 63 OFFCURVE",
"484 164 CURVE",
"396 164 LINE",
"386 108 OFFCURVE",
"348 64 OFFCURVE",
"272 64 CURVE SMOOTH",
"192 64 OFFCURVE",
"132 136 OFFCURVE",
"132 244 CURVE SMOOTH",
"132 352 OFFCURVE",
"192 424 OFFCURVE",
"272 424 CURVE SMOOTH",
"348 424 OFFCURVE",
"386 380 OFFCURVE",
"396 324 CURVE",
"484 324 LINE",
"471 425 OFFCURVE",
"398 500 OFFCURVE",
"272 500 CURVE SMOOTH",
"140 500 OFFCURVE",
"40 400 OFFCURVE",
"40 244 CURVE SMOOTH"
);
}
);
width = 516;
}
);
leftKerningGroup = c;
rightKerningGroup = c;
unicode = 0063;
},
{
glyphname = d;
layers = (
{
layerId = "E50B3E3D-B4C5-41E4-9ECD-CCE241FA0330";
name = Regular;
paths = (
{
closed = 1;
nodes = (
"40 80 OFFCURVE",
"132 -12 OFFCURVE",
"256 -12 CURVE SMOOTH",
"324 -12 OFFCURVE",
"388 12 OFFCURVE",
"420 76 CURVE",
"424 76 LINE",
"424 0 LINE",
"508 0 LINE",
"508 732 LINE",
"420 732 LINE",
"420 576 LINE SMOOTH",
"420 543 OFFCURVE",
"420 476 OFFCURVE",
"424 412 CURVE",
"420 412 LINE",
"388 476 OFFCURVE",
"332 500 OFFCURVE",
"264 500 CURVE SMOOTH",
"140 500 OFFCURVE",
"40 400 OFFCURVE",
"40 240 CURVE SMOOTH"
);
},
{
closed = 1;
nodes = (
"132 356 OFFCURVE",
"196 424 OFFCURVE",
"276 424 CURVE SMOOTH",
"356 424 OFFCURVE",
"420 360 OFFCURVE",
"420 244 CURVE SMOOTH",
"420 128 OFFCURVE",
"356 64 OFFCURVE",
"276 64 CURVE SMOOTH",
"196 64 OFFCURVE",
"132 124 OFFCURVE",
"132 240 CURVE SMOOTH"
);
}
);
width = 584;
}
);
leftKerningGroup = c;
unicode = 0064;
},
{
glyphname = e;
layers = (
{
layerId = "E50B3E3D-B4C5-41E4-9ECD-CCE241FA0330";
name = Regular;
paths = (
{
closed = 1;
nodes = (
"40 88 OFFCURVE",
"124 -12 OFFCURVE",
"276 -12 CURVE SMOOTH",
"390 -12 OFFCURVE",
"471 61 OFFCURVE",
"484 148 CURVE",
"396 148 LINE",
"386 104 OFFCURVE",
"348 64 OFFCURVE",
"276 64 CURVE SMOOTH",
"191 64 OFFCURVE",
"136 130 OFFCURVE",
"132 232 CURVE",
"488 232 LINE",
"488 268 LINE SMOOTH",
"488 414 OFFCURVE",
"400 500 OFFCURVE",
"272 500 CURVE SMOOTH",
"140 500 OFFCURVE",
"40 396 OFFCURVE",
"40 244 CURVE SMOOTH"
);
},
{
closed = 1;
nodes = (
"345 424 OFFCURVE",
"390 386 OFFCURVE",
"398 298 CURVE",
"137 298 LINE",
"153 377 OFFCURVE",
"206 424 OFFCURVE",
"272 424 CURVE SMOOTH"
);
}
);
width = 524;
}
);
leftKerningGroup = c;
rightKerningGroup = e;
unicode = 0065;
},
{
glyphname = f;
layers = (
{
layerId = "E50B3E3D-B4C5-41E4-9ECD-CCE241FA0330";
name = Regular;
paths = (
{
closed = 1;
nodes = (
"96 0 LINE",
"184 0 LINE",
"184 416 LINE",
"304 416 LINE",
"304 488 LINE",
"184 488 LINE",
"184 564 LINE SMOOTH",
"184 624 OFFCURVE",
"204 656 OFFCURVE",
"268 656 CURVE SMOOTH",
"320 656 LINE",
"320 732 LINE",
"260 732 LINE SMOOTH",
"152 732 OFFCURVE",
"96 676 OFFCURVE",
"96 568 CURVE SMOOTH",
"96 488 LINE",
"4 488 LINE",
"4 416 LINE",
"96 416 LINE"
);
}
);
width = 308;
}
);
leftKerningGroup = f;
rightKerningGroup = f;
unicode = 0066;
},
{
glyphname = g;
layers = (
{
layerId = "E50B3E3D-B4C5-41E4-9ECD-CCE241FA0330";
name = Regular;
paths = (
{
closed = 1;
nodes = (
"52 -60 LINE",
"52 -170 OFFCURVE",
"146 -228 OFFCURVE",
"268 -228 CURVE SMOOTH",
"398 -228 OFFCURVE",
"508 -161 OFFCURVE",
"508 24 CURVE SMOOTH",
"508 488 LINE",
"424 488 LINE",
"424 412 LINE",
"420 412 LINE",
"388 476 OFFCURVE",
"332 500 OFFCURVE",
"264 500 CURVE SMOOTH",
"140 500 OFFCURVE",
"40 400 OFFCURVE",
"40 240 CURVE SMOOTH",
"40 80 OFFCURVE",
"132 -12 OFFCURVE",
"256 -12 CURVE SMOOTH",
"324 -12 OFFCURVE",
"388 12 OFFCURVE",
"420 76 CURVE",
"424 76 LINE",
"424 24 LINE SMOOTH",
"424 -113 OFFCURVE",
"354 -156 OFFCURVE",
"268 -156 CURVE SMOOTH",
"192 -156 OFFCURVE",
"136 -120 OFFCURVE",
"136 -60 CURVE"
);
},
{
closed = 1;
nodes = (
"132 356 OFFCURVE",
"196 424 OFFCURVE",
"276 424 CURVE SMOOTH",
"356 424 OFFCURVE",
"420 360 OFFCURVE",
"420 244 CURVE SMOOTH",
"420 128 OFFCURVE",
"356 64 OFFCURVE",
"276 64 CURVE SMOOTH",
"196 64 OFFCURVE",
"132 124 OFFCURVE",
"132 240 CURVE SMOOTH"
);
}
);
width = 584;
}
);
leftKerningGroup = c;
rightKerningGroup = g;
unicode = 0067;
},
{
glyphname = h;
layers = (
{
layerId = "E50B3E3D-B4C5-41E4-9ECD-CCE241FA0330";
name = Regular;
paths = (
{
closed = 1;
nodes = (
"76 0 LINE",
"164 0 LINE",
"164 255 LINE SMOOTH",
"164 359 OFFCURVE",
"222 424 OFFCURVE",
"296 424 CURVE SMOOTH",
"364 424 OFFCURVE",
"408 388 OFFCURVE",
"408 284 CURVE SMOOTH",
"408 0 LINE",
"496 0 LINE",
"496 296 LINE SMOOTH",
"496 448 OFFCURVE",
"412 500 OFFCURVE",
"316 500 CURVE SMOOTH",
"244 500 OFFCURVE",
"192 472 OFFCURVE",
"164 416 CURVE",
"160 416 LINE",
"164 480 OFFCURVE",
"164 547 OFFCURVE",
"164 580 CURVE SMOOTH",
"164 732 LINE",
"76 732 LINE"
);
}
);
width = 564;
}
);
leftKerningGroup = b;
rightKerningGroup = a;
unicode = 0068;
},
{
glyphname = i;
layers = (
{
layerId = "E50B3E3D-B4C5-41E4-9ECD-CCE241FA0330";
name = Regular;
paths = (
{
closed = 1;
nodes = (
"72 632 LINE",
"168 632 LINE",
"168 732 LINE",
"72 732 LINE"
);
},
{
closed = 1;
nodes = (
"76 0 LINE",
"164 0 LINE",
"164 488 LINE",
"76 488 LINE"
);
}
);
width = 240;
}
);
leftKerningGroup = b;
unicode = 0069;
},
{
glyphname = j;
layers = (
{
layerId = "E50B3E3D-B4C5-41E4-9ECD-CCE241FA0330";
name = Regular;
paths = (
{
closed = 1;
nodes = (
"72 632 LINE",
"168 632 LINE",
"168 732 LINE",
"72 732 LINE"
);
},
{
closed = 1;
nodes = (
"76 -72 LINE SMOOTH",
"76 -120 OFFCURVE",
"62 -144 OFFCURVE",
"20 -144 CURVE SMOOTH",
"-4 -144 LINE",
"-4 -220 LINE",
"28 -220 LINE SMOOTH",
"128 -220 OFFCURVE",
"164 -164 OFFCURVE",
"164 -88 CURVE SMOOTH",
"164 488 LINE",
"76 488 LINE"
);
}
);
width = 240;
}
);
leftKerningGroup = b;
unicode = 006A;
},
{
glyphname = k;
layers = (
{
layerId = "E50B3E3D-B4C5-41E4-9ECD-CCE241FA0330";
name = Regular;
paths = (
{
closed = 1;
nodes = (
"76 0 LINE",
"164 0 LINE",
"164 147 LINE",
"239 229 LINE",
"396 0 LINE",
"500 0 LINE",
"299 293 LINE",
"480 488 LINE",
"376 488 LINE",
"164 253 LINE",
"164 732 LINE",
"76 732 LINE"
);
}
);
width = 504;
}
);
leftKerningGroup = b;
rightKerningGroup = k;
unicode = 006B;
},
{
glyphname = l;
layers = (
{
layerId = "E50B3E3D-B4C5-41E4-9ECD-CCE241FA0330";
name = Regular;
paths = (
{
closed = 1;
nodes = (
"76 0 LINE",
"164 0 LINE",
"164 732 LINE",
"76 732 LINE"
);
}
);
width = 240;
}
);
leftKerningGroup = b;
unicode = 006C;
},
{
glyphname = m;
layers = (
{
layerId = "E50B3E3D-B4C5-41E4-9ECD-CCE241FA0330";
name = Regular;
paths = (
{
closed = 1;
nodes = (
"76 0 LINE",
"164 0 LINE",
"164 253 LINE SMOOTH",
"164 359 OFFCURVE",
"222 424 OFFCURVE",
"292 424 CURVE SMOOTH",
"356 424 OFFCURVE",
"392 388 OFFCURVE",
"392 292 CURVE SMOOTH",
"392 0 LINE",
"480 0 LINE",
"480 254 LINE SMOOTH",
"480 359 OFFCURVE",
"538 424 OFFCURVE",
"608 424 CURVE SMOOTH",
"676 424 OFFCURVE",
"708 388 OFFCURVE",
"708 292 CURVE SMOOTH",
"708 0 LINE",
"796 0 LINE",
"796 304 LINE SMOOTH",
"796 448 OFFCURVE",
"720 500 OFFCURVE",
"628 500 CURVE SMOOTH",
"550 500 OFFCURVE",
"497 470 OFFCURVE",
"464 401 CURVE",
"437 472 OFFCURVE",
"379 500 OFFCURVE",
"312 500 CURVE SMOOTH",
"244 500 OFFCURVE",
"192 472 OFFCURVE",
"164 416 CURVE",
"160 416 LINE",
"160 488 LINE",
"76 488 LINE"
);
}
);
width = 864;
}
);
leftKerningGroup = m;
rightKerningGroup = a;
unicode = 006D;
},
{
glyphname = n;
layers = (
{
layerId = "E50B3E3D-B4C5-41E4-9ECD-CCE241FA0330";
name = Regular;
paths = (
{
closed = 1;
nodes = (
"76 0 LINE",
"164 0 LINE",
"164 253 LINE SMOOTH",
"164 359 OFFCURVE",
"222 424 OFFCURVE",
"296 424 CURVE SMOOTH",
"364 424 OFFCURVE",
"408 388 OFFCURVE",
"408 284 CURVE SMOOTH",
"408 0 LINE",
"496 0 LINE",
"496 296 LINE SMOOTH",
"496 448 OFFCURVE",
"412 500 OFFCURVE",
"316 500 CURVE SMOOTH",
"244 500 OFFCURVE",
"192 472 OFFCURVE",
"164 416 CURVE",
"160 416 LINE",
"160 488 LINE",
"76 488 LINE"
);
}
);
width = 564;
}
);
leftKerningGroup = m;
rightKerningGroup = a;
unicode = 006E;
},
{
glyphname = o;
layers = (
{
layerId = "E50B3E3D-B4C5-41E4-9ECD-CCE241FA0330";
name = Regular;
paths = (
{
closed = 1;
nodes = (
"40 88 OFFCURVE",
"132 -12 OFFCURVE",
"280 -12 CURVE SMOOTH",
"420 -12 OFFCURVE",
"520 88 OFFCURVE",
"520 244 CURVE SMOOTH",
"520 400 OFFCURVE",
"428 500 OFFCURVE",
"280 500 CURVE SMOOTH",
"140 500 OFFCURVE",
"40 400 OFFCURVE",
"40 244 CURVE SMOOTH"
);
},
{
closed = 1;
nodes = (
"132 352 OFFCURVE",
"192 424 OFFCURVE",
"280 424 CURVE SMOOTH",
"368 424 OFFCURVE",
"428 356 OFFCURVE",
"428 244 CURVE SMOOTH",
"428 136 OFFCURVE",
"368 64 OFFCURVE",
"280 64 CURVE SMOOTH",
"192 64 OFFCURVE",
"132 136 OFFCURVE",
"132 244 CURVE SMOOTH"
);
}
);
width = 560;
}
);
leftKerningGroup = c;
rightKerningGroup = b;
unicode = 006F;
},
{
glyphname = p;
layers = (
{
layerId = "E50B3E3D-B4C5-41E4-9ECD-CCE241FA0330";
name = Regular;
paths = (
{
closed = 1;
nodes = (
"164 -88 LINE SMOOTH",
"164 -55 OFFCURVE",
"164 12 OFFCURVE",
"160 76 CURVE",
"164 76 LINE",
"196 12 OFFCURVE",
"252 -12 OFFCURVE",
"320 -12 CURVE SMOOTH",
"444 -12 OFFCURVE",
"544 88 OFFCURVE",
"544 248 CURVE SMOOTH",
"544 408 OFFCURVE",
"452 500 OFFCURVE",
"328 500 CURVE SMOOTH",
"260 500 OFFCURVE",
"196 476 OFFCURVE",
"164 412 CURVE",
"160 412 LINE",
"160 488 LINE",
"76 488 LINE",
"76 -220 LINE",
"164 -220 LINE"
);
},
{
closed = 1;
nodes = (
"452 132 OFFCURVE",
"388 64 OFFCURVE",
"308 64 CURVE SMOOTH",
"228 64 OFFCURVE",
"164 128 OFFCURVE",
"164 244 CURVE SMOOTH",
"164 252 LINE SMOOTH",
"167 363 OFFCURVE",
"230 424 OFFCURVE",
"308 424 CURVE SMOOTH",
"388 424 OFFCURVE",
"452 364 OFFCURVE",
"452 248 CURVE SMOOTH"
);
}
);
width = 584;
}
);
leftKerningGroup = m;
rightKerningGroup = b;
unicode = 0070;
},
{
glyphname = q;
layers = (
{
layerId = "E50B3E3D-B4C5-41E4-9ECD-CCE241FA0330";
name = Regular;
paths = (
{
closed = 1;
nodes = (
"420 -220 LINE",
"508 -220 LINE",
"508 488 LINE",
"424 488 LINE",
"424 412 LINE",
"420 412 LINE",
"388 476 OFFCURVE",
"332 500 OFFCURVE",
"264 500 CURVE SMOOTH",
"140 500 OFFCURVE",
"40 400 OFFCURVE",
"40 240 CURVE SMOOTH",
"40 80 OFFCURVE",
"132 -12 OFFCURVE",
"256 -12 CURVE SMOOTH",
"324 -12 OFFCURVE",
"388 12 OFFCURVE",
"420 76 CURVE",
"424 76 LINE",
"420 12 OFFCURVE",
"420 -55 OFFCURVE",
"420 -88 CURVE SMOOTH"
);
},
{
closed = 1;
nodes = (
"132 356 OFFCURVE",
"196 424 OFFCURVE",
"276 424 CURVE SMOOTH",
"354 424 OFFCURVE",
"417 363 OFFCURVE",
"420 252 CURVE SMOOTH",
"420 235 LINE SMOOTH",
"417 125 OFFCURVE",
"354 64 OFFCURVE",
"276 64 CURVE SMOOTH",
"196 64 OFFCURVE",
"132 124 OFFCURVE",
"132 240 CURVE SMOOTH"
);
}
);
width = 580;
}
);
leftKerningGroup = c;
unicode = 0071;
},
{
glyphname = r;
layers = (
{
layerId = "E50B3E3D-B4C5-41E4-9ECD-CCE241FA0330";
name = Regular;
paths = (
{
closed = 1;
nodes = (
"76 0 LINE",
"164 0 LINE",
"164 255 LINE SMOOTH",
"164 340 OFFCURVE",
"199 416 OFFCURVE",
"272 416 CURVE SMOOTH",
"291 416 OFFCURVE",
"310 411 OFFCURVE",
"332 400 CURVE",
"360 480 LINE",
"335 497 OFFCURVE",
"312 500 OFFCURVE",
"292 500 CURVE SMOOTH",
"230 500 OFFCURVE",
"187 469 OFFCURVE",
"163 417 CURVE",
"160 417 LINE",
"160 488 LINE",
"76 488 LINE"
);
}
);
width = 360;
}
);
leftKerningGroup = m;
rightKerningGroup = r;
unicode = 0072;
},
{
glyphname = s;
layers = (
{
layerId = "E50B3E3D-B4C5-41E4-9ECD-CCE241FA0330";
name = Regular;
paths = (
{
closed = 1;
nodes = (
"40 140 LINE",
"40 40 OFFCURVE",
"124 -12 OFFCURVE",
"240 -12 CURVE SMOOTH",
"364 -12 OFFCURVE",
"448 41 OFFCURVE",
"448 144 CURVE SMOOTH",
"448 232 OFFCURVE",
"386 262 OFFCURVE",
"312 275 CURVE SMOOTH",
"220 291 LINE SMOOTH",
"162 301 OFFCURVE",
"136 320 OFFCURVE",
"136 356 CURVE SMOOTH",
"136 406 OFFCURVE",
"184 432 OFFCURVE",
"244 432 CURVE SMOOTH",
"308 432 OFFCURVE",
"352 404 OFFCURVE",
"352 352 CURVE",
"436 352 LINE",
"436 456 OFFCURVE",
"348 500 OFFCURVE",
"244 500 CURVE SMOOTH",
"136 500 OFFCURVE",
"50 444 OFFCURVE",
"50 348 CURVE SMOOTH",
"50 254 OFFCURVE",
"126 227 OFFCURVE",
"192 216 CURVE SMOOTH",
"284 200 LINE SMOOTH",
"334 191 OFFCURVE",
"360 174 OFFCURVE",
"360 136 CURVE SMOOTH",
"360 86 OFFCURVE",
"321 56 OFFCURVE",
"240 56 CURVE SMOOTH",
"183 56 OFFCURVE",
"124 82 OFFCURVE",
"124 140 CURVE"
);
}
);
width = 492;
}
);
leftKerningGroup = s;
rightKerningGroup = s;
unicode = 0073;
},
{
glyphname = t;
layers = (
{
layerId = "E50B3E3D-B4C5-41E4-9ECD-CCE241FA0330";
name = Regular;
paths = (
{
closed = 1;
nodes = (
"88 144 LINE SMOOTH",
"88 48 OFFCURVE",
"136 0 OFFCURVE",
"232 0 CURVE SMOOTH",
"304 0 LINE",
"304 76 LINE",
"244 76 LINE SMOOTH",
"196 76 OFFCURVE",
"176 96 OFFCURVE",
"176 148 CURVE SMOOTH",
"176 416 LINE",
"304 416 LINE",
"304 488 LINE",
"176 488 LINE",
"176 636 LINE",
"88 636 LINE",
"88 488 LINE",
"-4 488 LINE",
"-4 416 LINE",
"88 416 LINE"
);
}
);
width = 328;
}
);
leftKerningGroup = t;
rightKerningGroup = t;
unicode = 0074;
},
{
glyphname = u;
layers = (
{
layerId = "E50B3E3D-B4C5-41E4-9ECD-CCE241FA0330";
name = Regular;
paths = (
{
closed = 1;
nodes = (
"68 192 LINE SMOOTH",
"68 40 OFFCURVE",
"152 -12 OFFCURVE",
"248 -12 CURVE SMOOTH",
"320 -12 OFFCURVE",
"368 16 OFFCURVE",
"396 72 CURVE",
"400 72 LINE",
"400 0 LINE",
"484 0 LINE",
"484 488 LINE",
"396 488 LINE",
"396 236 LINE SMOOTH",
"396 132 OFFCURVE",
"344 64 OFFCURVE",
"268 64 CURVE SMOOTH",
"200 64 OFFCURVE",
"156 100 OFFCURVE",
"156 204 CURVE SMOOTH",
"156 488 LINE",
"68 488 LINE"
);
}
);
width = 560;
}
);
leftKerningGroup = u;
rightKerningGroup = g;
unicode = 0075;
},
{
glyphname = v;
layers = (
{
layerId = "E50B3E3D-B4C5-41E4-9ECD-CCE241FA0330";
name = Regular;
paths = (
{
closed = 1;
nodes = (
"188 0 LINE",
"284 0 LINE",
"464 488 LINE",
"376 488 LINE",
"240 96 LINE",
"236 96 LINE",
"100 488 LINE",
"4 488 LINE"
);
}
);
width = 468;
}
);
leftKerningGroup = v;
rightKerningGroup = v;
unicode = 0076;
},
{
glyphname = w;
layers = (
{
layerId = "E50B3E3D-B4C5-41E4-9ECD-CCE241FA0330";
name = Regular;
paths = (
{
closed = 1;
nodes = (
"144 0 LINE",
"252 0 LINE",
"360 400 LINE",
"364 400 LINE",
"472 0 LINE",
"580 0 LINE",
"720 488 LINE",
"632 488 LINE",
"532 92 LINE",
"528 92 LINE",
"416 488 LINE",
"312 488 LINE",
"200 92 LINE",
"196 92 LINE",
"96 488 LINE",
"4 488 LINE"
);
}
);
width = 724;
}
);
leftKerningGroup = w;
rightKerningGroup = w;
unicode = 0077;
},
{
glyphname = x;
layers = (
{
layerId = "E50B3E3D-B4C5-41E4-9ECD-CCE241FA0330";
name = Regular;
paths = (
{
closed = 1;
nodes = (
"12 0 LINE",
"108 0 LINE",
"227 181 LINE",
"348 0 LINE",
"452 0 LINE",
"279 247 LINE",
"448 488 LINE",
"352 488 LINE",
"237 313 LINE",
"120 488 LINE",
"16 488 LINE",
"184 246 LINE"
);
}
);
width = 464;
}
);
leftKerningGroup = x;
rightKerningGroup = x;
unicode = 0078;
},
{
glyphname = y;
layers = (
{
layerId = "E50B3E3D-B4C5-41E4-9ECD-CCE241FA0330";
name = Regular;
paths = (
{
closed = 1;
nodes = (
"33 -152 LINE",
"33 -228 LINE",
"81 -228 LINE SMOOTH",
"180 -228 OFFCURVE",
"231 -148 OFFCURVE",
"257 -76 CURVE SMOOTH",
"464 488 LINE",
"376 488 LINE",
"240 96 LINE",
"236 96 LINE",
"100 488 LINE",
"4 488 LINE",
"196 -21 LINE",
"185 -52 LINE SMOOTH",
"161 -118 OFFCURVE",
"121 -152 OFFCURVE",
"65 -152 CURVE SMOOTH"
);
}
);
width = 468;
}
);
leftKerningGroup = v;
rightKerningGroup = v;
unicode = 0079;
},
{
glyphname = z;
layers = (
{
layerId = "E50B3E3D-B4C5-41E4-9ECD-CCE241FA0330";
name = Regular;
paths = (
{
closed = 1;
nodes = (
"32 416 LINE",
"300 416 LINE",
"36 52 LINE",
"36 0 LINE",
"412 0 LINE",
"412 72 LINE",
"149 72 LINE",
"408 428 LINE",
"408 488 LINE",
"32 488 LINE"
);
}
);
width = 444;
}
);
leftKerningGroup = z;
rightKerningGroup = z;
unicode = 007A;
},
{
glyphname = braceleft;
layers = (
{
layerId = "E50B3E3D-B4C5-41E4-9ECD-CCE241FA0330";
name = Regular;
paths = (
{
closed = 1;
nodes = (
"132 -76 LINE SMOOTH",
"132 -172 OFFCURVE",
"168 -228 OFFCURVE",
"288 -228 CURVE SMOOTH",
"340 -228 LINE",
"340 -160 LINE",
"292 -160 LINE SMOOTH",
"230 -160 OFFCURVE",
"212 -136 OFFCURVE",
"212 -80 CURVE SMOOTH",
"212 124 LINE SMOOTH",
"212 196 OFFCURVE",
"186 240 OFFCURVE",
"112 260 CURVE",
"112 264 LINE",
"186 284 OFFCURVE",
"212 328 OFFCURVE",
"212 400 CURVE SMOOTH",
"212 596 LINE SMOOTH",
"212 652 OFFCURVE",
"230 676 OFFCURVE",
"292 676 CURVE SMOOTH",
"340 676 LINE",
"340 744 LINE",
"288 744 LINE SMOOTH",
"168 744 OFFCURVE",
"132 688 OFFCURVE",
"132 592 CURVE SMOOTH",
"132 424 LINE SMOOTH",
"132 326 OFFCURVE",
"112 292 OFFCURVE",
"20 292 CURVE",
"20 232 LINE",
"112 232 OFFCURVE",
"132 198 OFFCURVE",
"132 100 CURVE SMOOTH"
);
}
);
width = 356;
}
);
leftKerningGroup = braceleft;
unicode = 007B;
},
{
glyphname = bar;
layers = (
{
layerId = "E50B3E3D-B4C5-41E4-9ECD-CCE241FA0330";
name = Regular;
paths = (
{
closed = 1;
nodes = (
"88 -240 LINE",
"168 -240 LINE",
"168 760 LINE",
"88 760 LINE"
);
}
);
width = 256;
}
);
unicode = 007C;
},
{
glyphname = braceright;
layers = (
{
layerId = "E50B3E3D-B4C5-41E4-9ECD-CCE241FA0330";
name = Regular;
paths = (
{
closed = 1;
nodes = (
"16 -160 LINE",
"16 -228 LINE",
"68 -228 LINE SMOOTH",
"188 -228 OFFCURVE",
"224 -172 OFFCURVE",
"224 -76 CURVE SMOOTH",
"224 100 LINE SMOOTH",
"224 198 OFFCURVE",
"244 232 OFFCURVE",
"336 232 CURVE",
"336 292 LINE",
"244 292 OFFCURVE",
"224 326 OFFCURVE",
"224 424 CURVE SMOOTH",
"224 592 LINE SMOOTH",
"224 688 OFFCURVE",
"188 744 OFFCURVE",
"68 744 CURVE SMOOTH",
"16 744 LINE",
"16 676 LINE",
"64 676 LINE SMOOTH",
"126 676 OFFCURVE",
"144 652 OFFCURVE",
"144 596 CURVE SMOOTH",
"144 400 LINE SMOOTH",
"144 328 OFFCURVE",
"170 284 OFFCURVE",
"244 264 CURVE",
"244 260 LINE",
"170 240 OFFCURVE",
"144 196 OFFCURVE",
"144 124 CURVE SMOOTH",
"144 -80 LINE SMOOTH",
"144 -136 OFFCURVE",
"126 -160 OFFCURVE",
"64 -160 CURVE SMOOTH"
);
}
);
width = 356;
}
);
leftKerningGroup = braceright;
rightKerningGroup = braceright;
unicode = 007D;
},
{
glyphname = asciitilde;
layers = (
{
layerId = "E50B3E3D-B4C5-41E4-9ECD-CCE241FA0330";
name = Regular;
paths = (
{
closed = 1;
nodes = (
"132 184 LINE",
"132 240 OFFCURVE",
"152 264 OFFCURVE",
"184 264 CURVE SMOOTH",
"243 264 OFFCURVE",
"297 184 OFFCURVE",
"388 184 CURVE SMOOTH",
"453 184 OFFCURVE",
"512 232 OFFCURVE",
"512 336 CURVE",
"436 336 LINE",
"436 280 OFFCURVE",
"416 260 OFFCURVE",
"384 260 CURVE SMOOTH",
"324 260 OFFCURVE",
"275 336 OFFCURVE",
"184 336 CURVE SMOOTH",
"115 336 OFFCURVE",
"56 288 OFFCURVE",
"56 184 CURVE"
);
}
);
width = 568;
}
);
unicode = 007E;
},
{
glyphname = exclamdown;
layers = (
{
layerId = "E50B3E3D-B4C5-41E4-9ECD-CCE241FA0330";
name = Regular;
paths = (
{
closed = 1;
nodes = (
"88 380 LINE",
"192 380 LINE",
"192 488 LINE",
"88 488 LINE"
);
},
{
closed = 1;
nodes = (
"88 -8 LINE",
"88 -200 LINE",
"192 -200 LINE",
"192 -8 LINE",
"164 296 LINE",
"116 296 LINE"
);
}
);
width = 280;
}
);
unicode = 00A1;
},
{
glyphname = cent;
layers = (
{
layerId = "E50B3E3D-B4C5-41E4-9ECD-CCE241FA0330";
name = Regular;
paths = (
{
closed = 1;
nodes = (
"252 -12 LINE",
"340 -12 LINE",
"340 95 LINE",
"443 110 OFFCURVE",
"504 179 OFFCURVE",
"516 268 CURVE",
"428 268 LINE",
"418 212 OFFCURVE",
"376 168 OFFCURVE",
"296 168 CURVE SMOOTH",
"212 168 OFFCURVE",
"148 240 OFFCURVE",
"148 348 CURVE SMOOTH",
"148 456 OFFCURVE",
"212 528 OFFCURVE",
"296 528 CURVE SMOOTH",
"376 528 OFFCURVE",
"418 484 OFFCURVE",
"428 428 CURVE",
"516 428 LINE",
"504 516 OFFCURVE",
"445 583 OFFCURVE",
"344 600 CURVE",
"344 700 LINE",
"256 700 LINE",
"256 601 LINE",
"143 583 OFFCURVE",
"56 488 OFFCURVE",
"56 348 CURVE SMOOTH",
"56 208 OFFCURVE",
"130 113 OFFCURVE",
"252 95 CURVE"
);
}
);
width = 568;
}
);
unicode = 00A2;
},
{
glyphname = sterling;
layers = (
{
layerId = "E50B3E3D-B4C5-41E4-9ECD-CCE241FA0330";
name = Regular;
paths = (
{
closed = 1;
nodes = (
"60 326 LINE",
"168 326 LINE",
"181 286 OFFCURVE",
"192 245 OFFCURVE",
"192 204 CURVE SMOOTH",
"192 194 OFFCURVE",
"191 183 OFFCURVE",
"190 172 CURVE",
"168 181 OFFCURVE",
"145 188 OFFCURVE",
"120 188 CURVE SMOOTH",
"54 188 OFFCURVE",
"4 150 OFFCURVE",
"4 80 CURVE SMOOTH",
"4 28 OFFCURVE",
"43 -12 OFFCURVE",
"108 -12 CURVE SMOOTH",
"166 -12 OFFCURVE",
"209 20 OFFCURVE",
"236 67 CURVE",
"286 29 OFFCURVE",
"340 -12 OFFCURVE",
"400 -12 CURVE SMOOTH",
"512 -12 OFFCURVE",
"542 80 OFFCURVE",
"548 164 CURVE",
"472 164 LINE",
"469 91 OFFCURVE",
"445 64 OFFCURVE",
"404 64 CURVE SMOOTH",
"356 64 OFFCURVE",
"311 98 OFFCURVE",
"262 131 CURVE",
"271 164 OFFCURVE",
"276 199 OFFCURVE",
"276 236 CURVE SMOOTH",
"276 267 OFFCURVE",
"270 296 OFFCURVE",
"262 326 CURVE",
"400 326 LINE",
"400 388 LINE",
"241 388 LINE",
"224 436 OFFCURVE",
"208 483 OFFCURVE",
"208 532 CURVE SMOOTH",
"208 593 OFFCURVE",
"250 628 OFFCURVE",
"300 628 CURVE SMOOTH",
"359 628 OFFCURVE",
"389 596 OFFCURVE",
"396 524 CURVE",
"484 524 LINE",
"476 638 OFFCURVE",
"412 700 OFFCURVE",
"304 700 CURVE SMOOTH",
"193 700 OFFCURVE",
"120 631 OFFCURVE",
"120 524 CURVE SMOOTH",
"120 477 OFFCURVE",
"133 432 OFFCURVE",
"147 388 CURVE",
"60 388 LINE"
);
},
{
closed = 1;
nodes = (
"80 40 OFFCURVE",
"64 59 OFFCURVE",
"64 86 CURVE SMOOTH",
"64 113 OFFCURVE",
"86 132 OFFCURVE",
"112 132 CURVE SMOOTH",
"133 132 OFFCURVE",
"156 122 OFFCURVE",
"178 108 CURVE",
"166 71 OFFCURVE",
"145 40 OFFCURVE",
"110 40 CURVE SMOOTH"
);
}
);
width = 568;
}
);
unicode = 00A3;
},
{
glyphname = fraction;
layers = (
{
layerId = "E50B3E3D-B4C5-41E4-9ECD-CCE241FA0330";
name = Regular;
paths = (
{
closed = 1;
nodes = (
"-172 -12 LINE",
"-104 -12 LINE",
"244 700 LINE",
"176 700 LINE"
);
}
);
width = 72;
}
);
unicode = 2044;
},
{
glyphname = yen;
layers = (
{
layerId = "E50B3E3D-B4C5-41E4-9ECD-CCE241FA0330";
name = Regular;
paths = (
{
closed = 1;
nodes = (
"88 248 LINE",
"240 248 LINE",
"240 172 LINE",
"88 172 LINE",
"88 116 LINE",
"240 116 LINE",
"240 0 LINE",
"328 0 LINE",
"328 116 LINE",
"480 116 LINE",
"480 172 LINE",
"328 172 LINE",
"328 248 LINE",
"480 248 LINE",
"480 304 LINE",
"328 304 LINE",
"328 307 LINE",
"552 688 LINE",
"460 688 LINE",
"290 392 LINE",
"286 392 LINE",
"116 688 LINE",
"16 688 LINE",
"240 310 LINE",
"240 304 LINE",
"88 304 LINE"
);
}
);
width = 568;
}
);
unicode = 00A5;
},
{
glyphname = florin;
layers = (
{
layerId = "E50B3E3D-B4C5-41E4-9ECD-CCE241FA0330";
name = Regular;
paths = (
{
closed = 1;
nodes = (
"96 292 LINE",
"215 292 LINE",
"182 -28 LINE SMOOTH",
"176 -86 OFFCURVE",
"155 -120 OFFCURVE",
"113 -120 CURVE SMOOTH",
"71 -120 OFFCURVE",
"55 -90 OFFCURVE",
"58 -44 CURVE SMOOTH",
"61 0 LINE",
"-19 0 LINE",
"-22 -44 LINE SMOOTH",
"-29 -151 OFFCURVE",
"24 -192 OFFCURVE",
"109 -192 CURVE SMOOTH",
"194 -192 OFFCURVE",
"258 -142 OFFCURVE",
"270 -28 CURVE SMOOTH",
"303 292 LINE",
"464 292 LINE",
"464 356 LINE",
"310 356 LINE",
"329 536 LINE SMOOTH",
"335 594 OFFCURVE",
"356 628 OFFCURVE",
"398 628 CURVE SMOOTH",
"440 628 OFFCURVE",
"456 598 OFFCURVE",
"453 552 CURVE SMOOTH",
"450 508 LINE",
"530 508 LINE",
"533 552 LINE SMOOTH",
"540 659 OFFCURVE",
"487 700 OFFCURVE",
"402 700 CURVE SMOOTH",
"317 700 OFFCURVE",
"253 650 OFFCURVE",
"241 536 CURVE SMOOTH",
"222 356 LINE",
"96 356 LINE"
);
}
);
width = 568;
}
);
unicode = 0192;
},
{
glyphname = section;
layers = (
{
layerId = "E50B3E3D-B4C5-41E4-9ECD-CCE241FA0330";
name = Regular;
paths = (
{
closed = 1;
nodes = (
"68 -68 LINE",
"76 -180 OFFCURVE",
"160 -228 OFFCURVE",
"280 -228 CURVE SMOOTH",
"404 -228 OFFCURVE",
"492 -164 OFFCURVE",
"492 -56 CURVE SMOOTH",
"492 19 OFFCURVE",
"452 59 OFFCURVE",
"395 85 CURVE",
"467 112 OFFCURVE",
"512 168 OFFCURVE",
"512 240 CURVE SMOOTH",
"512 330 OFFCURVE",
"465 383 OFFCURVE",
"356 416 CURVE SMOOTH",
"264 444 LINE SMOOTH",
"203 463 OFFCURVE",
"168 484 OFFCURVE",
"168 536 CURVE SMOOTH",
"168 596 OFFCURVE",
"212 632 OFFCURVE",
"292 632 CURVE SMOOTH",
"364 632 OFFCURVE",
"414 604 OFFCURVE",
"420 540 CURVE",
"504 540 LINE",
"496 652 OFFCURVE",
"412 700 OFFCURVE",
"292 700 CURVE SMOOTH",
"168 700 OFFCURVE",
"80 636 OFFCURVE",
"80 528 CURVE SMOOTH",
"80 452 OFFCURVE",
"119 413 OFFCURVE",
"177 387 CURVE",
"105 360 OFFCURVE",
"60 303 OFFCURVE",
"60 232 CURVE SMOOTH",
"60 142 OFFCURVE",
"107 89 OFFCURVE",
"216 56 CURVE SMOOTH",
"308 28 LINE SMOOTH",
"369 9 OFFCURVE",
"404 -12 OFFCURVE",
"404 -64 CURVE SMOOTH",
"404 -124 OFFCURVE",
"360 -160 OFFCURVE",
"280 -160 CURVE SMOOTH",
"208 -160 OFFCURVE",
"158 -132 OFFCURVE",
"152 -68 CURVE"
);
},
{
closed = 1;
nodes = (
"320 340 LINE SMOOTH",
"391 318 OFFCURVE",
"428 295 OFFCURVE",
"428 228 CURVE SMOOTH",
"428 176 OFFCURVE",
"388 131 OFFCURVE",
"309 114 CURVE",
"252 132 LINE SMOOTH",
"181 153 OFFCURVE",
"144 177 OFFCURVE",
"144 244 CURVE SMOOTH",
"144 294 OFFCURVE",
"181 341 OFFCURVE",
"255 359 CURVE"
);
}
);
width = 572;
}
);
unicode = 00A7;
},
{
glyphname = currency;
layers = (
{
layerId = "E50B3E3D-B4C5-41E4-9ECD-CCE241FA0330";
name = Regular;
paths = (
{
closed = 1;
nodes = (
"132 148 LINE",
"190 207 LINE",
"216 189 OFFCURVE",
"248 180 OFFCURVE",
"284 180 CURVE SMOOTH",
"319 180 OFFCURVE",
"352 189 OFFCURVE",
"378 207 CURVE",
"436 148 LINE",
"480 192 LINE",
"421 251 LINE",
"438 277 OFFCURVE",
"452 308 OFFCURVE",
"452 344 CURVE SMOOTH",
"452 380 OFFCURVE",
"438 413 OFFCURVE",
"420 439 CURVE",
"480 500 LINE",
"436 544 LINE",
"375 482 LINE",
"349 499 OFFCURVE",
"318 508 OFFCURVE",
"284 508 CURVE SMOOTH",
"249 508 OFFCURVE",
"218 499 OFFCURVE",
"192 482 CURVE",
"132 544 LINE",
"88 500 LINE",
"148 439 LINE",
"130 413 OFFCURVE",
"116 380 OFFCURVE",
"116 344 CURVE SMOOTH",
"116 308 OFFCURVE",
"129 277 OFFCURVE",
"146 251 CURVE",
"88 192 LINE"
);
},
{
closed = 1;
nodes = (
"230 244 OFFCURVE",
"188 283 OFFCURVE",
"188 344 CURVE SMOOTH",
"188 405 OFFCURVE",
"230 444 OFFCURVE",
"284 444 CURVE SMOOTH",
"338 444 OFFCURVE",
"380 405 OFFCURVE",
"380 344 CURVE SMOOTH",
"380 283 OFFCURVE",
"338 244 OFFCURVE",
"284 244 CURVE SMOOTH"
);
}
);
width = 568;
}
);
unicode = 00A4;
},
{
glyphname = quotesingle;
layers = (
{
layerId = "E50B3E3D-B4C5-41E4-9ECD-CCE241FA0330";
name = Regular;
paths = (
{
closed = 1;
nodes = (
"80 436 LINE",
"136 436 LINE",
"152 604 LINE",
"152 688 LINE",
"64 688 LINE",
"64 604 LINE"
);
}
);
width = 216;
}
);
unicode = 0027;
},
{
glyphname = quotedblleft;
layers = (
{
layerId = "E50B3E3D-B4C5-41E4-9ECD-CCE241FA0330";
name = Regular;
paths = (
{
closed = 1;
nodes = (
"72 436 LINE",
"176 436 LINE",
"176 544 LINE",
"132 544 LINE",
"160 688 LINE",
"112 688 LINE",
"72 536 LINE"
);
},
{
closed = 1;
nodes = (
"252 436 LINE",
"356 436 LINE",
"356 544 LINE",
"312 544 LINE",
"340 688 LINE",
"292 688 LINE",
"252 536 LINE"
);
}
);
width = 428;
}
);
leftKerningGroup = quoteleft;
rightKerningGroup = quoteleft;
unicode = 201C;
},
{
glyphname = guillemotleft;
layers = (
{
layerId = "E50B3E3D-B4C5-41E4-9ECD-CCE241FA0330";
name = Regular;
paths = (
{
closed = 1;
nodes = (
"244 252 LINE",
"388 48 LINE",
"460 48 LINE",
"344 252 LINE",
"460 456 LINE",
"388 456 LINE"
);
},
{
closed = 1;
nodes = (
"196 48 LINE",
"268 48 LINE",
"152 252 LINE",
"268 456 LINE",
"196 456 LINE",
"52 252 LINE"
);
}
);
width = 512;
}
);
leftKerningGroup = guillemotleft;
rightKerningGroup = guillemotleft;
unicode = 00AB;
},
{
glyphname = guilsinglleft;
layers = (
{
layerId = "E50B3E3D-B4C5-41E4-9ECD-CCE241FA0330";
name = Regular;
paths = (
{
closed = 1;
nodes = (
"196 48 LINE",
"268 48 LINE",
"152 252 LINE",
"268 456 LINE",
"196 456 LINE",
"52 252 LINE"
);
}
);
width = 320;
}
);
leftKerningGroup = guillemotleft;
rightKerningGroup = guillemotleft;
unicode = 2039;
},
{
glyphname = guilsinglright;
layers = (
{
layerId = "E50B3E3D-B4C5-41E4-9ECD-CCE241FA0330";
name = Regular;
paths = (
{
closed = 1;
nodes = (
"52 48 LINE",
"124 48 LINE",
"268 252 LINE",
"124 456 LINE",
"52 456 LINE",
"168 252 LINE"
);
}
);
width = 320;
}
);
leftKerningGroup = guilsinglright;
rightKerningGroup = guilsinglright;
unicode = 203A;
},
{
glyphname = fi;
layers = (
{
layerId = "E50B3E3D-B4C5-41E4-9ECD-CCE241FA0330";
name = Regular;
paths = (
{
closed = 1;
nodes = (
"396 0 LINE",
"484 0 LINE",
"484 488 LINE",
"184 488 LINE",
"184 564 LINE SMOOTH",
"184 624 OFFCURVE",
"204 656 OFFCURVE",
"268 656 CURVE SMOOTH",
"316 656 LINE",
"316 732 LINE",
"260 732 LINE SMOOTH",
"152 732 OFFCURVE",
"96 676 OFFCURVE",
"96 568 CURVE SMOOTH",
"96 488 LINE",
"4 488 LINE",
"4 416 LINE",
"96 416 LINE",
"96 0 LINE",
"184 0 LINE",
"184 416 LINE",
"396 416 LINE"
);
},
{
closed = 1;
nodes = (
"392 632 LINE",
"488 632 LINE",
"488 732 LINE",
"392 732 LINE"
);
}
);
width = 560;
}
);
leftKerningGroup = f;
unicode = E103;
},
{
glyphname = fl;
layers = (
{
layerId = "E50B3E3D-B4C5-41E4-9ECD-CCE241FA0330";
name = Regular;
paths = (
{
closed = 1;
nodes = (
"96 0 LINE",
"184 0 LINE",
"184 416 LINE",
"292 416 LINE",
"292 488 LINE",
"184 488 LINE",
"184 564 LINE SMOOTH",
"184 624 OFFCURVE",
"204 656 OFFCURVE",
"268 656 CURVE SMOOTH",
"396 656 LINE",
"396 0 LINE",
"484 0 LINE",
"484 732 LINE",
"260 732 LINE SMOOTH",
"152 732 OFFCURVE",
"96 676 OFFCURVE",
"96 568 CURVE SMOOTH",
"96 488 LINE",
"4 488 LINE",
"4 416 LINE",
"96 416 LINE"
);
}
);
width = 560;
}
);
leftKerningGroup = f;
unicode = E104;
},
{
glyphname = endash;
layers = (
{
layerId = "E50B3E3D-B4C5-41E4-9ECD-CCE241FA0330";
name = Regular;
paths = (
{
closed = 1;
nodes = (
"60 212 LINE",
"496 212 LINE",
"496 292 LINE",
"60 292 LINE"
);
}
);
width = 556;
}
);
leftKerningGroup = hyphen;
rightKerningGroup = hyphen;
unicode = 2013;
},
{
glyphname = dagger;
layers = (
{
layerId = "E50B3E3D-B4C5-41E4-9ECD-CCE241FA0330";
name = Regular;
paths = (
{
closed = 1;
nodes = (
"44 448 LINE",
"180 448 LINE",
"180 0 LINE",
"260 0 LINE",
"260 448 LINE",
"396 448 LINE",
"396 520 LINE",
"260 520 LINE",
"260 688 LINE",
"180 688 LINE",
"180 520 LINE",
"44 520 LINE"
);
}
);
width = 440;
}
);
unicode = 2020;
},
{
glyphname = daggerdbl;
layers = (
{
layerId = "E50B3E3D-B4C5-41E4-9ECD-CCE241FA0330";
name = Regular;
paths = (
{
closed = 1;
nodes = (
"44 448 LINE",
"180 448 LINE",
"180 236 LINE",
"44 236 LINE",
"44 164 LINE",
"180 164 LINE",
"180 0 LINE",
"260 0 LINE",
"260 164 LINE",
"396 164 LINE",
"396 236 LINE",
"260 236 LINE",
"260 448 LINE",
"396 448 LINE",
"396 520 LINE",
"260 520 LINE",
"260 688 LINE",
"180 688 LINE",
"180 520 LINE",
"44 520 LINE"
);
}
);
width = 440;
}
);
unicode = 2021;
},
{
glyphname = periodcentered;
layers = (
{
layerId = "E50B3E3D-B4C5-41E4-9ECD-CCE241FA0330";
name = Regular;
paths = (
{
closed = 1;
nodes = (
"76 196 LINE",
"188 196 LINE",
"188 308 LINE",
"76 308 LINE"
);
}
);
width = 264;
}
);
unicode = 00B7;
},
{
glyphname = paragraph;
layers = (
{
layerId = "E50B3E3D-B4C5-41E4-9ECD-CCE241FA0330";
name = Regular;
paths = (
{
closed = 1;
nodes = (
"436 0 LINE",
"524 0 LINE",
"524 688 LINE",
"436 688 LINE"
);
},
{
closed = 1;
nodes = (
"264 0 LINE",
"352 0 LINE",
"352 688 LINE",
"292 688 LINE SMOOTH",
"135 688 OFFCURVE",
"40 601 OFFCURVE",
"40 468 CURVE SMOOTH",
"40 343 OFFCURVE",
"125 259 OFFCURVE",
"264 249 CURVE"
);
}
);
width = 628;
}
);
unicode = 00B6;
},
{
glyphname = bullet;
layers = (
{
layerId = "E50B3E3D-B4C5-41E4-9ECD-CCE241FA0330";
name = Regular;
paths = (
{
closed = 1;
nodes = (
"341 80 OFFCURVE",
"416 155 OFFCURVE",
"416 252 CURVE SMOOTH",
"416 349 OFFCURVE",
"341 424 OFFCURVE",
"244 424 CURVE SMOOTH",
"147 424 OFFCURVE",
"72 349 OFFCURVE",
"72 252 CURVE SMOOTH",
"72 155 OFFCURVE",
"147 80 OFFCURVE",
"244 80 CURVE SMOOTH"
);
}
);
width = 488;
}
);
unicode = 2022;
},
{
glyphname = quotesinglbase;
layers = (
{
layerId = "E50B3E3D-B4C5-41E4-9ECD-CCE241FA0330";
name = Regular;
paths = (
{
closed = 1;
nodes = (
"116 0 LINE",
"88 -144 LINE",
"136 -144 LINE",
"176 8 LINE",
"176 108 LINE",
"72 108 LINE",
"72 0 LINE"
);
}
);
width = 248;
}
);
leftKerningGroup = quotesinglbase;
rightKerningGroup = quotesinglbase;
unicode = 201A;
},
{
glyphname = quotedblbase;
layers = (
{
layerId = "E50B3E3D-B4C5-41E4-9ECD-CCE241FA0330";
name = Regular;
paths = (
{
closed = 1;
nodes = (
"116 0 LINE",
"88 -144 LINE",
"136 -144 LINE",
"176 8 LINE",
"176 108 LINE",
"72 108 LINE",
"72 0 LINE"
);
},
{
closed = 1;
nodes = (
"296 0 LINE",
"268 -144 LINE",
"316 -144 LINE",
"356 8 LINE",
"356 108 LINE",
"252 108 LINE",
"252 0 LINE"
);
}
);
width = 428;
}
);
leftKerningGroup = quotesinglbase;
rightKerningGroup = quotesinglbase;
unicode = 201E;
},
{
glyphname = quotedblright;
layers = (
{
layerId = "E50B3E3D-B4C5-41E4-9ECD-CCE241FA0330";
name = Regular;
paths = (
{
closed = 1;
nodes = (
"88 436 LINE",
"136 436 LINE",
"176 588 LINE",
"176 688 LINE",
"72 688 LINE",
"72 580 LINE",
"116 580 LINE"
);
},
{
closed = 1;
nodes = (
"268 436 LINE",
"316 436 LINE",
"356 588 LINE",
"356 688 LINE",
"252 688 LINE",
"252 580 LINE",
"296 580 LINE"
);
}
);
width = 428;
}
);
leftKerningGroup = quoteright;
rightKerningGroup = quoteright;
unicode = 201D;
},
{
glyphname = guillemotright;
layers = (
{
layerId = "E50B3E3D-B4C5-41E4-9ECD-CCE241FA0330";
name = Regular;
paths = (
{
closed = 1;
nodes = (
"244 48 LINE",
"316 48 LINE",
"460 252 LINE",
"316 456 LINE",
"244 456 LINE",
"360 252 LINE"
);
},
{
closed = 1;
nodes = (
"52 48 LINE",
"124 48 LINE",
"268 252 LINE",
"124 456 LINE",
"52 456 LINE",
"168 252 LINE"
);
}
);
width = 512;
}
);
leftKerningGroup = guilsinglright;
rightKerningGroup = guilsinglright;
unicode = 00BB;
},
{
glyphname = ellipsis;
layers = (
{
layerId = "E50B3E3D-B4C5-41E4-9ECD-CCE241FA0330";
name = Regular;
paths = (
{
closed = 1;
nodes = (
"588 0 LINE",
"700 0 LINE",
"700 116 LINE",
"588 116 LINE"
);
},
{
closed = 1;
nodes = (
"332 0 LINE",
"444 0 LINE",
"444 116 LINE",
"332 116 LINE"
);
},
{
closed = 1;
nodes = (
"76 0 LINE",
"188 0 LINE",
"188 116 LINE",
"76 116 LINE"
);
}
);
width = 776;
}
);
leftKerningGroup = comma;
rightKerningGroup = comma;
unicode = 2026;
},
{
glyphname = perthousand;
layers = (
{
layerId = "E50B3E3D-B4C5-41E4-9ECD-CCE241FA0330";
name = Regular;
paths = (
{
closed = 1;
nodes = (
"280 336 OFFCURVE",
"324 416 OFFCURVE",
"324 516 CURVE SMOOTH",
"324 616 OFFCURVE",
"280 696 OFFCURVE",
"176 696 CURVE SMOOTH",
"73 696 OFFCURVE",
"28 616 OFFCURVE",
"28 516 CURVE SMOOTH",
"28 416 OFFCURVE",
"73 336 OFFCURVE",
"176 336 CURVE SMOOTH"
);
},
{
closed = 1;
nodes = (
"704 -8 OFFCURVE",
"748 72 OFFCURVE",
"748 172 CURVE SMOOTH",
"748 272 OFFCURVE",
"704 352 OFFCURVE",
"600 352 CURVE SMOOTH",
"497 352 OFFCURVE",
"452 272 OFFCURVE",
"452 172 CURVE SMOOTH",
"452 72 OFFCURVE",
"497 -8 OFFCURVE",
"600 -8 CURVE SMOOTH"
);
},
{
closed = 1;
nodes = (
"1056 -8 OFFCURVE",
"1100 72 OFFCURVE",
"1100 172 CURVE SMOOTH",
"1100 272 OFFCURVE",
"1056 352 OFFCURVE",
"952 352 CURVE SMOOTH",
"849 352 OFFCURVE",
"804 272 OFFCURVE",
"804 172 CURVE SMOOTH",
"804 72 OFFCURVE",
"849 -8 OFFCURVE",
"952 -8 CURVE SMOOTH"
);
},
{
closed = 1;
nodes = (
"180 -12 LINE",
"248 -12 LINE",
"596 700 LINE",
"528 700 LINE"
);
},
{
closed = 1;
nodes = (
"130 396 OFFCURVE",
"104 438 OFFCURVE",
"104 516 CURVE SMOOTH",
"104 594 OFFCURVE",
"129 636 OFFCURVE",
"176 636 CURVE SMOOTH",
"224 636 OFFCURVE",
"248 594 OFFCURVE",
"248 516 CURVE SMOOTH",
"248 438 OFFCURVE",
"223 396 OFFCURVE",
"176 396 CURVE SMOOTH"
);
},
{
closed = 1;
nodes = (
"554 52 OFFCURVE",
"528 94 OFFCURVE",
"528 172 CURVE SMOOTH",
"528 250 OFFCURVE",
"553 292 OFFCURVE",
"600 292 CURVE SMOOTH",
"648 292 OFFCURVE",
"672 250 OFFCURVE",
"672 172 CURVE SMOOTH",
"672 94 OFFCURVE",
"647 52 OFFCURVE",
"600 52 CURVE SMOOTH"
);
},
{
closed = 1;
nodes = (
"906 52 OFFCURVE",
"880 94 OFFCURVE",
"880 172 CURVE SMOOTH",
"880 250 OFFCURVE",
"905 292 OFFCURVE",
"952 292 CURVE SMOOTH",
"1000 292 OFFCURVE",
"1024 250 OFFCURVE",
"1024 172 CURVE SMOOTH",
"1024 94 OFFCURVE",
"999 52 OFFCURVE",
"952 52 CURVE SMOOTH"
);
}
);
width = 1128;
}
);
unicode = 2030;
},
{
glyphname = questiondown;
layers = (
{
layerId = "E50B3E3D-B4C5-41E4-9ECD-CCE241FA0330";
name = Regular;
paths = (
{
closed = 1;
nodes = (
"208 380 LINE",
"312 380 LINE",
"312 488 LINE",
"208 488 LINE"
);
},
{
closed = 1;
nodes = (
"40 -143 OFFCURVE",
"127 -212 OFFCURVE",
"248 -212 CURVE SMOOTH",
"399 -212 OFFCURVE",
"468 -105 OFFCURVE",
"468 8 CURVE",
"380 8 LINE",
"380 -70 OFFCURVE",
"339 -136 OFFCURVE",
"248 -136 CURVE SMOOTH",
"178 -136 OFFCURVE",
"132 -89 OFFCURVE",
"132 -28 CURVE SMOOTH",
"132 92 OFFCURVE",
"304 76 OFFCURVE",
"304 264 CURVE SMOOTH",
"304 292 LINE",
"216 292 LINE",
"216 252 LINE SMOOTH",
"216 124 OFFCURVE",
"40 132 OFFCURVE",
"40 -32 CURVE SMOOTH"
);
}
);
width = 504;
}
);
leftKerningGroup = questiondown;
rightKerningGroup = questiondown;
unicode = 00BF;
},
{
glyphname = grave;
layers = (
{
layerId = "E50B3E3D-B4C5-41E4-9ECD-CCE241FA0330";
name = Regular;
paths = (
{
closed = 1;
nodes = (
"248 568 LINE",
"312 568 LINE",
"208 732 LINE",
"104 732 LINE"
);
}
);
width = 560;
}
);
unicode = 0060;
},
{
glyphname = acute;
layers = (
{
layerId = "E50B3E3D-B4C5-41E4-9ECD-CCE241FA0330";
name = Regular;
paths = (
{
closed = 1;
nodes = (
"248 568 LINE",
"312 568 LINE",
"456 732 LINE",
"352 732 LINE"
);
}
);
width = 560;
}
);
unicode = 00B4;
},
{
glyphname = circumflex;
layers = (
{
layerId = "E50B3E3D-B4C5-41E4-9ECD-CCE241FA0330";
name = Regular;
paths = (
{
closed = 1;
nodes = (
"112 568 LINE",
"196 568 LINE",
"280 680 LINE",
"364 568 LINE",
"448 568 LINE",
"320 732 LINE",
"240 732 LINE"
);
}
);
width = 560;
}
);
unicode = 02C6;
},
{
glyphname = tilde;
layers = (
{
layerId = "E50B3E3D-B4C5-41E4-9ECD-CCE241FA0330";
name = Regular;
paths = (
{
closed = 1;
nodes = (
"164 596 LINE",
"168 619 OFFCURVE",
"180 644 OFFCURVE",
"208 644 CURVE SMOOTH",
"243 644 OFFCURVE",
"289 596 OFFCURVE",
"348 596 CURVE SMOOTH",
"409 596 OFFCURVE",
"441 644 OFFCURVE",
"444 704 CURVE",
"396 704 LINE",
"392 681 OFFCURVE",
"380 656 OFFCURVE",
"352 656 CURVE SMOOTH",
"317 656 OFFCURVE",
"271 704 OFFCURVE",
"212 704 CURVE SMOOTH",
"151 704 OFFCURVE",
"119 656 OFFCURVE",
"116 596 CURVE"
);
}
);
width = 560;
}
);
unicode = 02DC;
},
{
glyphname = macron;
layers = (
{
layerId = "E50B3E3D-B4C5-41E4-9ECD-CCE241FA0330";
name = Regular;
paths = (
{
closed = 1;
nodes = (
"140 616 LINE",
"416 616 LINE",
"416 684 LINE",
"140 684 LINE"
);
}
);
width = 560;
}
);
unicode = 00AF;
},
{
glyphname = breve;
layers = (
{
layerId = "E50B3E3D-B4C5-41E4-9ECD-CCE241FA0330";
name = Regular;
paths = (
{
closed = 1;
nodes = (
"342 580 OFFCURVE",
"413 614 OFFCURVE",
"424 720 CURVE",
"368 720 LINE",
"360 668 OFFCURVE",
"332 636 OFFCURVE",
"280 636 CURVE SMOOTH",
"228 636 OFFCURVE",
"200 668 OFFCURVE",
"192 720 CURVE",
"136 720 LINE",
"147 614 OFFCURVE",
"218 580 OFFCURVE",
"280 580 CURVE SMOOTH"
);
}
);
width = 560;
}
);
unicode = 02D8;
},
{
glyphname = dotaccent;
layers = (
{
layerId = "E50B3E3D-B4C5-41E4-9ECD-CCE241FA0330";
name = Regular;
paths = (
{
closed = 1;
nodes = (
"236 604 LINE",
"324 604 LINE",
"324 696 LINE",
"236 696 LINE"
);
}
);
width = 560;
}
);
unicode = 02D9;
},
{
glyphname = dieresis;
layers = (
{
layerId = "E50B3E3D-B4C5-41E4-9ECD-CCE241FA0330";
name = Regular;
paths = (
{
closed = 1;
nodes = (
"336 604 LINE",
"424 604 LINE",
"424 696 LINE",
"336 696 LINE"
);
},
{
closed = 1;
nodes = (
"136 604 LINE",
"224 604 LINE",
"224 696 LINE",
"136 696 LINE"
);
}
);
width = 560;
}
);
unicode = 00A8;
},
{
glyphname = ring;
layers = (
{
layerId = "E50B3E3D-B4C5-41E4-9ECD-CCE241FA0330";
name = Regular;
paths = (
{
closed = 1;
nodes = (
"333 564 OFFCURVE",
"380 603 OFFCURVE",
"380 660 CURVE SMOOTH",
"380 717 OFFCURVE",
"333 756 OFFCURVE",
"280 756 CURVE SMOOTH",
"227 756 OFFCURVE",
"180 717 OFFCURVE",
"180 660 CURVE SMOOTH",
"180 603 OFFCURVE",
"227 564 OFFCURVE",
"280 564 CURVE SMOOTH"
);
},
{
closed = 1;
nodes = (
"251 608 OFFCURVE",
"228 631 OFFCURVE",
"228 660 CURVE SMOOTH",
"228 689 OFFCURVE",
"251 712 OFFCURVE",
"280 712 CURVE SMOOTH",
"309 712 OFFCURVE",
"332 689 OFFCURVE",
"332 660 CURVE SMOOTH",
"332 631 OFFCURVE",
"309 608 OFFCURVE",
"280 608 CURVE SMOOTH"
);
}
);
width = 560;
}
);
unicode = 02DA;
},
{
glyphname = cedilla;
layers = (
{
layerId = "E50B3E3D-B4C5-41E4-9ECD-CCE241FA0330";
name = Regular;
paths = (
{
closed = 1;
nodes = (
"236 -84 LINE",
"268 -84 LINE SMOOTH",
"300 -84 OFFCURVE",
"320 -96 OFFCURVE",
"320 -124 CURVE SMOOTH",
"320 -156 OFFCURVE",
"300 -164 OFFCURVE",
"268 -164 CURVE SMOOTH",
"216 -164 LINE",
"216 -220 LINE",
"272 -220 LINE SMOOTH",
"349 -220 OFFCURVE",
"388 -180 OFFCURVE",
"388 -124 CURVE SMOOTH",
"388 -77 OFFCURVE",
"356 -40 OFFCURVE",
"296 -36 CURVE",
"296 0 LINE",
"264 0 LINE"
);
}
);
width = 560;
}
);
unicode = 00B8;
},
{
glyphname = hungarumlaut;
layers = (
{
layerId = "E50B3E3D-B4C5-41E4-9ECD-CCE241FA0330";
name = Regular;
paths = (
{
closed = 1;
nodes = (
"336 568 LINE",
"400 568 LINE",
"544 732 LINE",
"440 732 LINE"
);
},
{
closed = 1;
nodes = (
"156 568 LINE",
"220 568 LINE",
"364 732 LINE",
"260 732 LINE"
);
}
);
width = 560;
}
);
unicode = 02DD;
},
{
glyphname = ogonek;
layers = (
{
layerId = "E50B3E3D-B4C5-41E4-9ECD-CCE241FA0330";
name = Regular;
paths = (
{
closed = 1;
nodes = (
"196 -181 OFFCURVE",
"235 -220 OFFCURVE",
"308 -220 CURVE SMOOTH",
"348 -220 LINE",
"348 -160 LINE",
"320 -160 LINE SMOOTH",
"279 -160 OFFCURVE",
"264 -141 OFFCURVE",
"264 -112 CURVE SMOOTH",
"264 -84 OFFCURVE",
"281 -45 OFFCURVE",
"324 0 CURVE",
"276 0 LINE",
"218 -47 OFFCURVE",
"196 -87 OFFCURVE",
"196 -128 CURVE SMOOTH"
);
}
);
width = 560;
}
);
unicode = 02DB;
},
{
glyphname = caron;
layers = (
{
layerId = "E50B3E3D-B4C5-41E4-9ECD-CCE241FA0330";
name = Regular;
paths = (
{
closed = 1;
nodes = (
"240 568 LINE",
"320 568 LINE",
"448 732 LINE",
"364 732 LINE",
"280 620 LINE",
"196 732 LINE",
"112 732 LINE"
);
}
);
width = 560;
}
);
unicode = 02C7;
},
{
glyphname = emdash;
layers = (
{
layerId = "E50B3E3D-B4C5-41E4-9ECD-CCE241FA0330";
name = Regular;
paths = (
{
closed = 1;
nodes = (
"60 212 LINE",
"780 212 LINE",
"780 292 LINE",
"60 292 LINE"
);
}
);
width = 840;
}
);
leftKerningGroup = hyphen;
rightKerningGroup = hyphen;
unicode = 2014;
},
{
glyphname = AE;
layers = (
{
layerId = "E50B3E3D-B4C5-41E4-9ECD-CCE241FA0330";
name = Regular;
paths = (
{
closed = 1;
nodes = (
"12 0 LINE",
"120 0 LINE",
"235 160 LINE",
"540 160 LINE",
"540 0 LINE",
"1012 0 LINE",
"1012 80 LINE",
"632 80 LINE",
"632 310 LINE",
"928 310 LINE",
"928 390 LINE",
"632 390 LINE",
"632 608 LINE",
"1004 608 LINE",
"1004 688 LINE",
"508 688 LINE"
);
},
{
closed = 1;
nodes = (
"536 580 LINE",
"540 580 LINE",
"540 240 LINE",
"292 240 LINE"
);
}
);
width = 1064;
}
);
leftKerningGroup = AE;
rightKerningGroup = E;
unicode = 00C6;
},
{
glyphname = ordfeminine;
layers = (
{
layerId = "E50B3E3D-B4C5-41E4-9ECD-CCE241FA0330";
name = Regular;
paths = (
{
closed = 1;
nodes = (
"202 336 OFFCURVE",
"240 354 OFFCURVE",
"260 386 CURVE",
"263 386 LINE",
"263 344 LINE",
"340 344 LINE",
"340 573 LINE SMOOTH",
"340 656 OFFCURVE",
"285 697 OFFCURVE",
"195 697 CURVE SMOOTH",
"121 697 OFFCURVE",
"57 663 OFFCURVE",
"52 578 CURVE",
"127 578 LINE",
"130 619 OFFCURVE",
"157 638 OFFCURVE",
"195 638 CURVE SMOOTH",
"240 638 OFFCURVE",
"260 609 OFFCURVE",
"260 576 CURVE SMOOTH",
"260 556 OFFCURVE",
"249 551 OFFCURVE",
"216 547 CURVE SMOOTH",
"151 539 LINE SMOOTH",
"71 528 OFFCURVE",
"36 490 OFFCURVE",
"36 434 CURVE SMOOTH",
"36 376 OFFCURVE",
"77 336 OFFCURVE",
"151 336 CURVE SMOOTH"
);
},
{
closed = 1;
nodes = (
"137 392 OFFCURVE",
"116 410 OFFCURVE",
"116 440 CURVE SMOOTH",
"116 465 OFFCURVE",
"131 485 OFFCURVE",
"170 490 CURVE SMOOTH",
"226 497 LINE SMOOTH",
"242 499 OFFCURVE",
"254 504 OFFCURVE",
"260 513 CURVE",
"260 482 LINE SMOOTH",
"260 419 OFFCURVE",
"219 392 OFFCURVE",
"173 392 CURVE SMOOTH"
);
}
);
width = 386;
}
);
leftKerningGroup = ordfeminine;
unicode = 00AA;
},
{
glyphname = Lslash;
layers = (
{
layerId = "E50B3E3D-B4C5-41E4-9ECD-CCE241FA0330";
name = Regular;
paths = (
{
closed = 1;
nodes = (
"28 184 LINE",
"88 227 LINE",
"88 0 LINE",
"516 0 LINE",
"516 80 LINE",
"180 80 LINE",
"180 293 LINE",
"362 424 LINE",
"318 484 LINE",
"180 384 LINE",
"180 688 LINE",
"88 688 LINE",
"88 318 LINE",
"-16 244 LINE"
);
}
);
width = 544;
}
);
rightKerningGroup = L;
unicode = 0141;
},
{
glyphname = Oslash;
layers = (
{
layerId = "E50B3E3D-B4C5-41E4-9ECD-CCE241FA0330";
name = Regular;
paths = (
{
closed = 1;
nodes = (
"56 -12 LINE",
"132 -12 LINE",
"182 50 LINE",
"236 11 OFFCURVE",
"303 -12 OFFCURVE",
"380 -12 CURVE SMOOTH",
"573 -12 OFFCURVE",
"716 139 OFFCURVE",
"716 344 CURVE SMOOTH",
"716 445 OFFCURVE",
"681 534 OFFCURVE",
"622 597 CURVE",
"704 700 LINE",
"628 700 LINE",
"577 636 LINE",
"522 676 OFFCURVE",
"455 700 OFFCURVE",
"380 700 CURVE SMOOTH",
"183 700 OFFCURVE",
"44 549 OFFCURVE",
"44 344 CURVE SMOOTH",
"44 242 OFFCURVE",
"78 153 OFFCURVE",
"137 89 CURVE"
);
},
{
closed = 1;
nodes = (
"620 188 OFFCURVE",
"525 72 OFFCURVE",
"380 72 CURVE SMOOTH",
"324 72 OFFCURVE",
"276 89 OFFCURVE",
"237 119 CURVE",
"564 526 LINE",
"600 478 OFFCURVE",
"620 415 OFFCURVE",
"620 344 CURVE SMOOTH"
);
},
{
closed = 1;
nodes = (
"140 500 OFFCURVE",
"235 616 OFFCURVE",
"380 616 CURVE SMOOTH",
"436 616 OFFCURVE",
"484 598 OFFCURVE",
"522 568 CURVE",
"195 162 LINE",
"160 209 OFFCURVE",
"140 272 OFFCURVE",
"140 344 CURVE SMOOTH"
);
}
);
width = 760;
}
);
leftKerningGroup = C;
rightKerningGroup = D;
unicode = 00D8;
},
{
glyphname = OE;
layers = (
{
layerId = "E50B3E3D-B4C5-41E4-9ECD-CCE241FA0330";
name = Regular;
paths = (
{
closed = 1;
nodes = (
"972 608 LINE",
"972 688 LINE",
"404 688 LINE SMOOTH",
"167 688 OFFCURVE",
"44 545 OFFCURVE",
"44 344 CURVE SMOOTH",
"44 143 OFFCURVE",
"167 0 OFFCURVE",
"404 0 CURVE SMOOTH",
"980 0 LINE",
"980 80 LINE",
"600 80 LINE",
"600 310 LINE",
"896 310 LINE",
"896 390 LINE",
"600 390 LINE",
"600 608 LINE"
);
},
{
closed = 1;
nodes = (
"140 484 OFFCURVE",
"211 608 OFFCURVE",
"404 608 CURVE SMOOTH",
"508 608 LINE",
"508 80 LINE",
"404 80 LINE SMOOTH",
"211 80 OFFCURVE",
"140 204 OFFCURVE",
"140 344 CURVE SMOOTH"
);
}
);
width = 1032;
}
);
leftKerningGroup = C;
rightKerningGroup = E;
unicode = 0152;
},
{
glyphname = ordmasculine;
layers = (
{
layerId = "E50B3E3D-B4C5-41E4-9ECD-CCE241FA0330";
name = Regular;
paths = (
{
closed = 1;
nodes = (
"311 336 OFFCURVE",
"383 406 OFFCURVE",
"383 516 CURVE SMOOTH",
"383 626 OFFCURVE",
"315 697 OFFCURVE",
"206 697 CURVE SMOOTH",
"102 697 OFFCURVE",
"30 626 OFFCURVE",
"30 516 CURVE SMOOTH",
"30 406 OFFCURVE",
"98 336 OFFCURVE",
"206 336 CURVE SMOOTH"
);
},
{
closed = 1;
nodes = (
"150 400 OFFCURVE",
"113 447 OFFCURVE",
"113 516 CURVE SMOOTH",
"113 586 OFFCURVE",
"150 632 OFFCURVE",
"206 632 CURVE SMOOTH",
"263 632 OFFCURVE",
"300 587 OFFCURVE",
"300 516 CURVE SMOOTH",
"300 447 OFFCURVE",
"263 400 OFFCURVE",
"206 400 CURVE SMOOTH"
);
}
);
width = 413;
}
);
leftKerningGroup = ordfeminine;
unicode = 00BA;
},
{
glyphname = ae;
layers = (
{
layerId = "E50B3E3D-B4C5-41E4-9ECD-CCE241FA0330";
name = Regular;
paths = (
{
closed = 1;
nodes = (
"152 336 LINE",
"156 398 OFFCURVE",
"205 428 OFFCURVE",
"264 428 CURVE SMOOTH",
"336 428 OFFCURVE",
"368 384 OFFCURVE",
"368 328 CURVE SMOOTH",
"368 305 OFFCURVE",
"356 299 OFFCURVE",
"304 290 CURVE SMOOTH",
"208 274 LINE SMOOTH",
"94 255 OFFCURVE",
"48 202 OFFCURVE",
"48 124 CURVE SMOOTH",
"48 42 OFFCURVE",
"108 -12 OFFCURVE",
"212 -12 CURVE SMOOTH",
"284 -12 OFFCURVE",
"361 10 OFFCURVE",
"407 90 CURVE",
"444 25 OFFCURVE",
"509 -12 OFFCURVE",
"600 -12 CURVE SMOOTH",
"710 -12 OFFCURVE",
"791 61 OFFCURVE",
"804 148 CURVE",
"716 148 LINE",
"706 104 OFFCURVE",
"676 64 OFFCURVE",
"600 64 CURVE SMOOTH",
"519 64 OFFCURVE",
"464 127 OFFCURVE",
"460 232 CURVE",
"808 232 LINE",
"808 268 LINE SMOOTH",
"808 414 OFFCURVE",
"720 500 OFFCURVE",
"596 500 CURVE SMOOTH",
"522 500 OFFCURVE",
"466 473 OFFCURVE",
"428 426 CURVE",
"398 475 OFFCURVE",
"340 500 OFFCURVE",
"264 500 CURVE SMOOTH",
"165 500 OFFCURVE",
"76 452 OFFCURVE",
"68 336 CURVE"
);
},
{
closed = 1;
nodes = (
"170 60 OFFCURVE",
"136 86 OFFCURVE",
"136 132 CURVE SMOOTH",
"136 174 OFFCURVE",
"162 202 OFFCURVE",
"224 212 CURVE SMOOTH",
"316 228 LINE SMOOTH",
"340 232 OFFCURVE",
"358 239 OFFCURVE",
"368 251 CURVE",
"368 204 LINE SMOOTH",
"368 104 OFFCURVE",
"304 60 OFFCURVE",
"228 60 CURVE SMOOTH"
);
},
{
closed = 1;
nodes = (
"664 424 OFFCURVE",
"709 380 OFFCURVE",
"715 298 CURVE",
"464 298 LINE",
"479 375 OFFCURVE",
"527 424 OFFCURVE",
"596 424 CURVE SMOOTH"
);
}
);
width = 844;
}
);
leftKerningGroup = a;
rightKerningGroup = e;
unicode = 00E6;
},
{
glyphname = dotlessi;
layers = (
{
layerId = "E50B3E3D-B4C5-41E4-9ECD-CCE241FA0330";
name = Regular;
paths = (
{
closed = 1;
nodes = (
"76 0 LINE",
"164 0 LINE",
"164 488 LINE",
"76 488 LINE"
);
}
);
width = 240;
}
);
unicode = 0131;
},
{
glyphname = lslash;
layers = (
{
layerId = "E50B3E3D-B4C5-41E4-9ECD-CCE241FA0330";
name = Regular;
paths = (
{
closed = 1;
nodes = (
"-20 256 LINE",
"20 208 LINE",
"76 261 LINE",
"76 0 LINE",
"164 0 LINE",
"164 345 LINE",
"264 440 LINE",
"224 488 LINE",
"164 431 LINE",
"164 732 LINE",
"76 732 LINE",
"76 347 LINE"
);
}
);
width = 240;
}
);
unicode = 0142;
},
{
glyphname = oslash;
layers = (
{
layerId = "E50B3E3D-B4C5-41E4-9ECD-CCE241FA0330";
name = Regular;
paths = (
{
closed = 1;
nodes = (
"40 -12 LINE",
"104 -12 LINE",
"137 29 LINE",
"175 2 OFFCURVE",
"224 -12 OFFCURVE",
"280 -12 CURVE SMOOTH",
"420 -12 OFFCURVE",
"520 88 OFFCURVE",
"520 244 CURVE SMOOTH",
"520 319 OFFCURVE",
"498 381 OFFCURVE",
"459 425 CURVE",
"520 500 LINE",
"456 500 LINE",
"422 459 LINE",
"384 485 OFFCURVE",
"336 500 OFFCURVE",
"280 500 CURVE SMOOTH",
"140 500 OFFCURVE",
"40 400 OFFCURVE",
"40 244 CURVE SMOOTH",
"40 168 OFFCURVE",
"61 107 OFFCURVE",
"100 62 CURVE"
);
},
{
closed = 1;
nodes = (
"132 352 OFFCURVE",
"192 424 OFFCURVE",
"280 424 CURVE SMOOTH",
"315 424 OFFCURVE",
"345 413 OFFCURVE",
"369 393 CURVE",
"158 134 LINE",
"141 163 OFFCURVE",
"132 201 OFFCURVE",
"132 244 CURVE SMOOTH"
);
},
{
closed = 1;
nodes = (
"428 136 OFFCURVE",
"368 64 OFFCURVE",
"280 64 CURVE SMOOTH",
"245 64 OFFCURVE",
"215 75 OFFCURVE",
"191 95 CURVE",
"402 354 LINE",
"419 325 OFFCURVE",
"428 288 OFFCURVE",
"428 244 CURVE SMOOTH"
);
}
);
width = 560;
}
);
leftKerningGroup = c;
rightKerningGroup = b;
unicode = 00F8;
},
{
glyphname = oe;
layers = (
{
layerId = "E50B3E3D-B4C5-41E4-9ECD-CCE241FA0330";
name = Regular;
paths = (
{
closed = 1;
nodes = (
"40 88 OFFCURVE",
"132 -12 OFFCURVE",
"280 -12 CURVE SMOOTH",
"361 -12 OFFCURVE",
"429 24 OFFCURVE",
"469 86 CURVE",
"506 24 OFFCURVE",
"571 -12 OFFCURVE",
"660 -12 CURVE SMOOTH",
"774 -12 OFFCURVE",
"855 61 OFFCURVE",
"868 148 CURVE",
"780 148 LINE",
"770 104 OFFCURVE",
"732 64 OFFCURVE",
"660 64 CURVE SMOOTH",
"575 64 OFFCURVE",
"520 130 OFFCURVE",
"516 232 CURVE",
"872 232 LINE",
"872 268 LINE SMOOTH",
"872 414 OFFCURVE",
"784 500 OFFCURVE",
"656 500 CURVE SMOOTH",
"578 500 OFFCURVE",
"513 463 OFFCURVE",
"473 400 CURVE",
"434 463 OFFCURVE",
"367 500 OFFCURVE",
"280 500 CURVE SMOOTH",
"140 500 OFFCURVE",
"40 400 OFFCURVE",
"40 244 CURVE SMOOTH"
);
},
{
closed = 1;
nodes = (
"132 352 OFFCURVE",
"192 424 OFFCURVE",
"280 424 CURVE SMOOTH",
"368 424 OFFCURVE",
"428 356 OFFCURVE",
"428 244 CURVE SMOOTH",
"428 136 OFFCURVE",
"368 64 OFFCURVE",
"280 64 CURVE SMOOTH",
"192 64 OFFCURVE",
"132 136 OFFCURVE",
"132 244 CURVE SMOOTH"
);
},
{
closed = 1;
nodes = (
"729 424 OFFCURVE",
"774 386 OFFCURVE",
"782 298 CURVE",
"521 298 LINE",
"538 375 OFFCURVE",
"590 424 OFFCURVE",
"656 424 CURVE SMOOTH"
);
}
);
width = 908;
}
);
leftKerningGroup = c;
rightKerningGroup = e;
unicode = 0153;
},
{
glyphname = germandbls;
layers = (
{
layerId = "E50B3E3D-B4C5-41E4-9ECD-CCE241FA0330";
name = Regular;
paths = (
{
closed = 1;
nodes = (
"76 0 LINE",
"164 0 LINE",
"164 512 LINE SMOOTH",
"164 626 OFFCURVE",
"213 672 OFFCURVE",
"288 672 CURVE SMOOTH",
"364 672 OFFCURVE",
"396 631 OFFCURVE",
"396 592 CURVE SMOOTH",
"396 512 OFFCURVE",
"292 504 OFFCURVE",
"292 400 CURVE SMOOTH",
"292 260 OFFCURVE",
"452 280 OFFCURVE",
"452 164 CURVE SMOOTH",
"452 104 OFFCURVE",
"407 72 OFFCURVE",
"340 72 CURVE SMOOTH",
"256 72 LINE",
"256 0 LINE",
"340 0 LINE SMOOTH",
"456 0 OFFCURVE",
"540 61 OFFCURVE",
"540 172 CURVE SMOOTH",
"540 320 OFFCURVE",
"372 332 OFFCURVE",
"372 408 CURVE SMOOTH",
"372 469 OFFCURVE",
"476 488 OFFCURVE",
"476 592 CURVE SMOOTH",
"476 669 OFFCURVE",
"420 744 OFFCURVE",
"292 744 CURVE SMOOTH",
"169 744 OFFCURVE",
"76 674 OFFCURVE",
"76 512 CURVE SMOOTH"
);
}
);
width = 568;
}
);
leftKerningGroup = b;
rightKerningGroup = germandbls;
unicode = 00DF;
},
{
glyphname = onesuperior;
layers = (
{
layerId = "E50B3E3D-B4C5-41E4-9ECD-CCE241FA0330";
name = Regular;
paths = (
{
closed = 1;
nodes = (
"72 702 LINE",
"152 748 LINE",
"152 560 LINE",
"52 560 LINE",
"52 496 LINE",
"320 496 LINE",
"320 560 LINE",
"228 560 LINE",
"228 840 LINE",
"180 840 LINE",
"40 756 LINE"
);
}
);
width = 352;
}
);
unicode = E105;
},
{
glyphname = logicalnot;
layers = (
{
layerId = "E50B3E3D-B4C5-41E4-9ECD-CCE241FA0330";
name = Regular;
paths = (
{
closed = 1;
nodes = (
"56 216 LINE",
"432 216 LINE",
"432 28 LINE",
"512 28 LINE",
"512 292 LINE",
"56 292 LINE"
);
}
);
width = 568;
}
);
unicode = 00AC;
},
{
glyphname = mu;
layers = (
{
layerId = "E50B3E3D-B4C5-41E4-9ECD-CCE241FA0330";
name = Regular;
paths = (
{
closed = 1;
nodes = (
"158 16 LINE",
"186 -3 OFFCURVE",
"220 -12 OFFCURVE",
"256 -12 CURVE SMOOTH",
"328 -12 OFFCURVE",
"376 16 OFFCURVE",
"404 72 CURVE",
"408 72 LINE",
"408 0 LINE",
"492 0 LINE",
"492 488 LINE",
"404 488 LINE",
"404 236 LINE SMOOTH",
"404 132 OFFCURVE",
"352 64 OFFCURVE",
"276 64 CURVE SMOOTH",
"204 64 OFFCURVE",
"164 100 OFFCURVE",
"164 204 CURVE SMOOTH",
"164 488 LINE",
"76 488 LINE",
"76 -220 LINE",
"164 -220 LINE",
"164 -144 LINE SMOOTH",
"164 -83 OFFCURVE",
"160 -48 OFFCURVE",
"152 16 CURVE"
);
}
);
width = 568;
}
);
unicode = 00B5;
},
{
glyphname = trademark;
layers = (
{
layerId = "E50B3E3D-B4C5-41E4-9ECD-CCE241FA0330";
name = Regular;
paths = (
{
closed = 1;
nodes = (
"360 344 LINE",
"432 344 LINE",
"428 592 LINE",
"432 592 LINE",
"532 344 LINE",
"592 344 LINE",
"692 592 LINE",
"696 592 LINE",
"692 344 LINE",
"764 344 LINE",
"764 688 LINE",
"664 688 LINE",
"564 440 LINE",
"560 440 LINE",
"460 688 LINE",
"360 688 LINE"
);
},
{
closed = 1;
nodes = (
"4 628 LINE",
"124 628 LINE",
"124 344 LINE",
"196 344 LINE",
"196 628 LINE",
"312 628 LINE",
"312 688 LINE",
"4 688 LINE"
);
}
);
width = 804;
}
);
leftKerningGroup = trademark;
unicode = 2122;
},
{
glyphname = Eth;
layers = (
{
layerId = "E50B3E3D-B4C5-41E4-9ECD-CCE241FA0330";
name = Regular;
paths = (
{
closed = 1;
nodes = (
"4 308 LINE",
"88 308 LINE",
"88 0 LINE",
"300 0 LINE SMOOTH",
"537 0 OFFCURVE",
"660 143 OFFCURVE",
"660 344 CURVE SMOOTH",
"660 545 OFFCURVE",
"537 688 OFFCURVE",
"300 688 CURVE SMOOTH",
"88 688 LINE",
"88 384 LINE",
"4 384 LINE"
);
},
{
closed = 1;
nodes = (
"300 608 LINE SMOOTH",
"493 608 OFFCURVE",
"564 484 OFFCURVE",
"564 344 CURVE SMOOTH",
"564 204 OFFCURVE",
"493 80 OFFCURVE",
"300 80 CURVE SMOOTH",
"180 80 LINE",
"180 308 LINE",
"340 308 LINE",
"340 384 LINE",
"180 384 LINE",
"180 608 LINE"
);
}
);
width = 704;
}
);
rightKerningGroup = D;
unicode = 00D0;
},
{
glyphname = onehalf;
layers = (
{
layerId = "E50B3E3D-B4C5-41E4-9ECD-CCE241FA0330";
name = Regular;
paths = (
{
closed = 1;
nodes = (
"736 0 LINE",
"736 64 LINE",
"544 64 LINE",
"544 78 OFFCURVE",
"571 101 OFFCURVE",
"600 115 CURVE SMOOTH",
"624 127 LINE SMOOTH",
"677 153 OFFCURVE",
"736 182 OFFCURVE",
"736 246 CURVE SMOOTH",
"736 315 OFFCURVE",
"680 352 OFFCURVE",
"600 352 CURVE SMOOTH",
"529 352 OFFCURVE",
"463 318 OFFCURVE",
"460 228 CURVE",
"532 228 LINE",
"535 269 OFFCURVE",
"560 292 OFFCURVE",
"600 292 CURVE SMOOTH",
"641 292 OFFCURVE",
"660 273 OFFCURVE",
"660 244 CURVE SMOOTH",
"660 220 OFFCURVE",
"630 200 OFFCURVE",
"592 181 CURVE SMOOTH",
"568 169 LINE SMOOTH",
"515 142 OFFCURVE",
"456 104 OFFCURVE",
"456 0 CURVE"
);
},
{
closed = 1;
nodes = (
"192 -12 LINE",
"260 -12 LINE",
"608 700 LINE",
"540 700 LINE"
);
},
{
closed = 1;
nodes = (
"72 550 LINE",
"152 596 LINE",
"152 408 LINE",
"52 408 LINE",
"52 344 LINE",
"320 344 LINE",
"320 408 LINE",
"228 408 LINE",
"228 688 LINE",
"180 688 LINE",
"40 604 LINE"
);
}
);
width = 776;
}
);
unicode = 00BD;
},
{
glyphname = plusminus;
layers = (
{
layerId = "E50B3E3D-B4C5-41E4-9ECD-CCE241FA0330";
name = Regular;
paths = (
{
closed = 1;
nodes = (
"56 316 LINE",
"244 316 LINE",
"244 142 LINE",
"324 142 LINE",
"324 316 LINE",
"512 316 LINE",
"512 392 LINE",
"324 392 LINE",
"324 566 LINE",
"244 566 LINE",
"244 392 LINE",
"56 392 LINE"
);
},
{
closed = 1;
nodes = (
"56 0 LINE",
"512 0 LINE",
"512 76 LINE",
"56 76 LINE"
);
}
);
width = 568;
}
);
unicode = 00B1;
},
{
glyphname = Thorn;
layers = (
{
layerId = "E50B3E3D-B4C5-41E4-9ECD-CCE241FA0330";
name = Regular;
paths = (
{
closed = 1;
nodes = (
"88 0 LINE",
"180 0 LINE",
"180 128 LINE",
"348 128 LINE SMOOTH",
"505 128 OFFCURVE",
"592 227 OFFCURVE",
"592 356 CURVE SMOOTH",
"592 485 OFFCURVE",
"505 576 OFFCURVE",
"348 576 CURVE SMOOTH",
"180 576 LINE",
"180 688 LINE",
"88 688 LINE"
);
},
{
closed = 1;
nodes = (
"352 496 LINE SMOOTH",
"452 496 OFFCURVE",
"500 436 OFFCURVE",
"500 356 CURVE SMOOTH",
"500 276 OFFCURVE",
"452 208 OFFCURVE",
"352 208 CURVE SMOOTH",
"180 208 LINE",
"180 496 LINE"
);
}
);
width = 636;
}
);
unicode = 00DE;
},
{
glyphname = onequarter;
layers = (
{
layerId = "E50B3E3D-B4C5-41E4-9ECD-CCE241FA0330";
name = Regular;
paths = (
{
closed = 1;
nodes = (
"448 64 LINE",
"624 64 LINE",
"624 0 LINE",
"700 0 LINE",
"700 64 LINE",
"748 64 LINE",
"748 124 LINE",
"700 124 LINE",
"700 344 LINE",
"636 344 LINE",
"448 112 LINE"
);
},
{
closed = 1;
nodes = (
"216 -12 LINE",
"284 -12 LINE",
"632 700 LINE",
"564 700 LINE"
);
},
{
closed = 1;
nodes = (
"72 550 LINE",
"152 596 LINE",
"152 408 LINE",
"52 408 LINE",
"52 344 LINE",
"320 344 LINE",
"320 408 LINE",
"228 408 LINE",
"228 688 LINE",
"180 688 LINE",
"40 604 LINE"
);
},
{
closed = 1;
nodes = (
"531 124 LINE",
"624 241 LINE",
"624 124 LINE"
);
}
);
width = 776;
}
);
unicode = 00BC;
},
{
glyphname = divide;
layers = (
{
layerId = "E50B3E3D-B4C5-41E4-9ECD-CCE241FA0330";
name = Regular;
paths = (
{
closed = 1;
nodes = (
"236 380 LINE",
"332 380 LINE",
"332 480 LINE",
"236 480 LINE"
);
},
{
closed = 1;
nodes = (
"56 216 LINE",
"512 216 LINE",
"512 292 LINE",
"56 292 LINE"
);
},
{
closed = 1;
nodes = (
"236 26 LINE",
"332 26 LINE",
"332 126 LINE",
"236 126 LINE"
);
}
);
width = 568;
}
);
unicode = 00F7;
},
{
glyphname = brokenbar;
layers = (
{
layerId = "E50B3E3D-B4C5-41E4-9ECD-CCE241FA0330";
name = Regular;
paths = (
{
closed = 1;
nodes = (
"88 336 LINE",
"168 336 LINE",
"168 688 LINE",
"88 688 LINE"
);
},
{
closed = 1;
nodes = (
"88 -164 LINE",
"168 -164 LINE",
"168 188 LINE",
"88 188 LINE"
);
}
);
width = 256;
}
);
unicode = 00A6;
},
{
glyphname = degree;
layers = (
{
layerId = "E50B3E3D-B4C5-41E4-9ECD-CCE241FA0330";
name = Regular;
paths = (
{
closed = 1;
nodes = (
"259 428 OFFCURVE",
"320 483 OFFCURVE",
"320 564 CURVE SMOOTH",
"320 645 OFFCURVE",
"259 700 OFFCURVE",
"180 700 CURVE SMOOTH",
"101 700 OFFCURVE",
"40 645 OFFCURVE",
"40 564 CURVE SMOOTH",
"40 483 OFFCURVE",
"101 428 OFFCURVE",
"180 428 CURVE SMOOTH"
);
},
{
closed = 1;
nodes = (
"219 636 OFFCURVE",
"248 607 OFFCURVE",
"248 564 CURVE SMOOTH",
"248 521 OFFCURVE",
"219 492 OFFCURVE",
"180 492 CURVE SMOOTH",
"141 492 OFFCURVE",
"112 521 OFFCURVE",
"112 564 CURVE SMOOTH",
"112 607 OFFCURVE",
"141 636 OFFCURVE",
"180 636 CURVE SMOOTH"
);
}
);
width = 360;
}
);
unicode = 00B0;
},
{
glyphname = thorn;
layers = (
{
layerId = "E50B3E3D-B4C5-41E4-9ECD-CCE241FA0330";
name = Regular;
paths = (
{
closed = 1;
nodes = (
"544 408 OFFCURVE",
"452 500 OFFCURVE",
"328 500 CURVE SMOOTH",
"260 500 OFFCURVE",
"196 476 OFFCURVE",
"164 412 CURVE",
"160 412 LINE",
"164 476 OFFCURVE",
"164 543 OFFCURVE",
"164 576 CURVE SMOOTH",
"164 732 LINE",
"76 732 LINE",
"76 -220 LINE",
"164 -220 LINE",
"164 -88 LINE SMOOTH",
"164 -55 OFFCURVE",
"164 12 OFFCURVE",
"160 76 CURVE",
"164 76 LINE",
"196 12 OFFCURVE",
"252 -12 OFFCURVE",
"320 -12 CURVE SMOOTH",
"444 -12 OFFCURVE",
"544 88 OFFCURVE",
"544 248 CURVE SMOOTH"
);
},
{
closed = 1;
nodes = (
"452 132 OFFCURVE",
"388 64 OFFCURVE",
"308 64 CURVE SMOOTH",
"228 64 OFFCURVE",
"164 128 OFFCURVE",
"164 244 CURVE SMOOTH",
"164 252 LINE SMOOTH",
"167 363 OFFCURVE",
"230 424 OFFCURVE",
"308 424 CURVE SMOOTH",
"388 424 OFFCURVE",
"452 364 OFFCURVE",
"452 248 CURVE SMOOTH"
);
}
);
width = 584;
}
);
leftKerningGroup = b;
rightKerningGroup = b;
unicode = 00FE;
},
{
glyphname = threequarters;
layers = (
{
layerId = "E50B3E3D-B4C5-41E4-9ECD-CCE241FA0330";
name = Regular;
paths = (
{
closed = 1;
nodes = (
"448 64 LINE",
"624 64 LINE",
"624 0 LINE",
"700 0 LINE",
"700 64 LINE",
"748 64 LINE",
"748 124 LINE",
"700 124 LINE",
"700 344 LINE",
"636 344 LINE",
"448 112 LINE"
);
},
{
closed = 1;
nodes = (
"34 448 LINE",
"34 367 OFFCURVE",
"92 336 OFFCURVE",
"176 336 CURVE SMOOTH",
"268 336 OFFCURVE",
"324 372 OFFCURVE",
"324 436 CURVE SMOOTH",
"324 480 OFFCURVE",
"296 512 OFFCURVE",
"256 521 CURVE",
"256 524 LINE",
"292 532 OFFCURVE",
"312 564 OFFCURVE",
"312 600 CURVE SMOOTH",
"312 656 OFFCURVE",
"260 696 OFFCURVE",
"180 696 CURVE SMOOTH",
"97 696 OFFCURVE",
"42 658 OFFCURVE",
"42 588 CURVE",
"114 588 LINE",
"114 619 OFFCURVE",
"138 640 OFFCURVE",
"176 640 CURVE SMOOTH",
"214 640 OFFCURVE",
"238 624 OFFCURVE",
"238 594 CURVE SMOOTH",
"238 564 OFFCURVE",
"214 548 OFFCURVE",
"176 548 CURVE SMOOTH",
"148 548 LINE",
"148 496 LINE",
"176 496 LINE SMOOTH",
"216 496 OFFCURVE",
"246 480 OFFCURVE",
"246 444 CURVE SMOOTH",
"246 408 OFFCURVE",
"216 392 OFFCURVE",
"176 392 CURVE SMOOTH",
"135 392 OFFCURVE",
"106 412 OFFCURVE",
"106 448 CURVE"
);
},
{
closed = 1;
nodes = (
"204 -12 LINE",
"272 -12 LINE",
"620 700 LINE",
"552 700 LINE"
);
},
{
closed = 1;
nodes = (
"531 124 LINE",
"624 241 LINE",
"624 124 LINE"
);
}
);
width = 776;
}
);
unicode = 00BE;
},
{
glyphname = twosuperior;
layers = (
{
layerId = "E50B3E3D-B4C5-41E4-9ECD-CCE241FA0330";
name = Regular;
paths = (
{
closed = 1;
nodes = (
"312 496 LINE",
"312 560 LINE",
"120 560 LINE",
"120 574 OFFCURVE",
"147 597 OFFCURVE",
"176 611 CURVE SMOOTH",
"200 623 LINE SMOOTH",
"253 649 OFFCURVE",
"312 678 OFFCURVE",
"312 742 CURVE SMOOTH",
"312 811 OFFCURVE",
"256 848 OFFCURVE",
"176 848 CURVE SMOOTH",
"105 848 OFFCURVE",
"39 814 OFFCURVE",
"36 724 CURVE",
"108 724 LINE",
"111 765 OFFCURVE",
"136 788 OFFCURVE",
"176 788 CURVE SMOOTH",
"217 788 OFFCURVE",
"236 769 OFFCURVE",
"236 740 CURVE SMOOTH",
"236 716 OFFCURVE",
"206 696 OFFCURVE",
"168 677 CURVE SMOOTH",
"144 665 LINE SMOOTH",
"91 638 OFFCURVE",
"32 600 OFFCURVE",
"32 496 CURVE"
);
}
);
width = 352;
}
);
unicode = E107;
},
{
glyphname = registered;
layers = (
{
layerId = "E50B3E3D-B4C5-41E4-9ECD-CCE241FA0330";
name = Regular;
paths = (
{
closed = 1;
nodes = (
"36 147 OFFCURVE",
"185 -12 OFFCURVE",
"388 -12 CURVE SMOOTH",
"591 -12 OFFCURVE",
"740 147 OFFCURVE",
"740 348 CURVE SMOOTH",
"740 549 OFFCURVE",
"587 700 OFFCURVE",
"388 700 CURVE SMOOTH",
"185 700 OFFCURVE",
"36 549 OFFCURVE",
"36 348 CURVE SMOOTH"
);
},
{
closed = 1;
nodes = (
"108 512 OFFCURVE",
"223 636 OFFCURVE",
"388 636 CURVE SMOOTH",
"553 636 OFFCURVE",
"668 512 OFFCURVE",
"668 348 CURVE SMOOTH",
"668 184 OFFCURVE",
"549 48 OFFCURVE",
"388 48 CURVE SMOOTH",
"223 48 OFFCURVE",
"108 184 OFFCURVE",
"108 348 CURVE SMOOTH"
);
},
{
closed = 1;
nodes = (
"248 176 LINE",
"320 176 LINE",
"320 300 LINE",
"393 300 LINE",
"470 176 LINE",
"548 176 LINE",
"460 309 LINE",
"505 326 OFFCURVE",
"536 365 OFFCURVE",
"536 412 CURVE SMOOTH",
"536 479 OFFCURVE",
"491 520 OFFCURVE",
"406 520 CURVE SMOOTH",
"248 520 LINE"
);
},
{
closed = 1;
nodes = (
"404 460 LINE SMOOTH",
"443 460 OFFCURVE",
"464 443 OFFCURVE",
"464 412 CURVE SMOOTH",
"464 380 OFFCURVE",
"444 360 OFFCURVE",
"404 360 CURVE SMOOTH",
"320 360 LINE",
"320 460 LINE"
);
}
);
width = 776;
}
);
unicode = 00AE;
},
{
glyphname = minus;
layers = (
{
layerId = "E50B3E3D-B4C5-41E4-9ECD-CCE241FA0330";
name = Regular;
paths = (
{
closed = 1;
nodes = (
"56 216 LINE",
"512 216 LINE",
"512 292 LINE",
"56 292 LINE"
);
}
);
width = 568;
}
);
unicode = 2212;
},
{
glyphname = eth;
layers = (
{
layerId = "E50B3E3D-B4C5-41E4-9ECD-CCE241FA0330";
name = Regular;
paths = (
{
closed = 1;
nodes = (
"204 520 LINE",
"314 596 LINE",
"373 550 OFFCURVE",
"409 491 OFFCURVE",
"433 408 CURVE",
"428 408 LINE",
"392 452 OFFCURVE",
"328 468 OFFCURVE",
"280 468 CURVE SMOOTH",
"152 468 OFFCURVE",
"44 368 OFFCURVE",
"44 228 CURVE SMOOTH",
"44 88 OFFCURVE",
"140 -12 OFFCURVE",
"288 -12 CURVE SMOOTH",
"428 -12 OFFCURVE",
"532 88 OFFCURVE",
"532 268 CURVE SMOOTH",
"532 271 LINE SMOOTH",
"532 463 OFFCURVE",
"472 568 OFFCURVE",
"379 640 CURVE",
"460 696 LINE",
"428 744 LINE",
"327 675 LINE",
"277 703 OFFCURVE",
"219 726 OFFCURVE",
"152 744 CURVE",
"132 680 LINE",
"183 665 OFFCURVE",
"226 649 OFFCURVE",
"262 630 CURVE",
"172 568 LINE"
);
},
{
closed = 1;
nodes = (
"136 324 OFFCURVE",
"200 392 OFFCURVE",
"288 392 CURVE SMOOTH",
"376 392 OFFCURVE",
"440 328 OFFCURVE",
"440 228 CURVE SMOOTH",
"440 132 OFFCURVE",
"376 64 OFFCURVE",
"288 64 CURVE SMOOTH",
"200 64 OFFCURVE",
"136 132 OFFCURVE",
"136 228 CURVE SMOOTH"
);
}
);
width = 576;
}
);
leftKerningGroup = c;
unicode = 00F0;
},
{
glyphname = multiply;
layers = (
{
layerId = "E50B3E3D-B4C5-41E4-9ECD-CCE241FA0330";
name = Regular;
paths = (
{
closed = 1;
nodes = (
"76 412 LINE",
"232 254 LINE",
"76 96 LINE",
"128 44 LINE",
"284 202 LINE",
"440 44 LINE",
"492 96 LINE",
"335 254 LINE",
"492 412 LINE",
"440 464 LINE",
"284 306 LINE",
"128 464 LINE"
);
}
);
width = 568;
}
);
unicode = 00D7;
},
{
glyphname = threesuperior;
layers = (
{
layerId = "E50B3E3D-B4C5-41E4-9ECD-CCE241FA0330";
name = Regular;
paths = (
{
closed = 1;
nodes = (
"34 600 LINE",
"34 519 OFFCURVE",
"92 488 OFFCURVE",
"176 488 CURVE SMOOTH",
"268 488 OFFCURVE",
"324 524 OFFCURVE",
"324 588 CURVE SMOOTH",
"324 632 OFFCURVE",
"296 664 OFFCURVE",
"256 673 CURVE",
"256 676 LINE",
"292 684 OFFCURVE",
"312 716 OFFCURVE",
"312 752 CURVE SMOOTH",
"312 808 OFFCURVE",
"260 848 OFFCURVE",
"180 848 CURVE SMOOTH",
"97 848 OFFCURVE",
"42 810 OFFCURVE",
"42 740 CURVE",
"114 740 LINE",
"114 771 OFFCURVE",
"138 792 OFFCURVE",
"176 792 CURVE SMOOTH",
"214 792 OFFCURVE",
"238 776 OFFCURVE",
"238 746 CURVE SMOOTH",
"238 716 OFFCURVE",
"214 700 OFFCURVE",
"176 700 CURVE SMOOTH",
"148 700 LINE",
"148 648 LINE",
"176 648 LINE SMOOTH",
"216 648 OFFCURVE",
"246 632 OFFCURVE",
"246 596 CURVE SMOOTH",
"246 560 OFFCURVE",
"216 544 OFFCURVE",
"176 544 CURVE SMOOTH",
"135 544 OFFCURVE",
"106 564 OFFCURVE",
"106 600 CURVE"
);
}
);
width = 352;
}
);
unicode = E108;
},
{
glyphname = copyright;
layers = (
{
layerId = "E50B3E3D-B4C5-41E4-9ECD-CCE241FA0330";
name = Regular;
paths = (
{
closed = 1;
nodes = (
"36 147 OFFCURVE",
"185 -12 OFFCURVE",
"388 -12 CURVE SMOOTH",
"591 -12 OFFCURVE",
"740 147 OFFCURVE",
"740 348 CURVE SMOOTH",
"740 549 OFFCURVE",
"587 700 OFFCURVE",
"388 700 CURVE SMOOTH",
"185 700 OFFCURVE",
"36 549 OFFCURVE",
"36 348 CURVE SMOOTH"
);
},
{
closed = 1;
nodes = (
"108 512 OFFCURVE",
"223 636 OFFCURVE",
"388 636 CURVE SMOOTH",
"553 636 OFFCURVE",
"668 512 OFFCURVE",
"668 348 CURVE SMOOTH",
"668 184 OFFCURVE",
"549 48 OFFCURVE",
"388 48 CURVE SMOOTH",
"223 48 OFFCURVE",
"108 184 OFFCURVE",
"108 348 CURVE SMOOTH"
);
},
{
closed = 1;
nodes = (
"216 251 OFFCURVE",
"282 172 OFFCURVE",
"388 172 CURVE SMOOTH",
"471 172 OFFCURVE",
"525 218 OFFCURVE",
"538 288 CURVE",
"468 288 LINE",
"458 254 OFFCURVE",
"435 232 OFFCURVE",
"388 232 CURVE SMOOTH",
"327 232 OFFCURVE",
"288 285 OFFCURVE",
"288 348 CURVE SMOOTH",
"288 411 OFFCURVE",
"327 464 OFFCURVE",
"388 464 CURVE SMOOTH",
"435 464 OFFCURVE",
"458 442 OFFCURVE",
"468 408 CURVE",
"538 408 LINE",
"525 478 OFFCURVE",
"471 524 OFFCURVE",
"388 524 CURVE SMOOTH",
"282 524 OFFCURVE",
"216 445 OFFCURVE",
"216 348 CURVE SMOOTH"
);
}
);
width = 776;
}
);
unicode = 00A9;
},
{
glyphname = Aacute;
layers = (
{
layerId = "E50B3E3D-B4C5-41E4-9ECD-CCE241FA0330";
name = Regular;
paths = (
{
closed = 1;
nodes = (
"12 0 LINE",
"104 0 LINE",
"169 180 LINE",
"471 180 LINE",
"536 0 LINE",
"632 0 LINE",
"376 688 LINE",
"268 688 LINE"
);
},
{
closed = 1;
nodes = (
"322 592 LINE",
"442 260 LINE",
"198 260 LINE",
"318 592 LINE"
);
},
{
closed = 1;
nodes = (
"288 768 LINE",
"352 768 LINE",
"496 932 LINE",
"392 932 LINE"
);
}
);
width = 644;
}
);
leftKerningGroup = A;
rightKerningGroup = A;
unicode = 00C1;
},
{
glyphname = Acircumflex;
layers = (
{
layerId = "E50B3E3D-B4C5-41E4-9ECD-CCE241FA0330";
name = Regular;
paths = (
{
closed = 1;
nodes = (
"12 0 LINE",
"104 0 LINE",
"169 180 LINE",
"471 180 LINE",
"536 0 LINE",
"632 0 LINE",
"376 688 LINE",
"268 688 LINE"
);
},
{
closed = 1;
nodes = (
"322 592 LINE",
"442 260 LINE",
"198 260 LINE",
"318 592 LINE"
);
},
{
closed = 1;
nodes = (
"152 768 LINE",
"236 768 LINE",
"320 880 LINE",
"404 768 LINE",
"488 768 LINE",
"360 932 LINE",
"280 932 LINE"
);
}
);
width = 644;
}
);
leftKerningGroup = A;
rightKerningGroup = A;
unicode = 00C2;
},
{
glyphname = Adieresis;
layers = (
{
layerId = "E50B3E3D-B4C5-41E4-9ECD-CCE241FA0330";
name = Regular;
paths = (
{
closed = 1;
nodes = (
"12 0 LINE",
"104 0 LINE",
"169 180 LINE",
"471 180 LINE",
"536 0 LINE",
"632 0 LINE",
"376 688 LINE",
"268 688 LINE"
);
},
{
closed = 1;
nodes = (
"322 592 LINE",
"442 260 LINE",
"198 260 LINE",
"318 592 LINE"
);
},
{
closed = 1;
nodes = (
"376 804 LINE",
"464 804 LINE",
"464 896 LINE",
"376 896 LINE"
);
},
{
closed = 1;
nodes = (
"176 804 LINE",
"264 804 LINE",
"264 896 LINE",
"176 896 LINE"
);
}
);
width = 644;
}
);
leftKerningGroup = A;
rightKerningGroup = A;
unicode = 00C4;
},
{
glyphname = Agrave;
layers = (
{
layerId = "E50B3E3D-B4C5-41E4-9ECD-CCE241FA0330";
name = Regular;
paths = (
{
closed = 1;
nodes = (
"12 0 LINE",
"104 0 LINE",
"169 180 LINE",
"471 180 LINE",
"536 0 LINE",
"632 0 LINE",
"376 688 LINE",
"268 688 LINE"
);
},
{
closed = 1;
nodes = (
"322 592 LINE",
"442 260 LINE",
"198 260 LINE",
"318 592 LINE"
);
},
{
closed = 1;
nodes = (
"288 768 LINE",
"352 768 LINE",
"248 932 LINE",
"144 932 LINE"
);
}
);
width = 644;
}
);
leftKerningGroup = A;
rightKerningGroup = A;
unicode = 00C0;
},
{
glyphname = Aring;
layers = (
{
layerId = "E50B3E3D-B4C5-41E4-9ECD-CCE241FA0330";
name = Regular;
paths = (
{
closed = 1;
nodes = (
"12 0 LINE",
"104 0 LINE",
"169 180 LINE",
"471 180 LINE",
"536 0 LINE",
"632 0 LINE",
"376 688 LINE",
"268 688 LINE"
);
},
{
closed = 1;
nodes = (
"322 592 LINE",
"442 260 LINE",
"198 260 LINE",
"318 592 LINE"
);
},
{
closed = 1;
nodes = (
"373 764 OFFCURVE",
"420 803 OFFCURVE",
"420 860 CURVE SMOOTH",
"420 917 OFFCURVE",
"373 956 OFFCURVE",
"320 956 CURVE SMOOTH",
"267 956 OFFCURVE",
"220 917 OFFCURVE",
"220 860 CURVE SMOOTH",
"220 803 OFFCURVE",
"267 764 OFFCURVE",
"320 764 CURVE SMOOTH"
);
},
{
closed = 1;
nodes = (
"291 808 OFFCURVE",
"268 831 OFFCURVE",
"268 860 CURVE SMOOTH",
"268 889 OFFCURVE",
"291 912 OFFCURVE",
"320 912 CURVE SMOOTH",
"349 912 OFFCURVE",
"372 889 OFFCURVE",
"372 860 CURVE SMOOTH",
"372 831 OFFCURVE",
"349 808 OFFCURVE",
"320 808 CURVE SMOOTH"
);
}
);
width = 644;
}
);
leftKerningGroup = A;
rightKerningGroup = A;
unicode = 00C5;
},
{
glyphname = Atilde;
layers = (
{
layerId = "E50B3E3D-B4C5-41E4-9ECD-CCE241FA0330";
name = Regular;
paths = (
{
closed = 1;
nodes = (
"12 0 LINE",
"104 0 LINE",
"169 180 LINE",
"471 180 LINE",
"536 0 LINE",
"632 0 LINE",
"376 688 LINE",
"268 688 LINE"
);
},
{
closed = 1;
nodes = (
"322 592 LINE",
"442 260 LINE",
"198 260 LINE",
"318 592 LINE"
);
},
{
closed = 1;
nodes = (
"204 796 LINE",
"208 819 OFFCURVE",
"220 844 OFFCURVE",
"248 844 CURVE SMOOTH",
"283 844 OFFCURVE",
"329 796 OFFCURVE",
"388 796 CURVE SMOOTH",
"449 796 OFFCURVE",
"481 844 OFFCURVE",
"484 904 CURVE",
"436 904 LINE",
"432 881 OFFCURVE",
"420 856 OFFCURVE",
"392 856 CURVE SMOOTH",
"357 856 OFFCURVE",
"311 904 OFFCURVE",
"252 904 CURVE SMOOTH",
"191 904 OFFCURVE",
"159 856 OFFCURVE",
"156 796 CURVE"
);
}
);
width = 644;
}
);
leftKerningGroup = A;
rightKerningGroup = A;
unicode = 00C3;
},
{
glyphname = Ccedilla;
layers = (
{
layerId = "E50B3E3D-B4C5-41E4-9ECD-CCE241FA0330";
name = Regular;
paths = (
{
closed = 1;
nodes = (
"328 -84 LINE",
"360 -84 LINE SMOOTH",
"392 -84 OFFCURVE",
"412 -96 OFFCURVE",
"412 -124 CURVE SMOOTH",
"412 -156 OFFCURVE",
"392 -164 OFFCURVE",
"360 -164 CURVE SMOOTH",
"308 -164 LINE",
"308 -220 LINE",
"364 -220 LINE SMOOTH",
"441 -220 OFFCURVE",
"480 -180 OFFCURVE",
"480 -124 CURVE SMOOTH",
"480 -77 OFFCURVE",
"448 -40 OFFCURVE",
"388 -36 CURVE",
"388 -12 LINE",
"540 -6 OFFCURVE",
"641 85 OFFCURVE",
"668 216 CURVE",
"573 216 LINE",
"547 123 OFFCURVE",
"486 72 OFFCURVE",
"372 72 CURVE SMOOTH",
"235 72 OFFCURVE",
"140 188 OFFCURVE",
"140 344 CURVE SMOOTH",
"140 504 OFFCURVE",
"235 616 OFFCURVE",
"376 616 CURVE SMOOTH",
"482 616 OFFCURVE",
"547 565 OFFCURVE",
"573 472 CURVE",
"668 472 LINE",
"640 607 OFFCURVE",
"537 700 OFFCURVE",
"376 700 CURVE SMOOTH",
"179 700 OFFCURVE",
"44 549 OFFCURVE",
"44 344 CURVE SMOOTH",
"44 142 OFFCURVE",
"169 -1 OFFCURVE",
"352 -11 CURVE"
);
}
);
width = 712;
}
);
leftKerningGroup = C;
rightKerningGroup = C;
unicode = 00C7;
},
{
glyphname = Eacute;
layers = (
{
layerId = "E50B3E3D-B4C5-41E4-9ECD-CCE241FA0330";
name = Regular;
paths = (
{
closed = 1;
nodes = (
"88 0 LINE",
"560 0 LINE",
"560 80 LINE",
"180 80 LINE",
"180 310 LINE",
"476 310 LINE",
"476 390 LINE",
"180 390 LINE",
"180 608 LINE",
"552 608 LINE",
"552 688 LINE",
"88 688 LINE"
);
},
{
closed = 1;
nodes = (
"288 768 LINE",
"352 768 LINE",
"496 932 LINE",
"392 932 LINE"
);
}
);
width = 612;
}
);
rightKerningGroup = E;
unicode = 00C9;
},
{
glyphname = Ecircumflex;
layers = (
{
layerId = "E50B3E3D-B4C5-41E4-9ECD-CCE241FA0330";
name = Regular;
paths = (
{
closed = 1;
nodes = (
"88 0 LINE",
"560 0 LINE",
"560 80 LINE",
"180 80 LINE",
"180 310 LINE",
"476 310 LINE",
"476 390 LINE",
"180 390 LINE",
"180 608 LINE",
"552 608 LINE",
"552 688 LINE",
"88 688 LINE"
);
},
{
closed = 1;
nodes = (
"152 768 LINE",
"236 768 LINE",
"320 880 LINE",
"404 768 LINE",
"488 768 LINE",
"360 932 LINE",
"280 932 LINE"
);
}
);
width = 612;
}
);
rightKerningGroup = E;
unicode = 00CA;
},
{
glyphname = Edieresis;
layers = (
{
layerId = "E50B3E3D-B4C5-41E4-9ECD-CCE241FA0330";
name = Regular;
paths = (
{
closed = 1;
nodes = (
"88 0 LINE",
"560 0 LINE",
"560 80 LINE",
"180 80 LINE",
"180 310 LINE",
"476 310 LINE",
"476 390 LINE",
"180 390 LINE",
"180 608 LINE",
"552 608 LINE",
"552 688 LINE",
"88 688 LINE"
);
},
{
closed = 1;
nodes = (
"376 804 LINE",
"464 804 LINE",
"464 896 LINE",
"376 896 LINE"
);
},
{
closed = 1;
nodes = (
"176 804 LINE",
"264 804 LINE",
"264 896 LINE",
"176 896 LINE"
);
}
);
width = 612;
}
);
rightKerningGroup = E;
unicode = 00CB;
},
{
glyphname = Egrave;
layers = (
{
layerId = "E50B3E3D-B4C5-41E4-9ECD-CCE241FA0330";
name = Regular;
paths = (
{
closed = 1;
nodes = (
"88 0 LINE",
"560 0 LINE",
"560 80 LINE",
"180 80 LINE",
"180 310 LINE",
"476 310 LINE",
"476 390 LINE",
"180 390 LINE",
"180 608 LINE",
"552 608 LINE",
"552 688 LINE",
"88 688 LINE"
);
},
{
closed = 1;
nodes = (
"288 768 LINE",
"352 768 LINE",
"248 932 LINE",
"144 932 LINE"
);
}
);
width = 612;
}
);
rightKerningGroup = E;
unicode = 00C8;
},
{
glyphname = Iacute;
layers = (
{
layerId = "E50B3E3D-B4C5-41E4-9ECD-CCE241FA0330";
name = Regular;
paths = (
{
closed = 1;
nodes = (
"88 0 LINE",
"180 0 LINE",
"180 688 LINE",
"88 688 LINE"
);
},
{
closed = 1;
nodes = (
"102 768 LINE",
"166 768 LINE",
"310 932 LINE",
"206 932 LINE"
);
}
);
width = 268;
}
);
unicode = 00CD;
},
{
glyphname = Icircumflex;
layers = (
{
layerId = "E50B3E3D-B4C5-41E4-9ECD-CCE241FA0330";
name = Regular;
paths = (
{
closed = 1;
nodes = (
"88 0 LINE",
"180 0 LINE",
"180 688 LINE",
"88 688 LINE"
);
},
{
closed = 1;
nodes = (
"-34 768 LINE",
"50 768 LINE",
"134 880 LINE",
"218 768 LINE",
"302 768 LINE",
"174 932 LINE",
"94 932 LINE"
);
}
);
width = 268;
}
);
unicode = 00CE;
},
{
glyphname = Idieresis;
layers = (
{
layerId = "E50B3E3D-B4C5-41E4-9ECD-CCE241FA0330";
name = Regular;
paths = (
{
closed = 1;
nodes = (
"88 0 LINE",
"180 0 LINE",
"180 688 LINE",
"88 688 LINE"
);
},
{
closed = 1;
nodes = (
"190 804 LINE",
"278 804 LINE",
"278 896 LINE",
"190 896 LINE"
);
},
{
closed = 1;
nodes = (
"-10 804 LINE",
"78 804 LINE",
"78 896 LINE",
"-10 896 LINE"
);
}
);
width = 268;
}
);
unicode = 00CF;
},
{
glyphname = Igrave;
layers = (
{
layerId = "E50B3E3D-B4C5-41E4-9ECD-CCE241FA0330";
name = Regular;
paths = (
{
closed = 1;
nodes = (
"88 0 LINE",
"180 0 LINE",
"180 688 LINE",
"88 688 LINE"
);
},
{
closed = 1;
nodes = (
"102 768 LINE",
"166 768 LINE",
"62 932 LINE",
"-42 932 LINE"
);
}
);
width = 268;
}
);
unicode = 00CC;
},
{
glyphname = Ntilde;
layers = (
{
layerId = "E50B3E3D-B4C5-41E4-9ECD-CCE241FA0330";
name = Regular;
paths = (
{
closed = 1;
nodes = (
"88 0 LINE",
"180 0 LINE",
"176 528 LINE",
"180 528 LINE",
"560 0 LINE",
"648 0 LINE",
"648 688 LINE",
"556 688 LINE",
"560 156 LINE",
"556 156 LINE",
"176 688 LINE",
"88 688 LINE"
);
},
{
closed = 1;
nodes = (
"252 796 LINE",
"256 819 OFFCURVE",
"268 844 OFFCURVE",
"296 844 CURVE SMOOTH",
"331 844 OFFCURVE",
"377 796 OFFCURVE",
"436 796 CURVE SMOOTH",
"497 796 OFFCURVE",
"529 844 OFFCURVE",
"532 904 CURVE",
"484 904 LINE",
"480 881 OFFCURVE",
"468 856 OFFCURVE",
"440 856 CURVE SMOOTH",
"405 856 OFFCURVE",
"359 904 OFFCURVE",
"300 904 CURVE SMOOTH",
"239 904 OFFCURVE",
"207 856 OFFCURVE",
"204 796 CURVE"
);
}
);
width = 736;
}
);
unicode = 00D1;
},
{
glyphname = Oacute;
layers = (
{
layerId = "E50B3E3D-B4C5-41E4-9ECD-CCE241FA0330";
name = Regular;
paths = (
{
closed = 1;
nodes = (
"44 139 OFFCURVE",
"179 -12 OFFCURVE",
"380 -12 CURVE SMOOTH",
"577 -12 OFFCURVE",
"716 139 OFFCURVE",
"716 344 CURVE SMOOTH",
"716 549 OFFCURVE",
"577 700 OFFCURVE",
"380 700 CURVE SMOOTH",
"179 700 OFFCURVE",
"44 549 OFFCURVE",
"44 344 CURVE SMOOTH"
);
},
{
closed = 1;
nodes = (
"140 500 OFFCURVE",
"235 616 OFFCURVE",
"380 616 CURVE SMOOTH",
"525 616 OFFCURVE",
"620 500 OFFCURVE",
"620 344 CURVE SMOOTH",
"620 188 OFFCURVE",
"525 72 OFFCURVE",
"380 72 CURVE SMOOTH",
"235 72 OFFCURVE",
"140 188 OFFCURVE",
"140 344 CURVE SMOOTH"
);
},
{
closed = 1;
nodes = (
"348 768 LINE",
"412 768 LINE",
"556 932 LINE",
"452 932 LINE"
);
}
);
width = 760;
}
);
leftKerningGroup = C;
rightKerningGroup = D;
unicode = 00D3;
},
{
glyphname = Ocircumflex;
layers = (
{
layerId = "E50B3E3D-B4C5-41E4-9ECD-CCE241FA0330";
name = Regular;
paths = (
{
closed = 1;
nodes = (
"44 139 OFFCURVE",
"179 -12 OFFCURVE",
"380 -12 CURVE SMOOTH",
"577 -12 OFFCURVE",
"716 139 OFFCURVE",
"716 344 CURVE SMOOTH",
"716 549 OFFCURVE",
"577 700 OFFCURVE",
"380 700 CURVE SMOOTH",
"179 700 OFFCURVE",
"44 549 OFFCURVE",
"44 344 CURVE SMOOTH"
);
},
{
closed = 1;
nodes = (
"140 500 OFFCURVE",
"235 616 OFFCURVE",
"380 616 CURVE SMOOTH",
"525 616 OFFCURVE",
"620 500 OFFCURVE",
"620 344 CURVE SMOOTH",
"620 188 OFFCURVE",
"525 72 OFFCURVE",
"380 72 CURVE SMOOTH",
"235 72 OFFCURVE",
"140 188 OFFCURVE",
"140 344 CURVE SMOOTH"
);
},
{
closed = 1;
nodes = (
"212 768 LINE",
"296 768 LINE",
"380 880 LINE",
"464 768 LINE",
"548 768 LINE",
"420 932 LINE",
"340 932 LINE"
);
}
);
width = 760;
}
);
leftKerningGroup = C;
rightKerningGroup = D;
unicode = 00D4;
},
{
glyphname = Odieresis;
layers = (
{
layerId = "E50B3E3D-B4C5-41E4-9ECD-CCE241FA0330";
name = Regular;
paths = (
{
closed = 1;
nodes = (
"44 139 OFFCURVE",
"179 -12 OFFCURVE",
"380 -12 CURVE SMOOTH",
"577 -12 OFFCURVE",
"716 139 OFFCURVE",
"716 344 CURVE SMOOTH",
"716 549 OFFCURVE",
"577 700 OFFCURVE",
"380 700 CURVE SMOOTH",
"179 700 OFFCURVE",
"44 549 OFFCURVE",
"44 344 CURVE SMOOTH"
);
},
{
closed = 1;
nodes = (
"140 500 OFFCURVE",
"235 616 OFFCURVE",
"380 616 CURVE SMOOTH",
"525 616 OFFCURVE",
"620 500 OFFCURVE",
"620 344 CURVE SMOOTH",
"620 188 OFFCURVE",
"525 72 OFFCURVE",
"380 72 CURVE SMOOTH",
"235 72 OFFCURVE",
"140 188 OFFCURVE",
"140 344 CURVE SMOOTH"
);
},
{
closed = 1;
nodes = (
"436 804 LINE",
"524 804 LINE",
"524 896 LINE",
"436 896 LINE"
);
},
{
closed = 1;
nodes = (
"236 804 LINE",
"324 804 LINE",
"324 896 LINE",
"236 896 LINE"
);
}
);
width = 760;
}
);
leftKerningGroup = C;
rightKerningGroup = D;
unicode = 00D6;
},
{
glyphname = Ograve;
layers = (
{
layerId = "E50B3E3D-B4C5-41E4-9ECD-CCE241FA0330";
name = Regular;
paths = (
{
closed = 1;
nodes = (
"44 139 OFFCURVE",
"179 -12 OFFCURVE",
"380 -12 CURVE SMOOTH",
"577 -12 OFFCURVE",
"716 139 OFFCURVE",
"716 344 CURVE SMOOTH",
"716 549 OFFCURVE",
"577 700 OFFCURVE",
"380 700 CURVE SMOOTH",
"179 700 OFFCURVE",
"44 549 OFFCURVE",
"44 344 CURVE SMOOTH"
);
},
{
closed = 1;
nodes = (
"140 500 OFFCURVE",
"235 616 OFFCURVE",
"380 616 CURVE SMOOTH",
"525 616 OFFCURVE",
"620 500 OFFCURVE",
"620 344 CURVE SMOOTH",
"620 188 OFFCURVE",
"525 72 OFFCURVE",
"380 72 CURVE SMOOTH",
"235 72 OFFCURVE",
"140 188 OFFCURVE",
"140 344 CURVE SMOOTH"
);
},
{
closed = 1;
nodes = (
"348 768 LINE",
"412 768 LINE",
"308 932 LINE",
"204 932 LINE"
);
}
);
width = 760;
}
);
leftKerningGroup = C;
rightKerningGroup = D;
unicode = 00D2;
},
{
glyphname = Otilde;
layers = (
{
layerId = "E50B3E3D-B4C5-41E4-9ECD-CCE241FA0330";
name = Regular;
paths = (
{
closed = 1;
nodes = (
"44 139 OFFCURVE",
"179 -12 OFFCURVE",
"380 -12 CURVE SMOOTH",
"577 -12 OFFCURVE",
"716 139 OFFCURVE",
"716 344 CURVE SMOOTH",
"716 549 OFFCURVE",
"577 700 OFFCURVE",
"380 700 CURVE SMOOTH",
"179 700 OFFCURVE",
"44 549 OFFCURVE",
"44 344 CURVE SMOOTH"
);
},
{
closed = 1;
nodes = (
"140 500 OFFCURVE",
"235 616 OFFCURVE",
"380 616 CURVE SMOOTH",
"525 616 OFFCURVE",
"620 500 OFFCURVE",
"620 344 CURVE SMOOTH",
"620 188 OFFCURVE",
"525 72 OFFCURVE",
"380 72 CURVE SMOOTH",
"235 72 OFFCURVE",
"140 188 OFFCURVE",
"140 344 CURVE SMOOTH"
);
},
{
closed = 1;
nodes = (
"264 796 LINE",
"268 819 OFFCURVE",
"280 844 OFFCURVE",
"308 844 CURVE SMOOTH",
"343 844 OFFCURVE",
"389 796 OFFCURVE",
"448 796 CURVE SMOOTH",
"509 796 OFFCURVE",
"541 844 OFFCURVE",
"544 904 CURVE",
"496 904 LINE",
"492 881 OFFCURVE",
"480 856 OFFCURVE",
"452 856 CURVE SMOOTH",
"417 856 OFFCURVE",
"371 904 OFFCURVE",
"312 904 CURVE SMOOTH",
"251 904 OFFCURVE",
"219 856 OFFCURVE",
"216 796 CURVE"
);
}
);
width = 760;
}
);
leftKerningGroup = C;
rightKerningGroup = D;
unicode = 00D5;
},
{
glyphname = Scaron;
layers = (
{
layerId = "E50B3E3D-B4C5-41E4-9ECD-CCE241FA0330";
name = Regular;
paths = (
{
closed = 1;
nodes = (
"56 196 LINE",
"56 72 OFFCURVE",
"152 -12 OFFCURVE",
"320 -12 CURVE SMOOTH",
"492 -12 OFFCURVE",
"592 72 OFFCURVE",
"592 196 CURVE SMOOTH",
"592 470 OFFCURVE",
"160 328 OFFCURVE",
"160 508 CURVE SMOOTH",
"160 585 OFFCURVE",
"231 624 OFFCURVE",
"320 624 CURVE SMOOTH",
"412 624 OFFCURVE",
"480 580 OFFCURVE",
"480 504 CURVE",
"572 504 LINE",
"572 627 OFFCURVE",
"468 700 OFFCURVE",
"320 700 CURVE SMOOTH",
"167 700 OFFCURVE",
"66 617 OFFCURVE",
"66 500 CURVE SMOOTH",
"66 236 OFFCURVE",
"496 374 OFFCURVE",
"496 192 CURVE SMOOTH",
"496 111 OFFCURVE",
"432 64 OFFCURVE",
"320 64 CURVE SMOOTH",
"212 64 OFFCURVE",
"148 121 OFFCURVE",
"148 196 CURVE"
);
},
{
closed = 1;
nodes = (
"280 768 LINE",
"360 768 LINE",
"488 932 LINE",
"404 932 LINE",
"320 820 LINE",
"236 932 LINE",
"152 932 LINE"
);
}
);
width = 648;
}
);
leftKerningGroup = S;
rightKerningGroup = S;
unicode = 0160;
},
{
glyphname = Uacute;
layers = (
{
layerId = "E50B3E3D-B4C5-41E4-9ECD-CCE241FA0330";
name = Regular;
paths = (
{
closed = 1;
nodes = (
"72 272 LINE SMOOTH",
"72 68 OFFCURVE",
"185 -12 OFFCURVE",
"348 -12 CURVE SMOOTH",
"511 -12 OFFCURVE",
"624 68 OFFCURVE",
"624 272 CURVE SMOOTH",
"624 688 LINE",
"532 688 LINE",
"532 272 LINE SMOOTH",
"532 146 OFFCURVE",
"473 72 OFFCURVE",
"348 72 CURVE SMOOTH",
"223 72 OFFCURVE",
"164 146 OFFCURVE",
"164 272 CURVE SMOOTH",
"164 688 LINE",
"72 688 LINE"
);
},
{
closed = 1;
nodes = (
"316 768 LINE",
"380 768 LINE",
"524 932 LINE",
"420 932 LINE"
);
}
);
width = 696;
}
);
leftKerningGroup = U;
rightKerningGroup = U;
unicode = 00DA;
},
{
glyphname = Ucircumflex;
layers = (
{
layerId = "E50B3E3D-B4C5-41E4-9ECD-CCE241FA0330";
name = Regular;
paths = (
{
closed = 1;
nodes = (
"72 272 LINE SMOOTH",
"72 68 OFFCURVE",
"185 -12 OFFCURVE",
"348 -12 CURVE SMOOTH",
"511 -12 OFFCURVE",
"624 68 OFFCURVE",
"624 272 CURVE SMOOTH",
"624 688 LINE",
"532 688 LINE",
"532 272 LINE SMOOTH",
"532 146 OFFCURVE",
"473 72 OFFCURVE",
"348 72 CURVE SMOOTH",
"223 72 OFFCURVE",
"164 146 OFFCURVE",
"164 272 CURVE SMOOTH",
"164 688 LINE",
"72 688 LINE"
);
},
{
closed = 1;
nodes = (
"180 768 LINE",
"264 768 LINE",
"348 880 LINE",
"432 768 LINE",
"516 768 LINE",
"388 932 LINE",
"308 932 LINE"
);
}
);
width = 696;
}
);
leftKerningGroup = U;
rightKerningGroup = U;
unicode = 00DB;
},
{
glyphname = Udieresis;
layers = (
{
layerId = "E50B3E3D-B4C5-41E4-9ECD-CCE241FA0330";
name = Regular;
paths = (
{
closed = 1;
nodes = (
"72 272 LINE SMOOTH",
"72 68 OFFCURVE",
"185 -12 OFFCURVE",
"348 -12 CURVE SMOOTH",
"511 -12 OFFCURVE",
"624 68 OFFCURVE",
"624 272 CURVE SMOOTH",
"624 688 LINE",
"532 688 LINE",
"532 272 LINE SMOOTH",
"532 146 OFFCURVE",
"473 72 OFFCURVE",
"348 72 CURVE SMOOTH",
"223 72 OFFCURVE",
"164 146 OFFCURVE",
"164 272 CURVE SMOOTH",
"164 688 LINE",
"72 688 LINE"
);
},
{
closed = 1;
nodes = (
"404 804 LINE",
"492 804 LINE",
"492 896 LINE",
"404 896 LINE"
);
},
{
closed = 1;
nodes = (
"204 804 LINE",
"292 804 LINE",
"292 896 LINE",
"204 896 LINE"
);
}
);
width = 696;
}
);
leftKerningGroup = U;
rightKerningGroup = U;
unicode = 00DC;
},
{
glyphname = Ugrave;
layers = (
{
layerId = "E50B3E3D-B4C5-41E4-9ECD-CCE241FA0330";
name = Regular;
paths = (
{
closed = 1;
nodes = (
"72 272 LINE SMOOTH",
"72 68 OFFCURVE",
"185 -12 OFFCURVE",
"348 -12 CURVE SMOOTH",
"511 -12 OFFCURVE",
"624 68 OFFCURVE",
"624 272 CURVE SMOOTH",
"624 688 LINE",
"532 688 LINE",
"532 272 LINE SMOOTH",
"532 146 OFFCURVE",
"473 72 OFFCURVE",
"348 72 CURVE SMOOTH",
"223 72 OFFCURVE",
"164 146 OFFCURVE",
"164 272 CURVE SMOOTH",
"164 688 LINE",
"72 688 LINE"
);
},
{
closed = 1;
nodes = (
"316 768 LINE",
"380 768 LINE",
"276 932 LINE",
"172 932 LINE"
);
}
);
width = 696;
}
);
leftKerningGroup = U;
rightKerningGroup = U;
unicode = 00D9;
},
{
glyphname = Yacute;
layers = (
{
layerId = "E50B3E3D-B4C5-41E4-9ECD-CCE241FA0330";
name = Regular;
paths = (
{
closed = 1;
nodes = (
"256 0 LINE",
"348 0 LINE",
"348 277 LINE",
"596 688 LINE",
"500 688 LINE",
"306 364 LINE",
"302 364 LINE",
"116 688 LINE",
"12 688 LINE",
"256 270 LINE"
);
},
{
closed = 1;
nodes = (
"272 768 LINE",
"336 768 LINE",
"480 932 LINE",
"376 932 LINE"
);
}
);
width = 608;
}
);
leftKerningGroup = Y;
rightKerningGroup = Y;
unicode = 00DD;
},
{
glyphname = Ydieresis;
layers = (
{
layerId = "E50B3E3D-B4C5-41E4-9ECD-CCE241FA0330";
name = Regular;
paths = (
{
closed = 1;
nodes = (
"256 0 LINE",
"348 0 LINE",
"348 277 LINE",
"596 688 LINE",
"500 688 LINE",
"306 364 LINE",
"302 364 LINE",
"116 688 LINE",
"12 688 LINE",
"256 270 LINE"
);
},
{
closed = 1;
nodes = (
"360 804 LINE",
"448 804 LINE",
"448 896 LINE",
"360 896 LINE"
);
},
{
closed = 1;
nodes = (
"160 804 LINE",
"248 804 LINE",
"248 896 LINE",
"160 896 LINE"
);
}
);
width = 608;
}
);
leftKerningGroup = Y;
rightKerningGroup = Y;
unicode = 0178;
},
{
glyphname = Zcaron;
layers = (
{
layerId = "E50B3E3D-B4C5-41E4-9ECD-CCE241FA0330";
name = Regular;
paths = (
{
closed = 1;
nodes = (
"56 610 LINE",
"433 610 LINE",
"36 60 LINE",
"36 0 LINE",
"544 0 LINE",
"544 78 LINE",
"151 78 LINE",
"548 628 LINE",
"548 688 LINE",
"56 688 LINE"
);
},
{
closed = 1;
nodes = (
"252 768 LINE",
"332 768 LINE",
"460 932 LINE",
"376 932 LINE",
"292 820 LINE",
"208 932 LINE",
"124 932 LINE"
);
}
);
width = 584;
}
);
leftKerningGroup = Z;
rightKerningGroup = Z;
unicode = 017D;
},
{
glyphname = aacute;
layers = (
{
layerId = "E50B3E3D-B4C5-41E4-9ECD-CCE241FA0330";
name = Regular;
paths = (
{
closed = 1;
nodes = (
"48 42 OFFCURVE",
"108 -12 OFFCURVE",
"212 -12 CURVE SMOOTH",
"283 -12 OFFCURVE",
"340 14 OFFCURVE",
"368 65 CURVE",
"372 65 LINE",
"372 0 LINE",
"456 0 LINE",
"456 320 LINE SMOOTH",
"456 432 OFFCURVE",
"392 500 OFFCURVE",
"264 500 CURVE SMOOTH",
"141 500 OFFCURVE",
"72 428 OFFCURVE",
"68 336 CURVE",
"152 336 LINE",
"156 390 OFFCURVE",
"193 428 OFFCURVE",
"264 428 CURVE SMOOTH",
"333 428 OFFCURVE",
"368 387 OFFCURVE",
"368 328 CURVE SMOOTH",
"368 305 OFFCURVE",
"356 299 OFFCURVE",
"304 290 CURVE SMOOTH",
"208 274 LINE SMOOTH",
"94 254 OFFCURVE",
"48 205 OFFCURVE",
"48 124 CURVE SMOOTH"
);
},
{
closed = 1;
nodes = (
"368 204 LINE SMOOTH",
"368 108 OFFCURVE",
"304 60 OFFCURVE",
"228 60 CURVE SMOOTH",
"166 60 OFFCURVE",
"136 90 OFFCURVE",
"136 132 CURVE SMOOTH",
"136 174 OFFCURVE",
"160 201 OFFCURVE",
"224 212 CURVE SMOOTH",
"316 228 LINE SMOOTH",
"340 232 OFFCURVE",
"358 239 OFFCURVE",
"368 251 CURVE"
);
},
{
closed = 1;
nodes = (
"220 568 LINE",
"284 568 LINE",
"428 732 LINE",
"324 732 LINE"
);
}
);
width = 524;
}
);
leftKerningGroup = a;
rightKerningGroup = a;
unicode = 00E1;
},
{
glyphname = acircumflex;
layers = (
{
layerId = "E50B3E3D-B4C5-41E4-9ECD-CCE241FA0330";
name = Regular;
paths = (
{
closed = 1;
nodes = (
"48 42 OFFCURVE",
"108 -12 OFFCURVE",
"212 -12 CURVE SMOOTH",
"283 -12 OFFCURVE",
"340 14 OFFCURVE",
"368 65 CURVE",
"372 65 LINE",
"372 0 LINE",
"456 0 LINE",
"456 320 LINE SMOOTH",
"456 432 OFFCURVE",
"392 500 OFFCURVE",
"264 500 CURVE SMOOTH",
"141 500 OFFCURVE",
"72 428 OFFCURVE",
"68 336 CURVE",
"152 336 LINE",
"156 390 OFFCURVE",
"193 428 OFFCURVE",
"264 428 CURVE SMOOTH",
"333 428 OFFCURVE",
"368 387 OFFCURVE",
"368 328 CURVE SMOOTH",
"368 305 OFFCURVE",
"356 299 OFFCURVE",
"304 290 CURVE SMOOTH",
"208 274 LINE SMOOTH",
"94 254 OFFCURVE",
"48 205 OFFCURVE",
"48 124 CURVE SMOOTH"
);
},
{
closed = 1;
nodes = (
"368 204 LINE SMOOTH",
"368 108 OFFCURVE",
"304 60 OFFCURVE",
"228 60 CURVE SMOOTH",
"166 60 OFFCURVE",
"136 90 OFFCURVE",
"136 132 CURVE SMOOTH",
"136 174 OFFCURVE",
"160 201 OFFCURVE",
"224 212 CURVE SMOOTH",
"316 228 LINE SMOOTH",
"340 232 OFFCURVE",
"358 239 OFFCURVE",
"368 251 CURVE"
);
},
{
closed = 1;
nodes = (
"92 568 LINE",
"176 568 LINE",
"260 680 LINE",
"344 568 LINE",
"428 568 LINE",
"300 732 LINE",
"220 732 LINE"
);
}
);
width = 524;
}
);
leftKerningGroup = a;
rightKerningGroup = a;
unicode = 00E2;
},
{
glyphname = adieresis;
layers = (
{
layerId = "E50B3E3D-B4C5-41E4-9ECD-CCE241FA0330";
name = Regular;
paths = (
{
closed = 1;
nodes = (
"48 42 OFFCURVE",
"108 -12 OFFCURVE",
"212 -12 CURVE SMOOTH",
"283 -12 OFFCURVE",
"340 14 OFFCURVE",
"368 65 CURVE",
"372 65 LINE",
"372 0 LINE",
"456 0 LINE",
"456 320 LINE SMOOTH",
"456 432 OFFCURVE",
"392 500 OFFCURVE",
"264 500 CURVE SMOOTH",
"141 500 OFFCURVE",
"72 428 OFFCURVE",
"68 336 CURVE",
"152 336 LINE",
"156 390 OFFCURVE",
"193 428 OFFCURVE",
"264 428 CURVE SMOOTH",
"333 428 OFFCURVE",
"368 387 OFFCURVE",
"368 328 CURVE SMOOTH",
"368 305 OFFCURVE",
"356 299 OFFCURVE",
"304 290 CURVE SMOOTH",
"208 274 LINE SMOOTH",
"94 254 OFFCURVE",
"48 205 OFFCURVE",
"48 124 CURVE SMOOTH"
);
},
{
closed = 1;
nodes = (
"368 204 LINE SMOOTH",
"368 108 OFFCURVE",
"304 60 OFFCURVE",
"228 60 CURVE SMOOTH",
"166 60 OFFCURVE",
"136 90 OFFCURVE",
"136 132 CURVE SMOOTH",
"136 174 OFFCURVE",
"160 201 OFFCURVE",
"224 212 CURVE SMOOTH",
"316 228 LINE SMOOTH",
"340 232 OFFCURVE",
"358 239 OFFCURVE",
"368 251 CURVE"
);
},
{
closed = 1;
nodes = (
"316 604 LINE",
"404 604 LINE",
"404 696 LINE",
"316 696 LINE"
);
},
{
closed = 1;
nodes = (
"116 604 LINE",
"204 604 LINE",
"204 696 LINE",
"116 696 LINE"
);
}
);
width = 524;
}
);
leftKerningGroup = a;
rightKerningGroup = a;
unicode = 00E4;
},
{
glyphname = agrave;
layers = (
{
layerId = "E50B3E3D-B4C5-41E4-9ECD-CCE241FA0330";
name = Regular;
paths = (
{
closed = 1;
nodes = (
"48 42 OFFCURVE",
"108 -12 OFFCURVE",
"212 -12 CURVE SMOOTH",
"283 -12 OFFCURVE",
"340 14 OFFCURVE",
"368 65 CURVE",
"372 65 LINE",
"372 0 LINE",
"456 0 LINE",
"456 320 LINE SMOOTH",
"456 432 OFFCURVE",
"392 500 OFFCURVE",
"264 500 CURVE SMOOTH",
"141 500 OFFCURVE",
"72 428 OFFCURVE",
"68 336 CURVE",
"152 336 LINE",
"156 390 OFFCURVE",
"193 428 OFFCURVE",
"264 428 CURVE SMOOTH",
"333 428 OFFCURVE",
"368 387 OFFCURVE",
"368 328 CURVE SMOOTH",
"368 305 OFFCURVE",
"356 299 OFFCURVE",
"304 290 CURVE SMOOTH",
"208 274 LINE SMOOTH",
"94 254 OFFCURVE",
"48 205 OFFCURVE",
"48 124 CURVE SMOOTH"
);
},
{
closed = 1;
nodes = (
"368 204 LINE SMOOTH",
"368 108 OFFCURVE",
"304 60 OFFCURVE",
"228 60 CURVE SMOOTH",
"166 60 OFFCURVE",
"136 90 OFFCURVE",
"136 132 CURVE SMOOTH",
"136 174 OFFCURVE",
"160 201 OFFCURVE",
"224 212 CURVE SMOOTH",
"316 228 LINE SMOOTH",
"340 232 OFFCURVE",
"358 239 OFFCURVE",
"368 251 CURVE"
);
},
{
closed = 1;
nodes = (
"236 568 LINE",
"300 568 LINE",
"196 732 LINE",
"92 732 LINE"
);
}
);
width = 524;
}
);
leftKerningGroup = a;
rightKerningGroup = a;
unicode = 00E0;
},
{
glyphname = aring;
layers = (
{
layerId = "E50B3E3D-B4C5-41E4-9ECD-CCE241FA0330";
name = Regular;
paths = (
{
closed = 1;
nodes = (
"48 42 OFFCURVE",
"108 -12 OFFCURVE",
"212 -12 CURVE SMOOTH",
"283 -12 OFFCURVE",
"340 14 OFFCURVE",
"368 65 CURVE",
"372 65 LINE",
"372 0 LINE",
"456 0 LINE",
"456 320 LINE SMOOTH",
"456 432 OFFCURVE",
"392 500 OFFCURVE",
"264 500 CURVE SMOOTH",
"141 500 OFFCURVE",
"72 428 OFFCURVE",
"68 336 CURVE",
"152 336 LINE",
"156 390 OFFCURVE",
"193 428 OFFCURVE",
"264 428 CURVE SMOOTH",
"333 428 OFFCURVE",
"368 387 OFFCURVE",
"368 328 CURVE SMOOTH",
"368 305 OFFCURVE",
"356 299 OFFCURVE",
"304 290 CURVE SMOOTH",
"208 274 LINE SMOOTH",
"94 254 OFFCURVE",
"48 205 OFFCURVE",
"48 124 CURVE SMOOTH"
);
},
{
closed = 1;
nodes = (
"368 204 LINE SMOOTH",
"368 108 OFFCURVE",
"304 60 OFFCURVE",
"228 60 CURVE SMOOTH",
"166 60 OFFCURVE",
"136 90 OFFCURVE",
"136 132 CURVE SMOOTH",
"136 174 OFFCURVE",
"160 201 OFFCURVE",
"224 212 CURVE SMOOTH",
"316 228 LINE SMOOTH",
"340 232 OFFCURVE",
"358 239 OFFCURVE",
"368 251 CURVE"
);
},
{
closed = 1;
nodes = (
"313 564 OFFCURVE",
"360 603 OFFCURVE",
"360 660 CURVE SMOOTH",
"360 717 OFFCURVE",
"313 756 OFFCURVE",
"260 756 CURVE SMOOTH",
"207 756 OFFCURVE",
"160 717 OFFCURVE",
"160 660 CURVE SMOOTH",
"160 603 OFFCURVE",
"207 564 OFFCURVE",
"260 564 CURVE SMOOTH"
);
},
{
closed = 1;
nodes = (
"231 608 OFFCURVE",
"208 631 OFFCURVE",
"208 660 CURVE SMOOTH",
"208 689 OFFCURVE",
"231 712 OFFCURVE",
"260 712 CURVE SMOOTH",
"289 712 OFFCURVE",
"312 689 OFFCURVE",
"312 660 CURVE SMOOTH",
"312 631 OFFCURVE",
"289 608 OFFCURVE",
"260 608 CURVE SMOOTH"
);
}
);
width = 524;
}
);
leftKerningGroup = a;
rightKerningGroup = a;
unicode = 00E5;
},
{
glyphname = atilde;
layers = (
{
layerId = "E50B3E3D-B4C5-41E4-9ECD-CCE241FA0330";
name = Regular;
paths = (
{
closed = 1;
nodes = (
"48 42 OFFCURVE",
"108 -12 OFFCURVE",
"212 -12 CURVE SMOOTH",
"283 -12 OFFCURVE",
"340 14 OFFCURVE",
"368 65 CURVE",
"372 65 LINE",
"372 0 LINE",
"456 0 LINE",
"456 320 LINE SMOOTH",
"456 432 OFFCURVE",
"392 500 OFFCURVE",
"264 500 CURVE SMOOTH",
"141 500 OFFCURVE",
"72 428 OFFCURVE",
"68 336 CURVE",
"152 336 LINE",
"156 390 OFFCURVE",
"193 428 OFFCURVE",
"264 428 CURVE SMOOTH",
"333 428 OFFCURVE",
"368 387 OFFCURVE",
"368 328 CURVE SMOOTH",
"368 305 OFFCURVE",
"356 299 OFFCURVE",
"304 290 CURVE SMOOTH",
"208 274 LINE SMOOTH",
"94 254 OFFCURVE",
"48 205 OFFCURVE",
"48 124 CURVE SMOOTH"
);
},
{
closed = 1;
nodes = (
"368 204 LINE SMOOTH",
"368 108 OFFCURVE",
"304 60 OFFCURVE",
"228 60 CURVE SMOOTH",
"166 60 OFFCURVE",
"136 90 OFFCURVE",
"136 132 CURVE SMOOTH",
"136 174 OFFCURVE",
"160 201 OFFCURVE",
"224 212 CURVE SMOOTH",
"316 228 LINE SMOOTH",
"340 232 OFFCURVE",
"358 239 OFFCURVE",
"368 251 CURVE"
);
},
{
closed = 1;
nodes = (
"144 596 LINE",
"148 619 OFFCURVE",
"160 644 OFFCURVE",
"188 644 CURVE SMOOTH",
"223 644 OFFCURVE",
"269 596 OFFCURVE",
"328 596 CURVE SMOOTH",
"389 596 OFFCURVE",
"421 644 OFFCURVE",
"424 704 CURVE",
"376 704 LINE",
"372 681 OFFCURVE",
"360 656 OFFCURVE",
"332 656 CURVE SMOOTH",
"297 656 OFFCURVE",
"251 704 OFFCURVE",
"192 704 CURVE SMOOTH",
"131 704 OFFCURVE",
"99 656 OFFCURVE",
"96 596 CURVE"
);
}
);
width = 524;
}
);
leftKerningGroup = a;
rightKerningGroup = a;
unicode = 00E3;
},
{
glyphname = ccedilla;
layers = (
{
layerId = "E50B3E3D-B4C5-41E4-9ECD-CCE241FA0330";
name = Regular;
paths = (
{
closed = 1;
nodes = (
"228 -84 LINE",
"260 -84 LINE SMOOTH",
"292 -84 OFFCURVE",
"312 -96 OFFCURVE",
"312 -124 CURVE SMOOTH",
"312 -156 OFFCURVE",
"292 -164 OFFCURVE",
"260 -164 CURVE SMOOTH",
"208 -164 LINE",
"208 -220 LINE",
"264 -220 LINE SMOOTH",
"341 -220 OFFCURVE",
"380 -180 OFFCURVE",
"380 -124 CURVE SMOOTH",
"380 -77 OFFCURVE",
"348 -40 OFFCURVE",
"288 -36 CURVE",
"288 -11 LINE",
"404 -5 OFFCURVE",
"471 67 OFFCURVE",
"484 164 CURVE",
"396 164 LINE",
"386 108 OFFCURVE",
"348 64 OFFCURVE",
"272 64 CURVE SMOOTH",
"192 64 OFFCURVE",
"132 136 OFFCURVE",
"132 244 CURVE SMOOTH",
"132 352 OFFCURVE",
"192 424 OFFCURVE",
"272 424 CURVE SMOOTH",
"348 424 OFFCURVE",
"386 380 OFFCURVE",
"396 324 CURVE",
"484 324 LINE",
"471 425 OFFCURVE",
"398 500 OFFCURVE",
"272 500 CURVE SMOOTH",
"140 500 OFFCURVE",
"40 400 OFFCURVE",
"40 244 CURVE SMOOTH",
"40 95 OFFCURVE",
"120 -2 OFFCURVE",
"252 -11 CURVE"
);
}
);
width = 516;
}
);
leftKerningGroup = c;
rightKerningGroup = c;
unicode = 00E7;
},
{
glyphname = eacute;
layers = (
{
layerId = "E50B3E3D-B4C5-41E4-9ECD-CCE241FA0330";
name = Regular;
paths = (
{
closed = 1;
nodes = (
"40 88 OFFCURVE",
"124 -12 OFFCURVE",
"276 -12 CURVE SMOOTH",
"390 -12 OFFCURVE",
"471 61 OFFCURVE",
"484 148 CURVE",
"396 148 LINE",
"386 104 OFFCURVE",
"348 64 OFFCURVE",
"276 64 CURVE SMOOTH",
"191 64 OFFCURVE",
"136 130 OFFCURVE",
"132 232 CURVE",
"488 232 LINE",
"488 268 LINE SMOOTH",
"488 414 OFFCURVE",
"400 500 OFFCURVE",
"272 500 CURVE SMOOTH",
"140 500 OFFCURVE",
"40 396 OFFCURVE",
"40 244 CURVE SMOOTH"
);
},
{
closed = 1;
nodes = (
"345 424 OFFCURVE",
"390 386 OFFCURVE",
"398 298 CURVE",
"137 298 LINE",
"153 377 OFFCURVE",
"206 424 OFFCURVE",
"272 424 CURVE SMOOTH"
);
},
{
closed = 1;
nodes = (
"240 568 LINE",
"304 568 LINE",
"448 732 LINE",
"344 732 LINE"
);
}
);
width = 524;
}
);
leftKerningGroup = c;
rightKerningGroup = e;
unicode = 00E9;
},
{
glyphname = ecircumflex;
layers = (
{
layerId = "E50B3E3D-B4C5-41E4-9ECD-CCE241FA0330";
name = Regular;
paths = (
{
closed = 1;
nodes = (
"40 88 OFFCURVE",
"124 -12 OFFCURVE",
"276 -12 CURVE SMOOTH",
"390 -12 OFFCURVE",
"471 61 OFFCURVE",
"484 148 CURVE",
"396 148 LINE",
"386 104 OFFCURVE",
"348 64 OFFCURVE",
"276 64 CURVE SMOOTH",
"191 64 OFFCURVE",
"136 130 OFFCURVE",
"132 232 CURVE",
"488 232 LINE",
"488 268 LINE SMOOTH",
"488 414 OFFCURVE",
"400 500 OFFCURVE",
"272 500 CURVE SMOOTH",
"140 500 OFFCURVE",
"40 396 OFFCURVE",
"40 244 CURVE SMOOTH"
);
},
{
closed = 1;
nodes = (
"345 424 OFFCURVE",
"390 386 OFFCURVE",
"398 298 CURVE",
"137 298 LINE",
"153 377 OFFCURVE",
"206 424 OFFCURVE",
"272 424 CURVE SMOOTH"
);
},
{
closed = 1;
nodes = (
"104 568 LINE",
"188 568 LINE",
"272 680 LINE",
"356 568 LINE",
"440 568 LINE",
"312 732 LINE",
"232 732 LINE"
);
}
);
width = 524;
}
);
leftKerningGroup = c;
rightKerningGroup = e;
unicode = 00EA;
},
{
glyphname = edieresis;
layers = (
{
layerId = "E50B3E3D-B4C5-41E4-9ECD-CCE241FA0330";
name = Regular;
paths = (
{
closed = 1;
nodes = (
"40 88 OFFCURVE",
"124 -12 OFFCURVE",
"276 -12 CURVE SMOOTH",
"390 -12 OFFCURVE",
"471 61 OFFCURVE",
"484 148 CURVE",
"396 148 LINE",
"386 104 OFFCURVE",
"348 64 OFFCURVE",
"276 64 CURVE SMOOTH",
"191 64 OFFCURVE",
"136 130 OFFCURVE",
"132 232 CURVE",
"488 232 LINE",
"488 268 LINE SMOOTH",
"488 414 OFFCURVE",
"400 500 OFFCURVE",
"272 500 CURVE SMOOTH",
"140 500 OFFCURVE",
"40 396 OFFCURVE",
"40 244 CURVE SMOOTH"
);
},
{
closed = 1;
nodes = (
"345 424 OFFCURVE",
"390 386 OFFCURVE",
"398 298 CURVE",
"137 298 LINE",
"153 377 OFFCURVE",
"206 424 OFFCURVE",
"272 424 CURVE SMOOTH"
);
},
{
closed = 1;
nodes = (
"328 604 LINE",
"416 604 LINE",
"416 696 LINE",
"328 696 LINE"
);
},
{
closed = 1;
nodes = (
"128 604 LINE",
"216 604 LINE",
"216 696 LINE",
"128 696 LINE"
);
}
);
width = 524;
}
);
leftKerningGroup = c;
rightKerningGroup = e;
unicode = 00EB;
},
{
glyphname = egrave;
layers = (
{
layerId = "E50B3E3D-B4C5-41E4-9ECD-CCE241FA0330";
name = Regular;
paths = (
{
closed = 1;
nodes = (
"40 88 OFFCURVE",
"124 -12 OFFCURVE",
"276 -12 CURVE SMOOTH",
"390 -12 OFFCURVE",
"471 61 OFFCURVE",
"484 148 CURVE",
"396 148 LINE",
"386 104 OFFCURVE",
"348 64 OFFCURVE",
"276 64 CURVE SMOOTH",
"191 64 OFFCURVE",
"136 130 OFFCURVE",
"132 232 CURVE",
"488 232 LINE",
"488 268 LINE SMOOTH",
"488 414 OFFCURVE",
"400 500 OFFCURVE",
"272 500 CURVE SMOOTH",
"140 500 OFFCURVE",
"40 396 OFFCURVE",
"40 244 CURVE SMOOTH"
);
},
{
closed = 1;
nodes = (
"345 424 OFFCURVE",
"390 386 OFFCURVE",
"398 298 CURVE",
"137 298 LINE",
"153 377 OFFCURVE",
"206 424 OFFCURVE",
"272 424 CURVE SMOOTH"
);
},
{
closed = 1;
nodes = (
"240 568 LINE",
"304 568 LINE",
"200 732 LINE",
"96 732 LINE"
);
}
);
width = 524;
}
);
leftKerningGroup = c;
rightKerningGroup = e;
unicode = 00E8;
},
{
glyphname = iacute;
layers = (
{
layerId = "E50B3E3D-B4C5-41E4-9ECD-CCE241FA0330";
name = Regular;
paths = (
{
closed = 1;
nodes = (
"76 0 LINE",
"164 0 LINE",
"164 488 LINE",
"76 488 LINE"
);
},
{
closed = 1;
nodes = (
"88 568 LINE",
"152 568 LINE",
"296 732 LINE",
"192 732 LINE"
);
}
);
width = 240;
}
);
leftKerningGroup = b;
unicode = 00ED;
},
{
glyphname = icircumflex;
layers = (
{
layerId = "E50B3E3D-B4C5-41E4-9ECD-CCE241FA0330";
name = Regular;
paths = (
{
closed = 1;
nodes = (
"76 0 LINE",
"164 0 LINE",
"164 488 LINE",
"76 488 LINE"
);
},
{
closed = 1;
nodes = (
"-48 568 LINE",
"36 568 LINE",
"120 680 LINE",
"204 568 LINE",
"288 568 LINE",
"160 732 LINE",
"80 732 LINE"
);
}
);
width = 240;
}
);
leftKerningGroup = b;
unicode = 00EE;
},
{
glyphname = idieresis;
layers = (
{
layerId = "E50B3E3D-B4C5-41E4-9ECD-CCE241FA0330";
name = Regular;
paths = (
{
closed = 1;
nodes = (
"76 0 LINE",
"164 0 LINE",
"164 488 LINE",
"76 488 LINE"
);
},
{
closed = 1;
nodes = (
"176 604 LINE",
"264 604 LINE",
"264 696 LINE",
"176 696 LINE"
);
},
{
closed = 1;
nodes = (
"-24 604 LINE",
"64 604 LINE",
"64 696 LINE",
"-24 696 LINE"
);
}
);
width = 240;
}
);
leftKerningGroup = b;
unicode = 00EF;
},
{
glyphname = igrave;
layers = (
{
layerId = "E50B3E3D-B4C5-41E4-9ECD-CCE241FA0330";
name = Regular;
paths = (
{
closed = 1;
nodes = (
"76 0 LINE",
"164 0 LINE",
"164 488 LINE",
"76 488 LINE"
);
},
{
closed = 1;
nodes = (
"88 568 LINE",
"152 568 LINE",
"48 732 LINE",
"-56 732 LINE"
);
}
);
width = 240;
}
);
leftKerningGroup = b;
unicode = 00EC;
},
{
glyphname = ntilde;
layers = (
{
layerId = "E50B3E3D-B4C5-41E4-9ECD-CCE241FA0330";
name = Regular;
paths = (
{
closed = 1;
nodes = (
"76 0 LINE",
"164 0 LINE",
"164 253 LINE SMOOTH",
"164 359 OFFCURVE",
"222 424 OFFCURVE",
"296 424 CURVE SMOOTH",
"364 424 OFFCURVE",
"408 388 OFFCURVE",
"408 284 CURVE SMOOTH",
"408 0 LINE",
"496 0 LINE",
"496 296 LINE SMOOTH",
"496 448 OFFCURVE",
"412 500 OFFCURVE",
"316 500 CURVE SMOOTH",
"244 500 OFFCURVE",
"192 472 OFFCURVE",
"164 416 CURVE",
"160 416 LINE",
"160 488 LINE",
"76 488 LINE"
);
},
{
closed = 1;
nodes = (
"168 596 LINE",
"172 619 OFFCURVE",
"184 644 OFFCURVE",
"212 644 CURVE SMOOTH",
"247 644 OFFCURVE",
"293 596 OFFCURVE",
"352 596 CURVE SMOOTH",
"413 596 OFFCURVE",
"445 644 OFFCURVE",
"448 704 CURVE",
"400 704 LINE",
"396 681 OFFCURVE",
"384 656 OFFCURVE",
"356 656 CURVE SMOOTH",
"321 656 OFFCURVE",
"275 704 OFFCURVE",
"216 704 CURVE SMOOTH",
"155 704 OFFCURVE",
"123 656 OFFCURVE",
"120 596 CURVE"
);
}
);
width = 564;
}
);
leftKerningGroup = m;
rightKerningGroup = a;
unicode = 00F1;
},
{
glyphname = oacute;
layers = (
{
layerId = "E50B3E3D-B4C5-41E4-9ECD-CCE241FA0330";
name = Regular;
paths = (
{
closed = 1;
nodes = (
"40 88 OFFCURVE",
"132 -12 OFFCURVE",
"280 -12 CURVE SMOOTH",
"420 -12 OFFCURVE",
"520 88 OFFCURVE",
"520 244 CURVE SMOOTH",
"520 400 OFFCURVE",
"428 500 OFFCURVE",
"280 500 CURVE SMOOTH",
"140 500 OFFCURVE",
"40 400 OFFCURVE",
"40 244 CURVE SMOOTH"
);
},
{
closed = 1;
nodes = (
"132 352 OFFCURVE",
"192 424 OFFCURVE",
"280 424 CURVE SMOOTH",
"368 424 OFFCURVE",
"428 356 OFFCURVE",
"428 244 CURVE SMOOTH",
"428 136 OFFCURVE",
"368 64 OFFCURVE",
"280 64 CURVE SMOOTH",
"192 64 OFFCURVE",
"132 136 OFFCURVE",
"132 244 CURVE SMOOTH"
);
},
{
closed = 1;
nodes = (
"248 568 LINE",
"312 568 LINE",
"456 732 LINE",
"352 732 LINE"
);
}
);
width = 560;
}
);
leftKerningGroup = c;
rightKerningGroup = b;
unicode = 00F3;
},
{
glyphname = ocircumflex;
layers = (
{
layerId = "E50B3E3D-B4C5-41E4-9ECD-CCE241FA0330";
name = Regular;
paths = (
{
closed = 1;
nodes = (
"40 88 OFFCURVE",
"132 -12 OFFCURVE",
"280 -12 CURVE SMOOTH",
"420 -12 OFFCURVE",
"520 88 OFFCURVE",
"520 244 CURVE SMOOTH",
"520 400 OFFCURVE",
"428 500 OFFCURVE",
"280 500 CURVE SMOOTH",
"140 500 OFFCURVE",
"40 400 OFFCURVE",
"40 244 CURVE SMOOTH"
);
},
{
closed = 1;
nodes = (
"132 352 OFFCURVE",
"192 424 OFFCURVE",
"280 424 CURVE SMOOTH",
"368 424 OFFCURVE",
"428 356 OFFCURVE",
"428 244 CURVE SMOOTH",
"428 136 OFFCURVE",
"368 64 OFFCURVE",
"280 64 CURVE SMOOTH",
"192 64 OFFCURVE",
"132 136 OFFCURVE",
"132 244 CURVE SMOOTH"
);
},
{
closed = 1;
nodes = (
"112 568 LINE",
"196 568 LINE",
"280 680 LINE",
"364 568 LINE",
"448 568 LINE",
"320 732 LINE",
"240 732 LINE"
);
}
);
width = 560;
}
);
leftKerningGroup = c;
rightKerningGroup = b;
unicode = 00F4;
},
{
glyphname = odieresis;
layers = (
{
layerId = "E50B3E3D-B4C5-41E4-9ECD-CCE241FA0330";
name = Regular;
paths = (
{
closed = 1;
nodes = (
"40 88 OFFCURVE",
"132 -12 OFFCURVE",
"280 -12 CURVE SMOOTH",
"420 -12 OFFCURVE",
"520 88 OFFCURVE",
"520 244 CURVE SMOOTH",
"520 400 OFFCURVE",
"428 500 OFFCURVE",
"280 500 CURVE SMOOTH",
"140 500 OFFCURVE",
"40 400 OFFCURVE",
"40 244 CURVE SMOOTH"
);
},
{
closed = 1;
nodes = (
"132 352 OFFCURVE",
"192 424 OFFCURVE",
"280 424 CURVE SMOOTH",
"368 424 OFFCURVE",
"428 356 OFFCURVE",
"428 244 CURVE SMOOTH",
"428 136 OFFCURVE",
"368 64 OFFCURVE",
"280 64 CURVE SMOOTH",
"192 64 OFFCURVE",
"132 136 OFFCURVE",
"132 244 CURVE SMOOTH"
);
},
{
closed = 1;
nodes = (
"336 604 LINE",
"424 604 LINE",
"424 696 LINE",
"336 696 LINE"
);
},
{
closed = 1;
nodes = (
"136 604 LINE",
"224 604 LINE",
"224 696 LINE",
"136 696 LINE"
);
}
);
width = 560;
}
);
leftKerningGroup = c;
rightKerningGroup = b;
unicode = 00F6;
},
{
glyphname = ograve;
layers = (
{
layerId = "E50B3E3D-B4C5-41E4-9ECD-CCE241FA0330";
name = Regular;
paths = (
{
closed = 1;
nodes = (
"40 88 OFFCURVE",
"132 -12 OFFCURVE",
"280 -12 CURVE SMOOTH",
"420 -12 OFFCURVE",
"520 88 OFFCURVE",
"520 244 CURVE SMOOTH",
"520 400 OFFCURVE",
"428 500 OFFCURVE",
"280 500 CURVE SMOOTH",
"140 500 OFFCURVE",
"40 400 OFFCURVE",
"40 244 CURVE SMOOTH"
);
},
{
closed = 1;
nodes = (
"132 352 OFFCURVE",
"192 424 OFFCURVE",
"280 424 CURVE SMOOTH",
"368 424 OFFCURVE",
"428 356 OFFCURVE",
"428 244 CURVE SMOOTH",
"428 136 OFFCURVE",
"368 64 OFFCURVE",
"280 64 CURVE SMOOTH",
"192 64 OFFCURVE",
"132 136 OFFCURVE",
"132 244 CURVE SMOOTH"
);
},
{
closed = 1;
nodes = (
"248 568 LINE",
"312 568 LINE",
"208 732 LINE",
"104 732 LINE"
);
}
);
width = 560;
}
);
leftKerningGroup = c;
rightKerningGroup = b;
unicode = 00F2;
},
{
glyphname = otilde;
layers = (
{
layerId = "E50B3E3D-B4C5-41E4-9ECD-CCE241FA0330";
name = Regular;
paths = (
{
closed = 1;
nodes = (
"40 88 OFFCURVE",
"132 -12 OFFCURVE",
"280 -12 CURVE SMOOTH",
"420 -12 OFFCURVE",
"520 88 OFFCURVE",
"520 244 CURVE SMOOTH",
"520 400 OFFCURVE",
"428 500 OFFCURVE",
"280 500 CURVE SMOOTH",
"140 500 OFFCURVE",
"40 400 OFFCURVE",
"40 244 CURVE SMOOTH"
);
},
{
closed = 1;
nodes = (
"132 352 OFFCURVE",
"192 424 OFFCURVE",
"280 424 CURVE SMOOTH",
"368 424 OFFCURVE",
"428 356 OFFCURVE",
"428 244 CURVE SMOOTH",
"428 136 OFFCURVE",
"368 64 OFFCURVE",
"280 64 CURVE SMOOTH",
"192 64 OFFCURVE",
"132 136 OFFCURVE",
"132 244 CURVE SMOOTH"
);
},
{
closed = 1;
nodes = (
"164 596 LINE",
"168 619 OFFCURVE",
"180 644 OFFCURVE",
"208 644 CURVE SMOOTH",
"243 644 OFFCURVE",
"289 596 OFFCURVE",
"348 596 CURVE SMOOTH",
"409 596 OFFCURVE",
"441 644 OFFCURVE",
"444 704 CURVE",
"396 704 LINE",
"392 681 OFFCURVE",
"380 656 OFFCURVE",
"352 656 CURVE SMOOTH",
"317 656 OFFCURVE",
"271 704 OFFCURVE",
"212 704 CURVE SMOOTH",
"151 704 OFFCURVE",
"119 656 OFFCURVE",
"116 596 CURVE"
);
}
);
width = 560;
}
);
leftKerningGroup = c;
rightKerningGroup = b;
unicode = 00F5;
},
{
glyphname = scaron;
layers = (
{
layerId = "E50B3E3D-B4C5-41E4-9ECD-CCE241FA0330";
name = Regular;
paths = (
{
closed = 1;
nodes = (
"40 140 LINE",
"40 40 OFFCURVE",
"124 -12 OFFCURVE",
"240 -12 CURVE SMOOTH",
"364 -12 OFFCURVE",
"448 41 OFFCURVE",
"448 144 CURVE SMOOTH",
"448 232 OFFCURVE",
"386 262 OFFCURVE",
"312 275 CURVE SMOOTH",
"220 291 LINE SMOOTH",
"162 301 OFFCURVE",
"136 320 OFFCURVE",
"136 356 CURVE SMOOTH",
"136 406 OFFCURVE",
"184 432 OFFCURVE",
"244 432 CURVE SMOOTH",
"308 432 OFFCURVE",
"352 404 OFFCURVE",
"352 352 CURVE",
"436 352 LINE",
"436 456 OFFCURVE",
"348 500 OFFCURVE",
"244 500 CURVE SMOOTH",
"136 500 OFFCURVE",
"50 444 OFFCURVE",
"50 348 CURVE SMOOTH",
"50 254 OFFCURVE",
"126 227 OFFCURVE",
"192 216 CURVE SMOOTH",
"284 200 LINE SMOOTH",
"334 191 OFFCURVE",
"360 174 OFFCURVE",
"360 136 CURVE SMOOTH",
"360 86 OFFCURVE",
"321 56 OFFCURVE",
"240 56 CURVE SMOOTH",
"183 56 OFFCURVE",
"124 82 OFFCURVE",
"124 140 CURVE"
);
},
{
closed = 1;
nodes = (
"204 568 LINE",
"284 568 LINE",
"412 732 LINE",
"328 732 LINE",
"244 620 LINE",
"160 732 LINE",
"76 732 LINE"
);
}
);
width = 492;
}
);
leftKerningGroup = s;
rightKerningGroup = s;
unicode = 0161;
},
{
glyphname = uacute;
layers = (
{
layerId = "E50B3E3D-B4C5-41E4-9ECD-CCE241FA0330";
name = Regular;
paths = (
{
closed = 1;
nodes = (
"68 192 LINE SMOOTH",
"68 40 OFFCURVE",
"152 -12 OFFCURVE",
"248 -12 CURVE SMOOTH",
"320 -12 OFFCURVE",
"368 16 OFFCURVE",
"396 72 CURVE",
"400 72 LINE",
"400 0 LINE",
"484 0 LINE",
"484 488 LINE",
"396 488 LINE",
"396 236 LINE SMOOTH",
"396 132 OFFCURVE",
"344 64 OFFCURVE",
"268 64 CURVE SMOOTH",
"200 64 OFFCURVE",
"156 100 OFFCURVE",
"156 204 CURVE SMOOTH",
"156 488 LINE",
"68 488 LINE"
);
},
{
closed = 1;
nodes = (
"250 568 LINE",
"314 568 LINE",
"458 732 LINE",
"354 732 LINE"
);
}
);
width = 560;
}
);
leftKerningGroup = u;
rightKerningGroup = g;
unicode = 00FA;
},
{
glyphname = ucircumflex;
layers = (
{
layerId = "E50B3E3D-B4C5-41E4-9ECD-CCE241FA0330";
name = Regular;
paths = (
{
closed = 1;
nodes = (
"68 192 LINE SMOOTH",
"68 40 OFFCURVE",
"152 -12 OFFCURVE",
"248 -12 CURVE SMOOTH",
"320 -12 OFFCURVE",
"368 16 OFFCURVE",
"396 72 CURVE",
"400 72 LINE",
"400 0 LINE",
"484 0 LINE",
"484 488 LINE",
"396 488 LINE",
"396 236 LINE SMOOTH",
"396 132 OFFCURVE",
"344 64 OFFCURVE",
"268 64 CURVE SMOOTH",
"200 64 OFFCURVE",
"156 100 OFFCURVE",
"156 204 CURVE SMOOTH",
"156 488 LINE",
"68 488 LINE"
);
},
{
closed = 1;
nodes = (
"114 568 LINE",
"198 568 LINE",
"282 680 LINE",
"366 568 LINE",
"450 568 LINE",
"322 732 LINE",
"242 732 LINE"
);
}
);
width = 560;
}
);
leftKerningGroup = u;
rightKerningGroup = g;
unicode = 00FB;
},
{
glyphname = udieresis;
layers = (
{
layerId = "E50B3E3D-B4C5-41E4-9ECD-CCE241FA0330";
name = Regular;
paths = (
{
closed = 1;
nodes = (
"68 192 LINE SMOOTH",
"68 40 OFFCURVE",
"152 -12 OFFCURVE",
"248 -12 CURVE SMOOTH",
"320 -12 OFFCURVE",
"368 16 OFFCURVE",
"396 72 CURVE",
"400 72 LINE",
"400 0 LINE",
"484 0 LINE",
"484 488 LINE",
"396 488 LINE",
"396 236 LINE SMOOTH",
"396 132 OFFCURVE",
"344 64 OFFCURVE",
"268 64 CURVE SMOOTH",
"200 64 OFFCURVE",
"156 100 OFFCURVE",
"156 204 CURVE SMOOTH",
"156 488 LINE",
"68 488 LINE"
);
},
{
closed = 1;
nodes = (
"338 604 LINE",
"426 604 LINE",
"426 696 LINE",
"338 696 LINE"
);
},
{
closed = 1;
nodes = (
"138 604 LINE",
"226 604 LINE",
"226 696 LINE",
"138 696 LINE"
);
}
);
width = 560;
}
);
leftKerningGroup = u;
rightKerningGroup = g;
unicode = 00FC;
},
{
glyphname = ugrave;
layers = (
{
layerId = "E50B3E3D-B4C5-41E4-9ECD-CCE241FA0330";
name = Regular;
paths = (
{
closed = 1;
nodes = (
"68 192 LINE SMOOTH",
"68 40 OFFCURVE",
"152 -12 OFFCURVE",
"248 -12 CURVE SMOOTH",
"320 -12 OFFCURVE",
"368 16 OFFCURVE",
"396 72 CURVE",
"400 72 LINE",
"400 0 LINE",
"484 0 LINE",
"484 488 LINE",
"396 488 LINE",
"396 236 LINE SMOOTH",
"396 132 OFFCURVE",
"344 64 OFFCURVE",
"268 64 CURVE SMOOTH",
"200 64 OFFCURVE",
"156 100 OFFCURVE",
"156 204 CURVE SMOOTH",
"156 488 LINE",
"68 488 LINE"
);
},
{
closed = 1;
nodes = (
"250 568 LINE",
"314 568 LINE",
"210 732 LINE",
"106 732 LINE"
);
}
);
width = 560;
}
);
leftKerningGroup = u;
rightKerningGroup = g;
unicode = 00F9;
},
{
glyphname = yacute;
layers = (
{
layerId = "E50B3E3D-B4C5-41E4-9ECD-CCE241FA0330";
name = Regular;
paths = (
{
closed = 1;
nodes = (
"33 -152 LINE",
"33 -228 LINE",
"81 -228 LINE SMOOTH",
"180 -228 OFFCURVE",
"231 -148 OFFCURVE",
"257 -76 CURVE SMOOTH",
"464 488 LINE",
"376 488 LINE",
"240 96 LINE",
"236 96 LINE",
"100 488 LINE",
"4 488 LINE",
"196 -21 LINE",
"185 -52 LINE SMOOTH",
"161 -118 OFFCURVE",
"121 -152 OFFCURVE",
"65 -152 CURVE SMOOTH"
);
},
{
closed = 1;
nodes = (
"200 568 LINE",
"264 568 LINE",
"408 732 LINE",
"304 732 LINE"
);
}
);
width = 468;
}
);
leftKerningGroup = v;
rightKerningGroup = v;
unicode = 00FD;
},
{
glyphname = ydieresis;
layers = (
{
layerId = "E50B3E3D-B4C5-41E4-9ECD-CCE241FA0330";
name = Regular;
paths = (
{
closed = 1;
nodes = (
"33 -152 LINE",
"33 -228 LINE",
"81 -228 LINE SMOOTH",
"180 -228 OFFCURVE",
"231 -148 OFFCURVE",
"257 -76 CURVE SMOOTH",
"464 488 LINE",
"376 488 LINE",
"240 96 LINE",
"236 96 LINE",
"100 488 LINE",
"4 488 LINE",
"196 -21 LINE",
"185 -52 LINE SMOOTH",
"161 -118 OFFCURVE",
"121 -152 OFFCURVE",
"65 -152 CURVE SMOOTH"
);
},
{
closed = 1;
nodes = (
"288 604 LINE",
"376 604 LINE",
"376 696 LINE",
"288 696 LINE"
);
},
{
closed = 1;
nodes = (
"88 604 LINE",
"176 604 LINE",
"176 696 LINE",
"88 696 LINE"
);
}
);
width = 468;
}
);
leftKerningGroup = v;
rightKerningGroup = v;
unicode = 00FF;
},
{
glyphname = zcaron;
layers = (
{
layerId = "E50B3E3D-B4C5-41E4-9ECD-CCE241FA0330";
name = Regular;
paths = (
{
closed = 1;
nodes = (
"32 416 LINE",
"300 416 LINE",
"36 52 LINE",
"36 0 LINE",
"412 0 LINE",
"412 72 LINE",
"149 72 LINE",
"408 428 LINE",
"408 488 LINE",
"32 488 LINE"
);
},
{
closed = 1;
nodes = (
"180 568 LINE",
"260 568 LINE",
"388 732 LINE",
"304 732 LINE",
"220 620 LINE",
"136 732 LINE",
"52 732 LINE"
);
}
);
width = 444;
}
);
leftKerningGroup = z;
rightKerningGroup = z;
unicode = 017E;
},
{
glyphname = Dcroat;
layers = (
{
layerId = "E50B3E3D-B4C5-41E4-9ECD-CCE241FA0330";
name = Regular;
paths = (
{
closed = 1;
nodes = (
"4 308 LINE",
"88 308 LINE",
"88 0 LINE",
"300 0 LINE SMOOTH",
"537 0 OFFCURVE",
"660 143 OFFCURVE",
"660 344 CURVE SMOOTH",
"660 545 OFFCURVE",
"537 688 OFFCURVE",
"300 688 CURVE SMOOTH",
"88 688 LINE",
"88 384 LINE",
"4 384 LINE"
);
},
{
closed = 1;
nodes = (
"300 608 LINE SMOOTH",
"493 608 OFFCURVE",
"564 484 OFFCURVE",
"564 344 CURVE SMOOTH",
"564 204 OFFCURVE",
"493 80 OFFCURVE",
"300 80 CURVE SMOOTH",
"180 80 LINE",
"180 308 LINE",
"340 308 LINE",
"340 384 LINE",
"180 384 LINE",
"180 608 LINE"
);
}
);
width = 704;
}
);
rightKerningGroup = D;
unicode = 0110;
},
{
glyphname = Eng;
layers = (
{
layerId = "E50B3E3D-B4C5-41E4-9ECD-CCE241FA0330";
name = Regular;
paths = (
{
closed = 1;
nodes = (
"88 0 LINE",
"180 0 LINE",
"176 528 LINE",
"180 528 LINE",
"556 5 LINE",
"556 -24 LINE SMOOTH",
"556 -106 OFFCURVE",
"526 -136 OFFCURVE",
"464 -136 CURVE SMOOTH",
"420 -136 LINE",
"420 -220 LINE",
"468 -220 LINE SMOOTH",
"581 -220 OFFCURVE",
"648 -178 OFFCURVE",
"648 -32 CURVE SMOOTH",
"648 688 LINE",
"556 688 LINE",
"560 156 LINE",
"556 156 LINE",
"176 688 LINE",
"88 688 LINE"
);
}
);
width = 736;
}
);
unicode = 014A;
},
{
glyphname = Hbar;
layers = (
{
layerId = "E50B3E3D-B4C5-41E4-9ECD-CCE241FA0330";
name = Regular;
paths = (
{
closed = 1;
nodes = (
"0 504 LINE",
"88 504 LINE",
"88 0 LINE",
"180 0 LINE",
"180 308 LINE",
"548 308 LINE",
"548 0 LINE",
"640 0 LINE",
"640 504 LINE",
"728 504 LINE",
"728 580 LINE",
"640 580 LINE",
"640 688 LINE",
"548 688 LINE",
"548 580 LINE",
"180 580 LINE",
"180 688 LINE",
"88 688 LINE",
"88 580 LINE",
"0 580 LINE"
);
},
{
closed = 1;
nodes = (
"180 504 LINE",
"548 504 LINE",
"548 388 LINE",
"180 388 LINE"
);
}
);
width = 728;
}
);
unicode = 0126;
},
{
glyphname = Tbar;
layers = (
{
layerId = "E50B3E3D-B4C5-41E4-9ECD-CCE241FA0330";
name = Regular;
paths = (
{
closed = 1;
nodes = (
"8 610 LINE",
"248 610 LINE",
"248 356 LINE",
"64 356 LINE",
"64 284 LINE",
"248 284 LINE",
"248 0 LINE",
"340 0 LINE",
"340 284 LINE",
"524 284 LINE",
"524 356 LINE",
"340 356 LINE",
"340 610 LINE",
"580 610 LINE",
"580 688 LINE",
"8 688 LINE"
);
}
);
width = 588;
}
);
unicode = 0166;
},
{
glyphname = longs;
layers = (
{
layerId = "E50B3E3D-B4C5-41E4-9ECD-CCE241FA0330";
name = Regular;
paths = (
{
closed = 1;
nodes = (
"96 0 LINE",
"184 0 LINE",
"184 564 LINE SMOOTH",
"184 624 OFFCURVE",
"204 656 OFFCURVE",
"268 656 CURVE SMOOTH",
"320 656 LINE",
"320 732 LINE",
"260 732 LINE SMOOTH",
"152 732 OFFCURVE",
"96 676 OFFCURVE",
"96 568 CURVE SMOOTH",
"96 488 LINE",
"4 488 LINE",
"4 416 LINE",
"96 416 LINE"
);
}
);
width = 308;
}
);
leftKerningGroup = f;
rightKerningGroup = f;
unicode = 017F;
},
{
glyphname = dcroat;
layers = (
{
layerId = "E50B3E3D-B4C5-41E4-9ECD-CCE241FA0330";
name = Regular;
paths = (
{
closed = 1;
nodes = (
"276 592 LINE",
"420 592 LINE",
"420 576 LINE SMOOTH",
"420 543 OFFCURVE",
"420 476 OFFCURVE",
"424 412 CURVE",
"420 412 LINE",
"388 476 OFFCURVE",
"332 500 OFFCURVE",
"264 500 CURVE SMOOTH",
"140 500 OFFCURVE",
"40 400 OFFCURVE",
"40 240 CURVE SMOOTH",
"40 80 OFFCURVE",
"132 -12 OFFCURVE",
"256 -12 CURVE SMOOTH",
"324 -12 OFFCURVE",
"388 12 OFFCURVE",
"420 76 CURVE",
"424 76 LINE",
"424 0 LINE",
"508 0 LINE",
"508 592 LINE",
"584 592 LINE",
"584 652 LINE",
"508 652 LINE",
"508 732 LINE",
"420 732 LINE",
"420 652 LINE",
"276 652 LINE"
);
},
{
closed = 1;
nodes = (
"132 356 OFFCURVE",
"196 424 OFFCURVE",
"276 424 CURVE SMOOTH",
"356 424 OFFCURVE",
"420 360 OFFCURVE",
"420 244 CURVE SMOOTH",
"420 235 LINE SMOOTH",
"417 125 OFFCURVE",
"354 64 OFFCURVE",
"276 64 CURVE SMOOTH",
"196 64 OFFCURVE",
"132 124 OFFCURVE",
"132 240 CURVE SMOOTH"
);
}
);
width = 584;
}
);
leftKerningGroup = c;
unicode = 0111;
},
{
glyphname = eng;
layers = (
{
layerId = "E50B3E3D-B4C5-41E4-9ECD-CCE241FA0330";
name = Regular;
paths = (
{
closed = 1;
nodes = (
"408 -72 LINE SMOOTH",
"408 -120 OFFCURVE",
"394 -144 OFFCURVE",
"352 -144 CURVE SMOOTH",
"328 -144 LINE",
"328 -220 LINE",
"360 -220 LINE SMOOTH",
"460 -220 OFFCURVE",
"496 -164 OFFCURVE",
"496 -88 CURVE SMOOTH",
"496 296 LINE SMOOTH",
"496 448 OFFCURVE",
"412 500 OFFCURVE",
"316 500 CURVE SMOOTH",
"244 500 OFFCURVE",
"192 472 OFFCURVE",
"164 416 CURVE",
"160 416 LINE",
"160 488 LINE",
"76 488 LINE",
"76 0 LINE",
"164 0 LINE",
"164 255 LINE SMOOTH",
"164 359 OFFCURVE",
"222 424 OFFCURVE",
"296 424 CURVE SMOOTH",
"364 424 OFFCURVE",
"408 388 OFFCURVE",
"408 284 CURVE SMOOTH"
);
}
);
width = 564;
}
);
leftKerningGroup = m;
rightKerningGroup = a;
unicode = 014B;
},
{
glyphname = hbar;
layers = (
{
layerId = "E50B3E3D-B4C5-41E4-9ECD-CCE241FA0330";
name = Regular;
paths = (
{
closed = 1;
nodes = (
"0 592 LINE",
"76 592 LINE",
"76 0 LINE",
"164 0 LINE",
"164 254 LINE SMOOTH",
"164 359 OFFCURVE",
"222 424 OFFCURVE",
"296 424 CURVE SMOOTH",
"364 424 OFFCURVE",
"408 388 OFFCURVE",
"408 284 CURVE SMOOTH",
"408 0 LINE",
"496 0 LINE",
"496 296 LINE SMOOTH",
"496 448 OFFCURVE",
"412 500 OFFCURVE",
"316 500 CURVE SMOOTH",
"244 500 OFFCURVE",
"192 472 OFFCURVE",
"164 416 CURVE",
"160 416 LINE",
"164 480 OFFCURVE",
"164 547 OFFCURVE",
"164 580 CURVE SMOOTH",
"164 592 LINE",
"308 592 LINE",
"308 652 LINE",
"164 652 LINE",
"164 732 LINE",
"76 732 LINE",
"76 652 LINE",
"0 652 LINE"
);
}
);
width = 564;
}
);
rightKerningGroup = a;
unicode = 0127;
},
{
glyphname = napostrophe;
layers = (
{
layerId = "E50B3E3D-B4C5-41E4-9ECD-CCE241FA0330";
name = Regular;
paths = (
{
closed = 1;
nodes = (
"76 0 LINE",
"164 0 LINE",
"164 253 LINE SMOOTH",
"164 359 OFFCURVE",
"222 424 OFFCURVE",
"296 424 CURVE SMOOTH",
"364 424 OFFCURVE",
"408 388 OFFCURVE",
"408 284 CURVE SMOOTH",
"408 0 LINE",
"496 0 LINE",
"496 296 LINE SMOOTH",
"496 448 OFFCURVE",
"412 500 OFFCURVE",
"316 500 CURVE SMOOTH",
"244 500 OFFCURVE",
"192 472 OFFCURVE",
"164 416 CURVE",
"160 416 LINE",
"160 488 LINE",
"76 488 LINE"
);
},
{
closed = 1;
nodes = (
"83 568 LINE",
"123 568 LINE",
"160 670 LINE",
"160 748 LINE",
"72 748 LINE",
"72 660 LINE",
"109 660 LINE"
);
}
);
width = 564;
}
);
leftKerningGroup = m;
rightKerningGroup = a;
unicode = 0149;
},
{
glyphname = tbar;
layers = (
{
layerId = "E50B3E3D-B4C5-41E4-9ECD-CCE241FA0330";
name = Regular;
paths = (
{
closed = 1;
nodes = (
"-4 224 LINE",
"88 224 LINE",
"88 144 LINE SMOOTH",
"88 48 OFFCURVE",
"136 0 OFFCURVE",
"232 0 CURVE SMOOTH",
"304 0 LINE",
"304 76 LINE",
"244 76 LINE SMOOTH",
"196 76 OFFCURVE",
"176 96 OFFCURVE",
"176 148 CURVE SMOOTH",
"176 224 LINE",
"304 224 LINE",
"304 284 LINE",
"176 284 LINE",
"176 416 LINE",
"304 416 LINE",
"304 488 LINE",
"176 488 LINE",
"176 636 LINE",
"88 636 LINE",
"88 488 LINE",
"-4 488 LINE",
"-4 416 LINE",
"88 416 LINE",
"88 284 LINE",
"-4 284 LINE"
);
}
);
width = 328;
}
);
unicode = 0167;
},
{
glyphname = IJ;
layers = (
{
layerId = "E50B3E3D-B4C5-41E4-9ECD-CCE241FA0330";
name = Regular;
paths = (
{
closed = 1;
nodes = (
"88 0 LINE",
"180 0 LINE",
"180 688 LINE",
"88 688 LINE"
);
},
{
closed = 1;
nodes = (
"308 196 LINE SMOOTH",
"308 46 OFFCURVE",
"391 -12 OFFCURVE",
"508 -12 CURVE SMOOTH",
"625 -12 OFFCURVE",
"708 46 OFFCURVE",
"708 196 CURVE SMOOTH",
"708 688 LINE",
"616 688 LINE",
"616 200 LINE SMOOTH",
"616 102 OFFCURVE",
"570 68 OFFCURVE",
"508 68 CURVE SMOOTH",
"446 68 OFFCURVE",
"400 102 OFFCURVE",
"400 200 CURVE SMOOTH",
"400 228 LINE",
"308 228 LINE"
);
}
);
width = 784;
}
);
rightKerningGroup = J;
unicode = 0132;
},
{
glyphname = f_b;
layers = (
{
layerId = "E50B3E3D-B4C5-41E4-9ECD-CCE241FA0330";
name = Regular;
paths = (
{
closed = 1;
nodes = (
"396 0 LINE",
"480 0 LINE",
"480 76 LINE",
"484 76 LINE",
"516 12 OFFCURVE",
"572 -12 OFFCURVE",
"640 -12 CURVE SMOOTH",
"764 -12 OFFCURVE",
"864 88 OFFCURVE",
"864 248 CURVE SMOOTH",
"864 408 OFFCURVE",
"772 500 OFFCURVE",
"648 500 CURVE SMOOTH",
"580 500 OFFCURVE",
"516 476 OFFCURVE",
"484 412 CURVE",
"480 412 LINE",
"484 476 OFFCURVE",
"484 543 OFFCURVE",
"484 576 CURVE SMOOTH",
"484 732 LINE",
"260 732 LINE SMOOTH",
"152 732 OFFCURVE",
"96 676 OFFCURVE",
"96 568 CURVE SMOOTH",
"96 488 LINE",
"4 488 LINE",
"4 416 LINE",
"96 416 LINE",
"96 0 LINE",
"184 0 LINE",
"184 416 LINE",
"292 416 LINE",
"292 488 LINE",
"184 488 LINE",
"184 564 LINE SMOOTH",
"184 624 OFFCURVE",
"204 656 OFFCURVE",
"268 656 CURVE SMOOTH",
"396 656 LINE"
);
},
{
closed = 1;
nodes = (
"484 252 LINE SMOOTH",
"487 363 OFFCURVE",
"550 424 OFFCURVE",
"628 424 CURVE SMOOTH",
"708 424 OFFCURVE",
"772 364 OFFCURVE",
"772 248 CURVE SMOOTH",
"772 132 OFFCURVE",
"708 64 OFFCURVE",
"628 64 CURVE SMOOTH",
"548 64 OFFCURVE",
"484 128 OFFCURVE",
"484 244 CURVE SMOOTH"
);
}
);
width = 904;
}
);
leftKerningGroup = f;
unicode = E092;
},
{
glyphname = f_f_b;
layers = (
{
layerId = "E50B3E3D-B4C5-41E4-9ECD-CCE241FA0330";
name = Regular;
paths = (
{
closed = 1;
nodes = (
"396 0 LINE",
"484 0 LINE",
"484 416 LINE",
"616 416 LINE",
"616 488 LINE",
"484 488 LINE",
"484 564 LINE SMOOTH",
"484 624 OFFCURVE",
"504 656 OFFCURVE",
"568 656 CURVE SMOOTH",
"696 656 LINE",
"696 0 LINE",
"780 0 LINE",
"780 76 LINE",
"784 76 LINE",
"816 12 OFFCURVE",
"872 -12 OFFCURVE",
"940 -12 CURVE SMOOTH",
"1064 -12 OFFCURVE",
"1164 88 OFFCURVE",
"1164 248 CURVE SMOOTH",
"1164 408 OFFCURVE",
"1072 500 OFFCURVE",
"948 500 CURVE SMOOTH",
"880 500 OFFCURVE",
"816 476 OFFCURVE",
"784 412 CURVE",
"780 412 LINE",
"784 476 OFFCURVE",
"784 543 OFFCURVE",
"784 576 CURVE SMOOTH",
"784 732 LINE",
"560 732 LINE SMOOTH",
"452 732 OFFCURVE",
"396 676 OFFCURVE",
"396 568 CURVE SMOOTH",
"396 488 LINE",
"184 488 LINE",
"184 564 LINE SMOOTH",
"184 624 OFFCURVE",
"204 656 OFFCURVE",
"268 656 CURVE SMOOTH",
"316 656 LINE",
"316 732 LINE",
"260 732 LINE SMOOTH",
"152 732 OFFCURVE",
"96 676 OFFCURVE",
"96 568 CURVE SMOOTH",
"96 488 LINE",
"4 488 LINE",
"4 416 LINE",
"96 416 LINE",
"96 0 LINE",
"184 0 LINE",
"184 416 LINE",
"396 416 LINE"
);
},
{
closed = 1;
nodes = (
"784 252 LINE SMOOTH",
"787 363 OFFCURVE",
"850 424 OFFCURVE",
"928 424 CURVE SMOOTH",
"1008 424 OFFCURVE",
"1072 364 OFFCURVE",
"1072 248 CURVE SMOOTH",
"1072 132 OFFCURVE",
"1008 64 OFFCURVE",
"928 64 CURVE SMOOTH",
"848 64 OFFCURVE",
"784 128 OFFCURVE",
"784 244 CURVE SMOOTH"
);
}
);
width = 1204;
}
);
leftKerningGroup = f;
unicode = E093;
},
{
glyphname = f_f_h;
layers = (
{
layerId = "E50B3E3D-B4C5-41E4-9ECD-CCE241FA0330";
name = Regular;
paths = (
{
closed = 1;
nodes = (
"396 0 LINE",
"484 0 LINE",
"484 416 LINE",
"616 416 LINE",
"616 488 LINE",
"484 488 LINE",
"484 564 LINE SMOOTH",
"484 624 OFFCURVE",
"504 656 OFFCURVE",
"568 656 CURVE SMOOTH",
"696 656 LINE",
"696 0 LINE",
"784 0 LINE",
"784 256 LINE SMOOTH",
"784 359 OFFCURVE",
"842 424 OFFCURVE",
"916 424 CURVE SMOOTH",
"984 424 OFFCURVE",
"1028 388 OFFCURVE",
"1028 284 CURVE SMOOTH",
"1028 0 LINE",
"1116 0 LINE",
"1116 296 LINE SMOOTH",
"1116 448 OFFCURVE",
"1032 500 OFFCURVE",
"936 500 CURVE SMOOTH",
"864 500 OFFCURVE",
"812 472 OFFCURVE",
"784 416 CURVE",
"780 416 LINE",
"784 480 OFFCURVE",
"784 547 OFFCURVE",
"784 580 CURVE SMOOTH",
"784 732 LINE",
"560 732 LINE SMOOTH",
"452 732 OFFCURVE",
"396 676 OFFCURVE",
"396 568 CURVE SMOOTH",
"396 488 LINE",
"184 488 LINE",
"184 564 LINE SMOOTH",
"184 624 OFFCURVE",
"204 656 OFFCURVE",
"268 656 CURVE SMOOTH",
"316 656 LINE",
"316 732 LINE",
"260 732 LINE SMOOTH",
"152 732 OFFCURVE",
"96 676 OFFCURVE",
"96 568 CURVE SMOOTH",
"96 488 LINE",
"4 488 LINE",
"4 416 LINE",
"96 416 LINE",
"96 0 LINE",
"184 0 LINE",
"184 416 LINE",
"396 416 LINE"
);
}
);
width = 1184;
}
);
leftKerningGroup = f;
rightKerningGroup = a;
unicode = E094;
},
{
glyphname = f_f_j;
layers = (
{
layerId = "E50B3E3D-B4C5-41E4-9ECD-CCE241FA0330";
name = Regular;
paths = (
{
closed = 1;
nodes = (
"396 0 LINE",
"484 0 LINE",
"484 416 LINE",
"696 416 LINE",
"696 -72 LINE SMOOTH",
"696 -120 OFFCURVE",
"682 -144 OFFCURVE",
"640 -144 CURVE SMOOTH",
"616 -144 LINE",
"616 -220 LINE",
"648 -220 LINE SMOOTH",
"748 -220 OFFCURVE",
"784 -164 OFFCURVE",
"784 -88 CURVE SMOOTH",
"784 488 LINE",
"484 488 LINE",
"484 564 LINE SMOOTH",
"484 624 OFFCURVE",
"504 656 OFFCURVE",
"568 656 CURVE SMOOTH",
"616 656 LINE",
"616 732 LINE",
"560 732 LINE SMOOTH",
"452 732 OFFCURVE",
"396 676 OFFCURVE",
"396 568 CURVE SMOOTH",
"396 488 LINE",
"184 488 LINE",
"184 564 LINE SMOOTH",
"184 624 OFFCURVE",
"204 656 OFFCURVE",
"268 656 CURVE SMOOTH",
"324 656 LINE",
"324 732 LINE",
"260 732 LINE SMOOTH",
"152 732 OFFCURVE",
"96 676 OFFCURVE",
"96 568 CURVE SMOOTH",
"96 488 LINE",
"4 488 LINE",
"4 416 LINE",
"96 416 LINE",
"96 0 LINE",
"184 0 LINE",
"184 416 LINE",
"396 416 LINE"
);
},
{
closed = 1;
nodes = (
"692 632 LINE",
"788 632 LINE",
"788 732 LINE",
"692 732 LINE"
);
}
);
width = 860;
}
);
leftKerningGroup = f;
unicode = E095;
},
{
glyphname = f_f_k;
layers = (
{
layerId = "E50B3E3D-B4C5-41E4-9ECD-CCE241FA0330";
name = Regular;
paths = (
{
closed = 1;
nodes = (
"396 0 LINE",
"484 0 LINE",
"484 416 LINE",
"616 416 LINE",
"616 488 LINE",
"484 488 LINE",
"484 564 LINE SMOOTH",
"484 624 OFFCURVE",
"504 656 OFFCURVE",
"568 656 CURVE SMOOTH",
"696 656 LINE",
"696 0 LINE",
"784 0 LINE",
"784 147 LINE",
"859 229 LINE",
"1016 0 LINE",
"1120 0 LINE",
"919 293 LINE",
"1100 488 LINE",
"996 488 LINE",
"784 253 LINE",
"784 732 LINE",
"560 732 LINE SMOOTH",
"452 732 OFFCURVE",
"396 676 OFFCURVE",
"396 568 CURVE SMOOTH",
"396 488 LINE",
"184 488 LINE",
"184 564 LINE SMOOTH",
"184 624 OFFCURVE",
"204 656 OFFCURVE",
"268 656 CURVE SMOOTH",
"316 656 LINE",
"316 732 LINE",
"260 732 LINE SMOOTH",
"152 732 OFFCURVE",
"96 676 OFFCURVE",
"96 568 CURVE SMOOTH",
"96 488 LINE",
"4 488 LINE",
"4 416 LINE",
"96 416 LINE",
"96 0 LINE",
"184 0 LINE",
"184 416 LINE",
"396 416 LINE"
);
}
);
width = 1124;
}
);
leftKerningGroup = f;
rightKerningGroup = k;
unicode = E096;
},
{
glyphname = f_f_t;
layers = (
{
layerId = "E50B3E3D-B4C5-41E4-9ECD-CCE241FA0330";
name = Regular;
paths = (
{
closed = 1;
nodes = (
"396 0 LINE",
"484 0 LINE",
"484 416 LINE",
"688 416 LINE",
"688 144 LINE SMOOTH",
"688 48 OFFCURVE",
"736 0 OFFCURVE",
"832 0 CURVE SMOOTH",
"904 0 LINE",
"904 76 LINE",
"840 76 LINE SMOOTH",
"800 76 OFFCURVE",
"776 96 OFFCURVE",
"776 148 CURVE SMOOTH",
"776 416 LINE",
"904 416 LINE",
"904 488 LINE",
"776 488 LINE",
"776 636 LINE",
"688 636 LINE",
"688 488 LINE",
"484 488 LINE",
"484 564 LINE SMOOTH",
"484 624 OFFCURVE",
"504 656 OFFCURVE",
"568 656 CURVE SMOOTH",
"616 656 LINE",
"616 732 LINE",
"560 732 LINE SMOOTH",
"452 732 OFFCURVE",
"396 676 OFFCURVE",
"396 568 CURVE SMOOTH",
"396 488 LINE",
"184 488 LINE",
"184 564 LINE SMOOTH",
"184 624 OFFCURVE",
"204 656 OFFCURVE",
"268 656 CURVE SMOOTH",
"316 656 LINE",
"316 732 LINE",
"260 732 LINE SMOOTH",
"152 732 OFFCURVE",
"96 676 OFFCURVE",
"96 568 CURVE SMOOTH",
"96 488 LINE",
"4 488 LINE",
"4 416 LINE",
"96 416 LINE",
"96 0 LINE",
"184 0 LINE",
"184 416 LINE",
"396 416 LINE"
);
}
);
width = 928;
}
);
leftKerningGroup = f;
rightKerningGroup = t;
unicode = E097;
},
{
glyphname = f_h;
layers = (
{
layerId = "E50B3E3D-B4C5-41E4-9ECD-CCE241FA0330";
name = Regular;
paths = (
{
closed = 1;
nodes = (
"396 0 LINE",
"484 0 LINE",
"484 252 LINE SMOOTH",
"484 356 OFFCURVE",
"540 424 OFFCURVE",
"616 424 CURVE SMOOTH",
"684 424 OFFCURVE",
"728 388 OFFCURVE",
"728 284 CURVE SMOOTH",
"728 0 LINE",
"816 0 LINE",
"816 296 LINE SMOOTH",
"816 448 OFFCURVE",
"732 500 OFFCURVE",
"636 500 CURVE SMOOTH",
"564 500 OFFCURVE",
"512 472 OFFCURVE",
"484 416 CURVE",
"480 416 LINE",
"484 480 OFFCURVE",
"484 547 OFFCURVE",
"484 580 CURVE SMOOTH",
"484 732 LINE",
"260 732 LINE SMOOTH",
"152 732 OFFCURVE",
"96 676 OFFCURVE",
"96 568 CURVE SMOOTH",
"96 488 LINE",
"4 488 LINE",
"4 416 LINE",
"96 416 LINE",
"96 0 LINE",
"184 0 LINE",
"184 416 LINE",
"292 416 LINE",
"292 488 LINE",
"184 488 LINE",
"184 564 LINE SMOOTH",
"184 624 OFFCURVE",
"204 656 OFFCURVE",
"268 656 CURVE SMOOTH",
"396 656 LINE"
);
}
);
width = 884;
}
);
leftKerningGroup = f;
rightKerningGroup = a;
unicode = E098;
},
{
glyphname = f_j;
layers = (
{
layerId = "E50B3E3D-B4C5-41E4-9ECD-CCE241FA0330";
name = Regular;
paths = (
{
closed = 1;
nodes = (
"316 -144 LINE",
"316 -220 LINE",
"348 -220 LINE SMOOTH",
"448 -220 OFFCURVE",
"484 -164 OFFCURVE",
"484 -88 CURVE SMOOTH",
"484 488 LINE",
"184 488 LINE",
"184 564 LINE SMOOTH",
"184 624 OFFCURVE",
"204 656 OFFCURVE",
"268 656 CURVE SMOOTH",
"316 656 LINE",
"316 732 LINE",
"260 732 LINE SMOOTH",
"152 732 OFFCURVE",
"96 676 OFFCURVE",
"96 568 CURVE SMOOTH",
"96 488 LINE",
"4 488 LINE",
"4 416 LINE",
"96 416 LINE",
"96 0 LINE",
"184 0 LINE",
"184 416 LINE",
"396 416 LINE",
"396 -72 LINE SMOOTH",
"396 -120 OFFCURVE",
"382 -144 OFFCURVE",
"340 -144 CURVE SMOOTH"
);
},
{
closed = 1;
nodes = (
"392 632 LINE",
"488 632 LINE",
"488 732 LINE",
"392 732 LINE"
);
}
);
width = 560;
}
);
leftKerningGroup = f;
unicode = E09A;
},
{
glyphname = f_k;
layers = (
{
layerId = "E50B3E3D-B4C5-41E4-9ECD-CCE241FA0330";
name = Regular;
paths = (
{
closed = 1;
nodes = (
"396 0 LINE",
"484 0 LINE",
"484 147 LINE",
"559 229 LINE",
"716 0 LINE",
"820 0 LINE",
"619 293 LINE",
"800 488 LINE",
"696 488 LINE",
"484 253 LINE",
"484 732 LINE",
"260 732 LINE SMOOTH",
"152 732 OFFCURVE",
"96 676 OFFCURVE",
"96 568 CURVE SMOOTH",
"96 488 LINE",
"4 488 LINE",
"4 416 LINE",
"96 416 LINE",
"96 0 LINE",
"184 0 LINE",
"184 416 LINE",
"292 416 LINE",
"292 488 LINE",
"184 488 LINE",
"184 564 LINE SMOOTH",
"184 624 OFFCURVE",
"204 656 OFFCURVE",
"268 656 CURVE SMOOTH",
"396 656 LINE"
);
}
);
width = 824;
}
);
leftKerningGroup = f;
rightKerningGroup = k;
unicode = E09B;
},
{
glyphname = f_t;
layers = (
{
layerId = "E50B3E3D-B4C5-41E4-9ECD-CCE241FA0330";
name = Regular;
paths = (
{
closed = 1;
nodes = (
"388 144 LINE SMOOTH",
"388 48 OFFCURVE",
"436 0 OFFCURVE",
"532 0 CURVE SMOOTH",
"604 0 LINE",
"604 76 LINE",
"540 76 LINE SMOOTH",
"500 76 OFFCURVE",
"476 96 OFFCURVE",
"476 148 CURVE SMOOTH",
"476 416 LINE",
"604 416 LINE",
"604 488 LINE",
"476 488 LINE",
"476 636 LINE",
"388 636 LINE",
"388 488 LINE",
"184 488 LINE",
"184 564 LINE SMOOTH",
"184 624 OFFCURVE",
"204 656 OFFCURVE",
"268 656 CURVE SMOOTH",
"316 656 LINE",
"316 732 LINE",
"260 732 LINE SMOOTH",
"152 732 OFFCURVE",
"96 676 OFFCURVE",
"96 568 CURVE SMOOTH",
"96 488 LINE",
"4 488 LINE",
"4 416 LINE",
"96 416 LINE",
"96 0 LINE",
"184 0 LINE",
"184 416 LINE",
"388 416 LINE"
);
}
);
width = 628;
}
);
leftKerningGroup = f;
rightKerningGroup = t;
unicode = E09D;
},
{
glyphname = ij;
layers = (
{
layerId = "E50B3E3D-B4C5-41E4-9ECD-CCE241FA0330";
name = Regular;
paths = (
{
closed = 1;
nodes = (
"72 632 LINE",
"168 632 LINE",
"168 732 LINE",
"72 732 LINE"
);
},
{
closed = 1;
nodes = (
"76 0 LINE",
"164 0 LINE",
"164 488 LINE",
"76 488 LINE"
);
},
{
closed = 1;
nodes = (
"312 632 LINE",
"408 632 LINE",
"408 732 LINE",
"312 732 LINE"
);
},
{
closed = 1;
nodes = (
"316 -72 LINE SMOOTH",
"316 -120 OFFCURVE",
"302 -144 OFFCURVE",
"260 -144 CURVE SMOOTH",
"236 -144 LINE",
"236 -220 LINE",
"268 -220 LINE SMOOTH",
"368 -220 OFFCURVE",
"404 -164 OFFCURVE",
"404 -88 CURVE SMOOTH",
"404 488 LINE",
"316 488 LINE"
);
}
);
width = 480;
}
);
leftKerningGroup = b;
unicode = 0133;
},
{
glyphname = Euro;
layers = (
{
layerId = "E50B3E3D-B4C5-41E4-9ECD-CCE241FA0330";
name = Regular;
paths = (
{
closed = 1;
nodes = (
"16 396 LINE",
"82 396 LINE",
"80 379 OFFCURVE",
"80 362 OFFCURVE",
"80 344 CURVE SMOOTH",
"80 330 OFFCURVE",
"80 317 OFFCURVE",
"81 304 CURVE",
"12 304 LINE",
"-4 248 LINE",
"87 248 LINE",
"109 96 OFFCURVE",
"189 -12 OFFCURVE",
"336 -12 CURVE SMOOTH",
"456 -12 OFFCURVE",
"520 46 OFFCURVE",
"546 148 CURVE",
"460 148 LINE",
"437 91 OFFCURVE",
"405 64 OFFCURVE",
"340 64 CURVE SMOOTH",
"252 64 OFFCURVE",
"197 132 OFFCURVE",
"179 248 CURVE",
"348 248 LINE",
"364 304 LINE",
"173 304 LINE",
"172 317 OFFCURVE",
"172 330 OFFCURVE",
"172 344 CURVE SMOOTH",
"172 362 OFFCURVE",
"172 379 OFFCURVE",
"173 396 CURVE",
"368 396 LINE",
"384 452 LINE",
"181 452 LINE",
"201 560 OFFCURVE",
"255 624 OFFCURVE",
"340 624 CURVE SMOOTH",
"411 624 OFFCURVE",
"445 589 OFFCURVE",
"467 520 CURVE",
"552 520 LINE",
"529 633 OFFCURVE",
"463 700 OFFCURVE",
"336 700 CURVE SMOOTH",
"193 700 OFFCURVE",
"113 597 OFFCURVE",
"88 452 CURVE",
"32 452 LINE"
);
}
);
width = 568;
}
);
unicode = 20AC;
},
{
glyphname = afii61352;
layers = (
{
layerId = "E50B3E3D-B4C5-41E4-9ECD-CCE241FA0330";
name = Regular;
paths = (
{
closed = 1;
nodes = (
"88 0 LINE",
"180 0 LINE",
"176 532 LINE",
"180 532 LINE",
"556 0 LINE",
"648 0 LINE",
"648 688 LINE",
"556 688 LINE",
"560 152 LINE",
"556 152 LINE",
"180 688 LINE",
"88 688 LINE"
);
},
{
closed = 1;
nodes = (
"790 406 OFFCURVE",
"858 336 OFFCURVE",
"966 336 CURVE SMOOTH",
"1071 336 OFFCURVE",
"1143 406 OFFCURVE",
"1143 516 CURVE SMOOTH",
"1143 626 OFFCURVE",
"1075 697 OFFCURVE",
"966 697 CURVE SMOOTH",
"862 697 OFFCURVE",
"790 626 OFFCURVE",
"790 516 CURVE SMOOTH"
);
},
{
closed = 1;
nodes = (
"873 586 OFFCURVE",
"910 632 OFFCURVE",
"966 632 CURVE SMOOTH",
"1023 632 OFFCURVE",
"1060 587 OFFCURVE",
"1060 516 CURVE SMOOTH",
"1060 447 OFFCURVE",
"1023 400 OFFCURVE",
"966 400 CURVE SMOOTH",
"910 400 OFFCURVE",
"873 447 OFFCURVE",
"873 516 CURVE SMOOTH"
);
},
{
closed = 1;
nodes = (
"789 0 LINE",
"1144 0 LINE",
"1144 64 LINE",
"789 64 LINE"
);
},
{
closed = 1;
nodes = (
"789 176 LINE",
"1144 176 LINE",
"1144 240 LINE",
"789 240 LINE"
);
}
);
width = 1212;
}
);
unicode = 2116;
},
{
glyphname = estimated;
layers = (
{
layerId = "E50B3E3D-B4C5-41E4-9ECD-CCE241FA0330";
name = Regular;
paths = (
{
closed = 1;
nodes = (
"178 120 OFFCURVE",
"174 128 OFFCURVE",
"174 136 CURVE SMOOTH",
"174 330 LINE SMOOTH",
"174 333 OFFCURVE",
"177 334 OFFCURVE",
"181 334 CURVE SMOOTH",
"822 334 LINE",
"822 344 LINE SMOOTH",
"822 541 OFFCURVE",
"644 700 OFFCURVE",
"426 700 CURVE SMOOTH",
"207 700 OFFCURVE",
"29 541 OFFCURVE",
"29 344 CURVE SMOOTH",
"29 146 OFFCURVE",
"207 -12 OFFCURVE",
"426 -12 CURVE SMOOTH",
"553 -12 OFFCURVE",
"668 43 OFFCURVE",
"740 127 CURVE",
"682 127 LINE",
"620 54 OFFCURVE",
"529 10 OFFCURVE",
"427 10 CURVE SMOOTH",
"330 10 OFFCURVE",
"244 50 OFFCURVE",
"184 113 CURVE"
);
},
{
closed = 1;
nodes = (
"181 355 LINE SMOOTH",
"177 355 OFFCURVE",
"174 357 OFFCURVE",
"174 361 CURVE SMOOTH",
"174 549 LINE SMOOTH",
"174 559 OFFCURVE",
"178 568 OFFCURVE",
"185 575 CURVE SMOOTH",
"245 637 OFFCURVE",
"331 678 OFFCURVE",
"427 678 CURVE SMOOTH",
"520 678 OFFCURVE",
"606 640 OFFCURVE",
"667 578 CURVE SMOOTH",
"674 571 OFFCURVE",
"677 564 OFFCURVE",
"677 554 CURVE SMOOTH",
"677 361 LINE SMOOTH",
"677 357 OFFCURVE",
"675 355 OFFCURVE",
"673 355 CURVE SMOOTH"
);
}
);
width = 850;
}
);
unicode = 212E;
},
{
glyphname = a.sc;
layers = (
{
layerId = "E50B3E3D-B4C5-41E4-9ECD-CCE241FA0330";
name = Regular;
paths = (
{
closed = 1;
nodes = (
"8 0 LINE",
"96 0 LINE",
"144 126 LINE",
"377 126 LINE",
"424 0 LINE",
"516 0 LINE",
"316 520 LINE",
"212 520 LINE"
);
},
{
closed = 1;
nodes = (
"264 432 LINE",
"350 198 LINE",
"171 198 LINE",
"260 432 LINE"
);
}
);
width = 524;
}
);
leftKerningGroup = a.sc;
rightKerningGroup = a.sc;
unicode = F761;
},
{
glyphname = b.sc;
layers = (
{
layerId = "E50B3E3D-B4C5-41E4-9ECD-CCE241FA0330";
name = Regular;
paths = (
{
closed = 1;
nodes = (
"88 0 LINE",
"344 0 LINE SMOOTH",
"462 0 OFFCURVE",
"528 64 OFFCURVE",
"528 152 CURVE SMOOTH",
"528 213 OFFCURVE",
"483 264 OFFCURVE",
"416 275 CURVE",
"416 278 LINE",
"480 293 OFFCURVE",
"504 340 OFFCURVE",
"504 384 CURVE SMOOTH",
"504 469 OFFCURVE",
"446 520 OFFCURVE",
"328 520 CURVE SMOOTH",
"88 520 LINE"
);
},
{
closed = 1;
nodes = (
"344 230 LINE SMOOTH",
"403 230 OFFCURVE",
"436 201 OFFCURVE",
"436 156 CURVE SMOOTH",
"436 108 OFFCURVE",
"405 76 OFFCURVE",
"344 76 CURVE SMOOTH",
"176 76 LINE",
"176 230 LINE"
);
},
{
closed = 1;
nodes = (
"328 444 LINE SMOOTH",
"388 444 OFFCURVE",
"412 420 OFFCURVE",
"412 380 CURVE SMOOTH",
"412 337 OFFCURVE",
"383 306 OFFCURVE",
"328 306 CURVE SMOOTH",
"176 306 LINE",
"176 444 LINE"
);
}
);
width = 580;
}
);
leftKerningGroup = b.sc;
rightKerningGroup = b.sc;
unicode = F762;
},
{
glyphname = c.sc;
layers = (
{
layerId = "E50B3E3D-B4C5-41E4-9ECD-CCE241FA0330";
name = Regular;
paths = (
{
closed = 1;
nodes = (
"44 111 OFFCURVE",
"147 -12 OFFCURVE",
"308 -12 CURVE SMOOTH",
"437 -12 OFFCURVE",
"526 60 OFFCURVE",
"548 168 CURVE",
"460 168 LINE",
"440 105 OFFCURVE",
"395 68 OFFCURVE",
"312 68 CURVE SMOOTH",
"200 68 OFFCURVE",
"136 156 OFFCURVE",
"136 260 CURVE SMOOTH",
"136 372 OFFCURVE",
"204 452 OFFCURVE",
"312 452 CURVE SMOOTH",
"394 452 OFFCURVE",
"442 414 OFFCURVE",
"460 352 CURVE",
"548 352 LINE",
"526 458 OFFCURVE",
"438 532 OFFCURVE",
"308 532 CURVE SMOOTH",
"151 532 OFFCURVE",
"44 417 OFFCURVE",
"44 260 CURVE SMOOTH"
);
}
);
width = 584;
}
);
leftKerningGroup = c.sc;
rightKerningGroup = c.sc;
unicode = F763;
},
{
glyphname = d.sc;
layers = (
{
layerId = "E50B3E3D-B4C5-41E4-9ECD-CCE241FA0330";
name = Regular;
paths = (
{
closed = 1;
nodes = (
"88 0 LINE",
"280 0 LINE SMOOTH",
"457 0 OFFCURVE",
"556 110 OFFCURVE",
"556 260 CURVE SMOOTH",
"556 412 OFFCURVE",
"456 520 OFFCURVE",
"280 520 CURVE SMOOTH",
"88 520 LINE"
);
},
{
closed = 1;
nodes = (
"280 444 LINE SMOOTH",
"414 444 OFFCURVE",
"464 356 OFFCURVE",
"464 260 CURVE SMOOTH",
"464 164 OFFCURVE",
"414 76 OFFCURVE",
"280 76 CURVE SMOOTH",
"176 76 LINE",
"176 444 LINE"
);
}
);
width = 600;
}
);
leftKerningGroup = b.sc;
rightKerningGroup = d.sc;
unicode = F764;
},
{
glyphname = e.sc;
layers = (
{
layerId = "E50B3E3D-B4C5-41E4-9ECD-CCE241FA0330";
name = Regular;
paths = (
{
closed = 1;
nodes = (
"88 0 LINE",
"476 0 LINE",
"476 76 LINE",
"176 76 LINE",
"176 228 LINE",
"412 228 LINE",
"412 302 LINE",
"176 302 LINE",
"176 444 LINE",
"468 444 LINE",
"468 520 LINE",
"88 520 LINE"
);
}
);
width = 532;
}
);
leftKerningGroup = b.sc;
rightKerningGroup = e.sc;
unicode = F765;
},
{
glyphname = f.sc;
layers = (
{
layerId = "E50B3E3D-B4C5-41E4-9ECD-CCE241FA0330";
name = Regular;
paths = (
{
closed = 1;
nodes = (
"88 0 LINE",
"176 0 LINE",
"176 202 LINE",
"404 202 LINE",
"404 276 LINE",
"176 276 LINE",
"176 444 LINE",
"464 444 LINE",
"464 520 LINE",
"88 520 LINE"
);
}
);
width = 504;
}
);
leftKerningGroup = b.sc;
rightKerningGroup = f.sc;
unicode = F766;
},
{
glyphname = g.sc;
layers = (
{
layerId = "E50B3E3D-B4C5-41E4-9ECD-CCE241FA0330";
name = Regular;
paths = (
{
closed = 1;
nodes = (
"324 204 LINE",
"484 204 LINE",
"484 201 LINE SMOOTH",
"484 112 OFFCURVE",
"407 68 OFFCURVE",
"320 68 CURVE SMOOTH",
"207 68 OFFCURVE",
"140 154 OFFCURVE",
"140 260 CURVE SMOOTH",
"140 372 OFFCURVE",
"210 452 OFFCURVE",
"324 452 CURVE SMOOTH",
"408 452 OFFCURVE",
"457 410 OFFCURVE",
"472 364 CURVE",
"564 364 LINE",
"543 457 OFFCURVE",
"455 532 OFFCURVE",
"324 532 CURVE SMOOTH",
"159 532 OFFCURVE",
"48 417 OFFCURVE",
"48 260 CURVE SMOOTH",
"48 111 OFFCURVE",
"157 -12 OFFCURVE",
"316 -12 CURVE SMOOTH",
"400 -12 OFFCURVE",
"456 16 OFFCURVE",
"493 68 CURVE",
"496 68 LINE",
"508 0 LINE",
"564 0 LINE",
"564 276 LINE",
"324 276 LINE"
);
}
);
width = 640;
}
);
leftKerningGroup = c.sc;
rightKerningGroup = g.sc;
unicode = F767;
},
{
glyphname = h.sc;
layers = (
{
layerId = "E50B3E3D-B4C5-41E4-9ECD-CCE241FA0330";
name = Regular;
paths = (
{
closed = 1;
nodes = (
"88 0 LINE",
"176 0 LINE",
"176 224 LINE",
"452 224 LINE",
"452 0 LINE",
"540 0 LINE",
"540 520 LINE",
"452 520 LINE",
"452 300 LINE",
"176 300 LINE",
"176 520 LINE",
"88 520 LINE"
);
}
);
width = 628;
}
);
leftKerningGroup = b.sc;
unicode = F768;
},
{
glyphname = i.sc;
layers = (
{
layerId = "E50B3E3D-B4C5-41E4-9ECD-CCE241FA0330";
name = Regular;
paths = (
{
closed = 1;
nodes = (
"88 0 LINE",
"176 0 LINE",
"176 520 LINE",
"88 520 LINE"
);
}
);
width = 264;
}
);
leftKerningGroup = b.sc;
unicode = F769;
},
{
glyphname = j.sc;
layers = (
{
layerId = "E50B3E3D-B4C5-41E4-9ECD-CCE241FA0330";
name = Regular;
paths = (
{
closed = 1;
nodes = (
"40 152 LINE SMOOTH",
"40 35 OFFCURVE",
"108 -12 OFFCURVE",
"204 -12 CURVE SMOOTH",
"301 -12 OFFCURVE",
"372 39 OFFCURVE",
"372 160 CURVE SMOOTH",
"372 520 LINE",
"284 520 LINE",
"284 156 LINE SMOOTH",
"284 89 OFFCURVE",
"250 64 OFFCURVE",
"204 64 CURVE SMOOTH",
"157 64 OFFCURVE",
"124 88 OFFCURVE",
"124 152 CURVE SMOOTH",
"124 176 LINE",
"40 176 LINE"
);
}
);
width = 444;
}
);
leftKerningGroup = j.sc;
rightKerningGroup = j.sc;
unicode = F76A;
},
{
glyphname = k.sc;
layers = (
{
layerId = "E50B3E3D-B4C5-41E4-9ECD-CCE241FA0330";
name = Regular;
paths = (
{
closed = 1;
nodes = (
"88 0 LINE",
"176 0 LINE",
"176 145 LINE",
"258 231 LINE",
"444 0 LINE",
"548 0 LINE",
"317 291 LINE",
"536 520 LINE",
"432 520 LINE",
"176 247 LINE",
"176 520 LINE",
"88 520 LINE"
);
}
);
width = 560;
}
);
leftKerningGroup = b.sc;
rightKerningGroup = k.sc;
unicode = F76B;
},
{
glyphname = l.sc;
layers = (
{
layerId = "E50B3E3D-B4C5-41E4-9ECD-CCE241FA0330";
name = Regular;
paths = (
{
closed = 1;
nodes = (
"88 0 LINE",
"444 0 LINE",
"444 80 LINE",
"176 80 LINE",
"176 520 LINE",
"88 520 LINE"
);
}
);
width = 464;
}
);
leftKerningGroup = b.sc;
rightKerningGroup = l.sc;
unicode = F76C;
},
{
glyphname = m.sc;
layers = (
{
layerId = "E50B3E3D-B4C5-41E4-9ECD-CCE241FA0330";
name = Regular;
paths = (
{
closed = 1;
nodes = (
"88 0 LINE",
"176 0 LINE",
"168 388 LINE",
"172 388 LINE",
"352 0 LINE",
"416 0 LINE",
"596 388 LINE",
"599 388 LINE",
"592 0 LINE",
"680 0 LINE",
"680 520 LINE",
"572 520 LINE",
"387 116 LINE",
"385 116 LINE",
"200 520 LINE",
"88 520 LINE"
);
}
);
width = 768;
}
);
leftKerningGroup = b.sc;
unicode = F76D;
},
{
glyphname = n.sc;
layers = (
{
layerId = "E50B3E3D-B4C5-41E4-9ECD-CCE241FA0330";
name = Regular;
paths = (
{
closed = 1;
nodes = (
"88 0 LINE",
"176 0 LINE",
"172 376 LINE",
"176 376 LINE",
"460 0 LINE",
"540 0 LINE",
"540 520 LINE",
"452 520 LINE",
"455 144 LINE",
"452 144 LINE",
"168 520 LINE",
"88 520 LINE"
);
}
);
width = 628;
}
);
leftKerningGroup = b.sc;
unicode = F76E;
},
{
glyphname = o.sc;
layers = (
{
layerId = "E50B3E3D-B4C5-41E4-9ECD-CCE241FA0330";
name = Regular;
paths = (
{
closed = 1;
nodes = (
"44 104 OFFCURVE",
"160 -12 OFFCURVE",
"316 -12 CURVE SMOOTH",
"472 -12 OFFCURVE",
"588 104 OFFCURVE",
"588 260 CURVE SMOOTH",
"588 416 OFFCURVE",
"472 532 OFFCURVE",
"316 532 CURVE SMOOTH",
"160 532 OFFCURVE",
"44 416 OFFCURVE",
"44 260 CURVE SMOOTH"
);
},
{
closed = 1;
nodes = (
"136 371 OFFCURVE",
"207 452 OFFCURVE",
"316 452 CURVE SMOOTH",
"425 452 OFFCURVE",
"496 371 OFFCURVE",
"496 260 CURVE SMOOTH",
"496 149 OFFCURVE",
"425 68 OFFCURVE",
"316 68 CURVE SMOOTH",
"207 68 OFFCURVE",
"136 149 OFFCURVE",
"136 260 CURVE SMOOTH"
);
}
);
width = 632;
}
);
leftKerningGroup = c.sc;
rightKerningGroup = d.sc;
unicode = F76F;
},
{
glyphname = p.sc;
layers = (
{
layerId = "E50B3E3D-B4C5-41E4-9ECD-CCE241FA0330";
name = Regular;
paths = (
{
closed = 1;
nodes = (
"88 0 LINE",
"176 0 LINE",
"176 176 LINE",
"316 176 LINE SMOOTH",
"439 176 OFFCURVE",
"504 248 OFFCURVE",
"504 348 CURVE SMOOTH",
"504 447 OFFCURVE",
"439 520 OFFCURVE",
"316 520 CURVE SMOOTH",
"88 520 LINE"
);
},
{
closed = 1;
nodes = (
"316 444 LINE SMOOTH",
"383 444 OFFCURVE",
"416 404 OFFCURVE",
"416 348 CURVE SMOOTH",
"416 292 OFFCURVE",
"383 252 OFFCURVE",
"316 252 CURVE SMOOTH",
"176 252 LINE",
"176 444 LINE"
);
}
);
width = 548;
}
);
leftKerningGroup = b.sc;
rightKerningGroup = p.sc;
unicode = F770;
},
{
glyphname = q.sc;
layers = (
{
layerId = "E50B3E3D-B4C5-41E4-9ECD-CCE241FA0330";
name = Regular;
paths = (
{
closed = 1;
nodes = (
"44 104 OFFCURVE",
"160 -12 OFFCURVE",
"316 -12 CURVE SMOOTH",
"361 -12 OFFCURVE",
"402 -2 OFFCURVE",
"439 15 CURVE",
"550 -100 LINE",
"610 -45 LINE",
"506 61 LINE",
"557 109 OFFCURVE",
"588 179 OFFCURVE",
"588 260 CURVE SMOOTH",
"588 416 OFFCURVE",
"472 532 OFFCURVE",
"316 532 CURVE SMOOTH",
"160 532 OFFCURVE",
"44 416 OFFCURVE",
"44 260 CURVE SMOOTH"
);
},
{
closed = 1;
nodes = (
"136 371 OFFCURVE",
"207 452 OFFCURVE",
"316 452 CURVE SMOOTH",
"425 452 OFFCURVE",
"496 371 OFFCURVE",
"496 260 CURVE SMOOTH",
"496 149 OFFCURVE",
"425 68 OFFCURVE",
"316 68 CURVE SMOOTH",
"207 68 OFFCURVE",
"136 149 OFFCURVE",
"136 260 CURVE SMOOTH"
);
}
);
width = 632;
}
);
leftKerningGroup = c.sc;
rightKerningGroup = d.sc;
unicode = F771;
},
{
glyphname = r.sc;
layers = (
{
layerId = "E50B3E3D-B4C5-41E4-9ECD-CCE241FA0330";
name = Regular;
paths = (
{
closed = 1;
nodes = (
"88 0 LINE",
"176 0 LINE",
"176 196 LINE",
"296 196 LINE",
"428 0 LINE",
"528 0 LINE",
"386 203 LINE",
"463 223 OFFCURVE",
"504 280 OFFCURVE",
"504 360 CURVE SMOOTH",
"504 459 OFFCURVE",
"440 520 OFFCURVE",
"320 520 CURVE SMOOTH",
"88 520 LINE"
);
},
{
closed = 1;
nodes = (
"320 444 LINE SMOOTH",
"383 444 OFFCURVE",
"416 411 OFFCURVE",
"416 360 CURVE SMOOTH",
"416 307 OFFCURVE",
"386 272 OFFCURVE",
"320 272 CURVE SMOOTH",
"176 272 LINE",
"176 444 LINE"
);
}
);
width = 568;
}
);
leftKerningGroup = b.sc;
rightKerningGroup = r.sc;
unicode = F772;
},
{
glyphname = s.sc;
layers = (
{
layerId = "E50B3E3D-B4C5-41E4-9ECD-CCE241FA0330";
name = Regular;
paths = (
{
closed = 1;
nodes = (
"44 148 LINE",
"44 50 OFFCURVE",
"124 -12 OFFCURVE",
"260 -12 CURVE SMOOTH",
"400 -12 OFFCURVE",
"480 51 OFFCURVE",
"480 152 CURVE SMOOTH",
"480 357 OFFCURVE",
"144 250 OFFCURVE",
"144 380 CURVE SMOOTH",
"144 436 OFFCURVE",
"192 460 OFFCURVE",
"264 460 CURVE SMOOTH",
"332 460 OFFCURVE",
"380 428 OFFCURVE",
"380 376 CURVE",
"464 376 LINE",
"464 472 OFFCURVE",
"388 532 OFFCURVE",
"264 532 CURVE SMOOTH",
"136 532 OFFCURVE",
"54 467 OFFCURVE",
"54 372 CURVE SMOOTH",
"54 164 OFFCURVE",
"388 269 OFFCURVE",
"388 144 CURVE SMOOTH",
"388 87 OFFCURVE",
"340 60 OFFCURVE",
"260 60 CURVE SMOOTH",
"180 60 OFFCURVE",
"132 92 OFFCURVE",
"132 148 CURVE"
);
}
);
width = 528;
}
);
leftKerningGroup = s.sc;
rightKerningGroup = s.sc;
unicode = F773;
},
{
glyphname = t.sc;
layers = (
{
layerId = "E50B3E3D-B4C5-41E4-9ECD-CCE241FA0330";
name = Regular;
paths = (
{
closed = 1;
nodes = (
"20 444 LINE",
"212 444 LINE",
"212 0 LINE",
"300 0 LINE",
"300 444 LINE",
"492 444 LINE",
"492 520 LINE",
"20 520 LINE"
);
}
);
width = 512;
}
);
leftKerningGroup = t.sc;
rightKerningGroup = t.sc;
unicode = F774;
},
{
glyphname = u.sc;
layers = (
{
layerId = "E50B3E3D-B4C5-41E4-9ECD-CCE241FA0330";
name = Regular;
paths = (
{
closed = 1;
nodes = (
"72 208 LINE SMOOTH",
"72 48 OFFCURVE",
"167 -12 OFFCURVE",
"296 -12 CURVE SMOOTH",
"426 -12 OFFCURVE",
"524 48 OFFCURVE",
"524 208 CURVE SMOOTH",
"524 520 LINE",
"436 520 LINE",
"436 208 LINE SMOOTH",
"436 121 OFFCURVE",
"390 68 OFFCURVE",
"296 68 CURVE SMOOTH",
"203 68 OFFCURVE",
"160 121 OFFCURVE",
"160 208 CURVE SMOOTH",
"160 520 LINE",
"72 520 LINE"
);
}
);
width = 596;
}
);
leftKerningGroup = u.sc;
unicode = F775;
},
{
glyphname = v.sc;
layers = (
{
layerId = "E50B3E3D-B4C5-41E4-9ECD-CCE241FA0330";
name = Regular;
paths = (
{
closed = 1;
nodes = (
"200 0 LINE",
"312 0 LINE",
"508 520 LINE",
"420 520 LINE",
"262 88 LINE",
"258 88 LINE",
"100 520 LINE",
"8 520 LINE"
);
}
);
width = 516;
}
);
leftKerningGroup = v.sc;
rightKerningGroup = v.sc;
unicode = F776;
},
{
glyphname = w.sc;
layers = (
{
layerId = "E50B3E3D-B4C5-41E4-9ECD-CCE241FA0330";
name = Regular;
paths = (
{
closed = 1;
nodes = (
"156 0 LINE",
"268 0 LINE",
"387 408 LINE",
"389 408 LINE",
"508 0 LINE",
"620 0 LINE",
"756 520 LINE",
"668 520 LINE",
"565 96 LINE",
"561 96 LINE",
"436 520 LINE",
"344 520 LINE",
"218 96 LINE",
"214 96 LINE",
"108 520 LINE",
"16 520 LINE"
);
}
);
width = 772;
}
);
leftKerningGroup = w.sc;
rightKerningGroup = w.sc;
unicode = F777;
},
{
glyphname = x.sc;
layers = (
{
layerId = "E50B3E3D-B4C5-41E4-9ECD-CCE241FA0330";
name = Regular;
paths = (
{
closed = 1;
nodes = (
"8 0 LINE",
"100 0 LINE",
"245 205 LINE",
"392 0 LINE",
"488 0 LINE",
"297 269 LINE",
"480 520 LINE",
"380 520 LINE",
"251 333 LINE",
"120 520 LINE",
"16 520 LINE",
"199 267 LINE"
);
}
);
width = 496;
}
);
leftKerningGroup = x.sc;
rightKerningGroup = x.sc;
unicode = F778;
},
{
glyphname = y.sc;
layers = (
{
layerId = "E50B3E3D-B4C5-41E4-9ECD-CCE241FA0330";
name = Regular;
paths = (
{
closed = 1;
nodes = (
"206 0 LINE",
"294 0 LINE",
"294 205 LINE",
"500 520 LINE",
"404 520 LINE",
"255 286 LINE",
"253 286 LINE",
"108 520 LINE",
"4 520 LINE",
"206 202 LINE"
);
}
);
width = 504;
}
);
leftKerningGroup = y.sc;
rightKerningGroup = y.sc;
unicode = F779;
},
{
glyphname = z.sc;
layers = (
{
layerId = "E50B3E3D-B4C5-41E4-9ECD-CCE241FA0330";
name = Regular;
paths = (
{
closed = 1;
nodes = (
"52 444 LINE",
"342 444 LINE",
"40 56 LINE",
"40 0 LINE",
"456 0 LINE",
"456 76 LINE",
"157 76 LINE",
"460 464 LINE",
"460 520 LINE",
"52 520 LINE"
);
}
);
width = 508;
}
);
leftKerningGroup = z.sc;
rightKerningGroup = z.sc;
unicode = F77A;
},
{
glyphname = dcroat.sc;
layers = (
{
layerId = "E50B3E3D-B4C5-41E4-9ECD-CCE241FA0330";
name = Regular;
paths = (
{
closed = 1;
nodes = (
"4 228 LINE",
"88 228 LINE",
"88 0 LINE",
"280 0 LINE SMOOTH",
"457 0 OFFCURVE",
"556 110 OFFCURVE",
"556 260 CURVE SMOOTH",
"556 412 OFFCURVE",
"456 520 OFFCURVE",
"280 520 CURVE SMOOTH",
"88 520 LINE",
"88 292 LINE",
"4 292 LINE"
);
},
{
closed = 1;
nodes = (
"280 444 LINE SMOOTH",
"414 444 OFFCURVE",
"464 356 OFFCURVE",
"464 260 CURVE SMOOTH",
"464 164 OFFCURVE",
"414 76 OFFCURVE",
"280 76 CURVE SMOOTH",
"176 76 LINE",
"176 228 LINE",
"284 228 LINE",
"284 292 LINE",
"176 292 LINE",
"176 444 LINE"
);
}
);
width = 600;
}
);
rightKerningGroup = d.sc;
unicode = F676;
},
{
glyphname = hbar.sc;
layers = (
{
layerId = "E50B3E3D-B4C5-41E4-9ECD-CCE241FA0330";
name = Regular;
paths = (
{
closed = 1;
nodes = (
"12 380 LINE",
"88 380 LINE",
"88 0 LINE",
"176 0 LINE",
"176 224 LINE",
"452 224 LINE",
"452 0 LINE",
"540 0 LINE",
"540 380 LINE",
"616 380 LINE",
"616 444 LINE",
"540 444 LINE",
"540 520 LINE",
"452 520 LINE",
"452 444 LINE",
"176 444 LINE",
"176 520 LINE",
"88 520 LINE",
"88 444 LINE",
"12 444 LINE"
);
},
{
closed = 1;
nodes = (
"176 380 LINE",
"452 380 LINE",
"452 300 LINE",
"176 300 LINE"
);
}
);
width = 628;
}
);
unicode = F681;
},
{
glyphname = dotlessi.sc;
layers = (
{
layerId = "E50B3E3D-B4C5-41E4-9ECD-CCE241FA0330";
name = Regular;
paths = (
{
closed = 1;
nodes = (
"88 0 LINE",
"176 0 LINE",
"176 520 LINE",
"88 520 LINE"
);
}
);
width = 264;
}
);
unicode = E08E;
},
{
glyphname = oslash.sc;
layers = (
{
layerId = "E50B3E3D-B4C5-41E4-9ECD-CCE241FA0330";
name = Regular;
paths = (
{
closed = 1;
nodes = (
"60 -12 LINE",
"132 -12 LINE",
"166 30 LINE",
"208 3 OFFCURVE",
"259 -12 OFFCURVE",
"316 -12 CURVE SMOOTH",
"472 -12 OFFCURVE",
"588 104 OFFCURVE",
"588 260 CURVE SMOOTH",
"588 337 OFFCURVE",
"559 405 OFFCURVE",
"511 453 CURVE",
"576 532 LINE",
"504 532 LINE",
"468 488 LINE",
"425 516 OFFCURVE",
"373 532 OFFCURVE",
"316 532 CURVE SMOOTH",
"160 532 OFFCURVE",
"44 416 OFFCURVE",
"44 260 CURVE SMOOTH",
"44 181 OFFCURVE",
"73 113 OFFCURVE",
"122 64 CURVE"
);
},
{
closed = 1;
nodes = (
"136 371 OFFCURVE",
"207 452 OFFCURVE",
"316 452 CURVE SMOOTH",
"354 452 OFFCURVE",
"388 442 OFFCURVE",
"416 424 CURVE",
"177 131 LINE",
"150 165 OFFCURVE",
"136 209 OFFCURVE",
"136 260 CURVE SMOOTH"
);
},
{
closed = 1;
nodes = (
"496 149 OFFCURVE",
"425 68 OFFCURVE",
"316 68 CURVE SMOOTH",
"278 68 OFFCURVE",
"245 77 OFFCURVE",
"218 94 CURVE",
"456 386 LINE",
"482 353 OFFCURVE",
"496 309 OFFCURVE",
"496 260 CURVE SMOOTH"
);
}
);
width = 632;
}
);
leftKerningGroup = c.sc;
rightKerningGroup = d.sc;
unicode = F7F8;
},
{
glyphname = tbar.sc;
layers = (
{
layerId = "E50B3E3D-B4C5-41E4-9ECD-CCE241FA0330";
name = Regular;
paths = (
{
closed = 1;
nodes = (
"20 444 LINE",
"212 444 LINE",
"212 268 LINE",
"68 268 LINE",
"68 204 LINE",
"212 204 LINE",
"212 0 LINE",
"300 0 LINE",
"300 204 LINE",
"452 204 LINE",
"452 268 LINE",
"300 268 LINE",
"300 444 LINE",
"492 444 LINE",
"492 520 LINE",
"20 520 LINE"
);
}
);
width = 512;
}
);
unicode = F69C;
},
{
glyphname = eng.sc;
layers = (
{
layerId = "E50B3E3D-B4C5-41E4-9ECD-CCE241FA0330";
name = Regular;
paths = (
{
closed = 1;
nodes = (
"88 0 LINE",
"176 0 LINE",
"172 372 LINE",
"176 372 LINE",
"452 15 LINE",
"452 -28 LINE SMOOTH",
"452 -110 OFFCURVE",
"422 -140 OFFCURVE",
"360 -140 CURVE SMOOTH",
"316 -140 LINE",
"316 -220 LINE",
"364 -220 LINE SMOOTH",
"477 -220 OFFCURVE",
"540 -178 OFFCURVE",
"540 -32 CURVE SMOOTH",
"540 520 LINE",
"452 520 LINE",
"455 148 LINE",
"452 148 LINE",
"168 520 LINE",
"88 520 LINE"
);
}
);
width = 628;
}
);
leftKerningGroup = b.sc;
unicode = F67B;
},
{
glyphname = eth.sc;
layers = (
{
layerId = "E50B3E3D-B4C5-41E4-9ECD-CCE241FA0330";
name = Regular;
paths = (
{
closed = 1;
nodes = (
"4 228 LINE",
"88 228 LINE",
"88 0 LINE",
"280 0 LINE SMOOTH",
"457 0 OFFCURVE",
"556 110 OFFCURVE",
"556 260 CURVE SMOOTH",
"556 412 OFFCURVE",
"456 520 OFFCURVE",
"280 520 CURVE SMOOTH",
"88 520 LINE",
"88 292 LINE",
"4 292 LINE"
);
},
{
closed = 1;
nodes = (
"280 444 LINE SMOOTH",
"414 444 OFFCURVE",
"464 356 OFFCURVE",
"464 260 CURVE SMOOTH",
"464 164 OFFCURVE",
"414 76 OFFCURVE",
"280 76 CURVE SMOOTH",
"176 76 LINE",
"176 228 LINE",
"284 228 LINE",
"284 292 LINE",
"176 292 LINE",
"176 444 LINE"
);
}
);
width = 600;
}
);
rightKerningGroup = d.sc;
unicode = F7F0;
},
{
glyphname = thorn.sc;
layers = (
{
layerId = "E50B3E3D-B4C5-41E4-9ECD-CCE241FA0330";
name = Regular;
paths = (
{
closed = 1;
nodes = (
"88 0 LINE",
"176 0 LINE",
"176 96 LINE",
"316 96 LINE SMOOTH",
"439 96 OFFCURVE",
"504 168 OFFCURVE",
"504 268 CURVE SMOOTH",
"504 367 OFFCURVE",
"439 440 OFFCURVE",
"316 440 CURVE SMOOTH",
"176 440 LINE",
"176 520 LINE",
"88 520 LINE"
);
},
{
closed = 1;
nodes = (
"316 364 LINE SMOOTH",
"383 364 OFFCURVE",
"416 324 OFFCURVE",
"416 268 CURVE SMOOTH",
"416 212 OFFCURVE",
"383 172 OFFCURVE",
"316 172 CURVE SMOOTH",
"176 172 LINE",
"176 364 LINE"
);
}
);
width = 548;
}
);
leftKerningGroup = b.sc;
unicode = F7FE;
},
{
glyphname = germandbls.sc;
layers = (
{
layerId = "E50B3E3D-B4C5-41E4-9ECD-CCE241FA0330";
name = Regular;
paths = (
{
closed = 1;
nodes = (
"44 148 LINE",
"44 50 OFFCURVE",
"124 -12 OFFCURVE",
"260 -12 CURVE SMOOTH",
"400 -12 OFFCURVE",
"480 51 OFFCURVE",
"480 152 CURVE SMOOTH",
"480 357 OFFCURVE",
"144 250 OFFCURVE",
"144 380 CURVE SMOOTH",
"144 436 OFFCURVE",
"192 460 OFFCURVE",
"264 460 CURVE SMOOTH",
"332 460 OFFCURVE",
"380 428 OFFCURVE",
"380 376 CURVE",
"464 376 LINE",
"464 472 OFFCURVE",
"388 532 OFFCURVE",
"264 532 CURVE SMOOTH",
"136 532 OFFCURVE",
"54 467 OFFCURVE",
"54 372 CURVE SMOOTH",
"54 164 OFFCURVE",
"388 269 OFFCURVE",
"388 144 CURVE SMOOTH",
"388 87 OFFCURVE",
"340 60 OFFCURVE",
"260 60 CURVE SMOOTH",
"180 60 OFFCURVE",
"132 92 OFFCURVE",
"132 148 CURVE"
);
},
{
closed = 1;
nodes = (
"560 148 LINE",
"560 50 OFFCURVE",
"640 -12 OFFCURVE",
"776 -12 CURVE SMOOTH",
"916 -12 OFFCURVE",
"996 51 OFFCURVE",
"996 152 CURVE SMOOTH",
"996 357 OFFCURVE",
"660 250 OFFCURVE",
"660 380 CURVE SMOOTH",
"660 436 OFFCURVE",
"708 460 OFFCURVE",
"780 460 CURVE SMOOTH",
"848 460 OFFCURVE",
"896 428 OFFCURVE",
"896 376 CURVE",
"980 376 LINE",
"980 472 OFFCURVE",
"904 532 OFFCURVE",
"780 532 CURVE SMOOTH",
"652 532 OFFCURVE",
"570 467 OFFCURVE",
"570 372 CURVE SMOOTH",
"570 164 OFFCURVE",
"904 269 OFFCURVE",
"904 144 CURVE SMOOTH",
"904 87 OFFCURVE",
"856 60 OFFCURVE",
"776 60 CURVE SMOOTH",
"696 60 OFFCURVE",
"648 92 OFFCURVE",
"648 148 CURVE"
);
}
);
width = 1044;
}
);
leftKerningGroup = s.sc;
rightKerningGroup = s.sc;
unicode = E0A4;
},
{
glyphname = ae.sc;
layers = (
{
layerId = "E50B3E3D-B4C5-41E4-9ECD-CCE241FA0330";
name = Regular;
paths = (
{
closed = 1;
nodes = (
"0 0 LINE",
"100 0 LINE",
"197 128 LINE",
"432 128 LINE",
"432 0 LINE",
"820 0 LINE",
"820 76 LINE",
"520 76 LINE",
"520 228 LINE",
"756 228 LINE",
"756 302 LINE",
"520 302 LINE",
"520 444 LINE",
"812 444 LINE",
"812 520 LINE",
"404 520 LINE"
);
},
{
closed = 1;
nodes = (
"428 432 LINE",
"432 432 LINE",
"432 200 LINE",
"251 200 LINE"
);
}
);
width = 880;
}
);
leftKerningGroup = ae.sc;
rightKerningGroup = e.sc;
unicode = F7E6;
},
{
glyphname = oe.sc;
layers = (
{
layerId = "E50B3E3D-B4C5-41E4-9ECD-CCE241FA0330";
name = Regular;
paths = (
{
closed = 1;
nodes = (
"812 0 LINE",
"812 76 LINE",
"512 76 LINE",
"512 228 LINE",
"748 228 LINE",
"748 302 LINE",
"512 302 LINE",
"512 444 LINE",
"804 444 LINE",
"804 520 LINE",
"320 520 LINE SMOOTH",
"143 520 OFFCURVE",
"44 410 OFFCURVE",
"44 260 CURVE SMOOTH",
"44 108 OFFCURVE",
"144 0 OFFCURVE",
"320 0 CURVE SMOOTH"
);
},
{
closed = 1;
nodes = (
"136 356 OFFCURVE",
"186 444 OFFCURVE",
"320 444 CURVE SMOOTH",
"424 444 LINE",
"424 76 LINE",
"320 76 LINE SMOOTH",
"186 76 OFFCURVE",
"136 164 OFFCURVE",
"136 260 CURVE SMOOTH"
);
}
);
width = 872;
}
);
leftKerningGroup = c.sc;
rightKerningGroup = e.sc;
unicode = F6FA;
},
{
glyphname = ij.sc;
layers = (
{
layerId = "E50B3E3D-B4C5-41E4-9ECD-CCE241FA0330";
name = Regular;
paths = (
{
closed = 1;
nodes = (
"88 0 LINE",
"176 0 LINE",
"176 520 LINE",
"88 520 LINE"
);
},
{
closed = 1;
nodes = (
"308 152 LINE SMOOTH",
"308 35 OFFCURVE",
"376 -12 OFFCURVE",
"472 -12 CURVE SMOOTH",
"569 -12 OFFCURVE",
"640 39 OFFCURVE",
"640 160 CURVE SMOOTH",
"640 520 LINE",
"552 520 LINE",
"552 160 LINE SMOOTH",
"552 93 OFFCURVE",
"518 64 OFFCURVE",
"472 64 CURVE SMOOTH",
"425 64 OFFCURVE",
"392 92 OFFCURVE",
"392 156 CURVE SMOOTH",
"392 176 LINE",
"308 176 LINE"
);
}
);
width = 712;
}
);
leftKerningGroup = b.sc;
unicode = F684;
},
